<svg width="36" height="36" viewBox="0 0 36 36" fill="none" xmlns="http://www.w3.org/2000/svg">
<path d="M18 6C11.3831 6 6 11.3832 6 18C6 24.6168 11.3831 30 18 30C24.6169 30 30 24.6168 30 18C30 11.3832 24.6169 6 18 6ZM18 8.32256C20.2505 8.32256 22.324 9.09473 23.9696 10.3881L10.3881 23.9696C9.09478 22.324 8.32256 20.2505 8.32256 18C8.32256 12.6639 12.6639 8.32256 18 8.32256ZM18 27.6774C15.7495 27.6774 13.676 26.9053 12.0304 25.6119L25.6119 12.0304C26.9053 13.676 27.6774 15.7495 27.6774 18C27.6774 23.3361 23.3361 27.6774 18 27.6774Z" fill="url(#paint0_linear_11264_27095)"/>
<path d="M29.9167 18C29.9167 11.4292 24.5709 6.08333 18 6.08333C11.4291 6.08333 6.08333 11.4292 6.08333 18C6.08333 24.5708 11.4291 29.9167 18 29.9167C24.5709 29.9167 29.9167 24.5708 29.9167 18ZM26.527 18C26.527 16.4591 26.1141 15.0148 25.3961 13.7661L13.7661 25.3961C15.0148 26.1141 16.4591 26.527 18 26.527V27.6104L17.5832 27.6008C15.5096 27.5119 13.6043 26.763 12.0723 25.559L25.559 12.0723C26.8433 13.7064 27.6104 15.7652 27.6104 18L27.5977 18.4941C27.3396 23.5644 23.1334 27.6104 18 27.6104V26.527C22.7007 26.527 26.527 22.7007 26.527 18ZM18.4168 8.39917C20.4904 8.4881 22.3957 9.23699 23.9277 10.441L10.441 23.9277C9.23704 22.3957 8.4881 20.4904 8.39917 18.4168L8.38965 18C8.38965 12.7009 12.7009 8.38965 18 8.38965L18.4168 8.39917ZM9.47298 18C9.47298 19.5404 9.88531 20.9844 10.6029 22.2328L22.2328 10.6029C20.9844 9.8853 19.5404 9.47298 18 9.47298C13.2993 9.47298 9.47298 13.2993 9.47298 18ZM31 18C31 25.1691 25.1692 31 18 31C10.8308 31 5 25.1691 5 18C5 10.8309 10.8308 5 18 5C25.1692 5 31 10.8309 31 18Z" fill="url(#paint1_linear_11264_27095)"/>
<path d="M31 18C31 10.9428 25.35 5.18214 18.335 5.00391L18 5C10.8308 5 5 10.8309 5 18L5.00391 18.335C5.17931 25.2386 10.7613 30.8207 17.665 30.9961L18 31C25.0573 31 30.8179 25.3499 30.9961 18.335L31 18ZM29.6162 18C29.6162 11.5949 24.4052 6.38379 18 6.38379C11.5948 6.38379 6.38379 11.5949 6.38379 18C6.38379 24.4051 11.5948 29.6162 18 29.6162V29.917L17.6934 29.9131C11.3655 29.7525 6.24754 24.6344 6.08691 18.3066L6.08301 18C6.08301 11.4292 11.4291 6.08301 18 6.08301L18.3066 6.08691C24.7364 6.25013 29.917 11.5317 29.917 18L29.9131 18.3066C29.7499 24.7363 24.4684 29.917 18 29.917V29.6162C24.4052 29.6162 29.6162 24.4051 29.6162 18ZM25.7949 11.8867C27.1191 13.5716 27.9102 15.6954 27.9102 18V18.0078L27.8975 18.502V18.5098C27.6311 23.7386 23.2939 27.9102 18 27.9102H17.9932L17.5762 27.9004H17.5703C15.4317 27.8087 13.4663 27.0363 11.8867 25.7949L11.6211 25.5859L25.5859 11.6211L25.7949 11.8867ZM12.0723 25.5586C13.6042 26.7626 15.5095 27.5116 17.583 27.6006L18 27.6104C22.9728 27.6104 27.0751 23.8136 27.5615 18.9668L27.5977 18.4941L27.6104 18C27.6104 15.7652 26.8429 13.7063 25.5586 12.0723L12.0723 25.5586ZM26.2266 18C26.2266 16.6539 25.8993 15.3851 25.3232 14.2627L14.2627 25.3232C15.3851 25.8993 16.6539 26.2266 18 26.2266C22.5351 26.2266 26.2266 22.5351 26.2266 18ZM18.0068 8.08984L18.4238 8.09961H18.4297L18.8281 8.125C20.8122 8.28992 22.6323 9.04117 24.1133 10.2051L24.3789 10.4141L10.4141 24.3789L10.2051 24.1133C8.96372 22.5337 8.19133 20.5683 8.09961 18.4297V18.4238L8.08984 18.0068V18L8.10254 17.4912C8.36824 12.262 12.7059 8.08984 18 8.08984H18.0068ZM18 8.38965C12.7009 8.38965 8.38965 12.7009 8.38965 18L8.39941 18.417C8.48838 20.4905 9.23748 22.3958 10.4414 23.9277L23.9277 10.4414C22.3958 9.23743 20.4905 8.48838 18.417 8.39941L18 8.38965ZM18.2881 9.47754C19.7202 9.52552 21.0622 9.93004 22.2324 10.6025L10.6025 22.2324C9.93005 21.0622 9.52552 19.7202 9.47754 18.2881L9.47266 18C9.47266 13.2993 13.2993 9.47266 18 9.47266L18.2881 9.47754ZM9.77344 18C9.77344 19.3452 10.0995 20.6135 10.6748 21.7354L21.7354 10.6748C20.6135 10.0995 19.3452 9.77344 18 9.77344C13.4649 9.77344 9.77344 13.4649 9.77344 18ZM26.5156 18.4385C26.2865 22.9364 22.5537 26.5273 18 26.5273C16.4593 26.5273 15.0152 26.1143 13.7666 25.3965L25.3965 13.7666C26.1143 15.0152 26.5273 16.4593 26.5273 18L26.5156 18.4385ZM31.2998 18C31.2998 25.3348 25.3349 31.2998 18 31.2998C10.6651 31.2998 4.7002 25.3348 4.7002 18C4.7002 10.6652 10.6651 4.7002 18 4.7002C25.3349 4.7002 31.2998 10.6652 31.2998 18Z" fill="url(#paint2_linear_11264_27095)"/>
<defs>
<linearGradient id="paint0_linear_11264_27095" x1="18" y1="6" x2="18" y2="30" gradientUnits="userSpaceOnUse">
<stop stop-color="#ED5A3B"/>
<stop offset="1" stop-color="#AF3117"/>
</linearGradient>
<linearGradient id="paint1_linear_11264_27095" x1="18" y1="5" x2="18" y2="31" gradientUnits="userSpaceOnUse">
<stop stop-color="#EC5A3A"/>
<stop offset="1" stop-color="#AF3117"/>
</linearGradient>
<linearGradient id="paint2_linear_11264_27095" x1="18" y1="5" x2="18" y2="31" gradientUnits="userSpaceOnUse">
<stop stop-color="#EB5A39"/>
<stop offset="1" stop-color="#B03117"/>
</linearGradient>
</defs>
</svg>
