<svg width="36" height="36" viewBox="0 0 36 36" fill="none" xmlns="http://www.w3.org/2000/svg">
<path d="M15.8283 6C16.5981 4.66667 18.5226 4.66667 19.2924 6L31.8498 27.75C32.6196 29.0833 31.6573 30.75 30.1177 30.75H5.00298C3.46338 30.75 2.50113 29.0833 3.27093 27.75L15.8283 6Z" fill="url(#paint0_linear_11265_27105)"/>
<path d="M15.8278 6C16.5976 4.66667 18.5229 4.66667 19.2927 6L31.8493 27.75C32.595 29.0416 31.7158 30.646 30.2605 30.7451L30.1179 30.75V29.75C30.8875 29.7498 31.3687 28.9166 30.9841 28.25L18.4265 6.5C18.0657 5.87505 17.1975 5.83607 16.7731 6.38281L16.694 6.5L4.13643 28.25C3.75177 28.9166 4.23306 29.7498 5.00264 29.75V30.75L4.86006 30.7451C3.4517 30.6492 2.5826 29.1436 3.20381 27.876L3.2712 27.75L15.8278 6ZM30.1179 29.75V30.75H5.00264V29.75H30.1179Z" fill="#FFD93C"/>
<path d="M18.9476 12.0938L18.7226 22.572H16.5272L16.309 12.0938H18.9476ZM17.6249 27.0938C17.2112 27.0938 16.8567 26.9392 16.5612 26.63C16.2703 26.3208 16.1249 25.944 16.1249 25.4995C16.1249 25.0648 16.2703 24.6928 16.5612 24.3836C16.8567 24.0744 17.2112 23.9198 17.6249 23.9198C18.0294 23.9198 18.3794 24.0744 18.6749 24.3836C18.9749 24.6928 19.1249 25.0648 19.1249 25.4995C19.1249 25.7942 19.0544 26.0623 18.9135 26.3039C18.7772 26.5454 18.5953 26.7387 18.3681 26.8836C18.1453 27.0237 17.8976 27.0938 17.6249 27.0938Z" fill="black"/>
<defs>
<linearGradient id="paint0_linear_11265_27105" x1="17.5604" y1="3" x2="17.5604" y2="40" gradientUnits="userSpaceOnUse">
<stop stop-color="#FFE980"/>
<stop offset="0.932692" stop-color="#FFD93C"/>
</linearGradient>
</defs>
</svg>
