<svg width="36" height="36" viewBox="0 0 36 36" fill="none" xmlns="http://www.w3.org/2000/svg">
<path d="M7 5.15039H28C28.4694 5.15039 28.8496 5.53056 28.8496 6V26.6445C28.8496 26.8769 28.755 27.0994 28.5869 27.2598L24.0205 31.6152C23.8625 31.766 23.652 31.8496 23.4336 31.8496H7C6.53056 31.8496 6.15039 31.4694 6.15039 31V6C6.15039 5.53056 6.53056 5.15039 7 5.15039Z" fill="#FEFEFE" stroke="#666666" stroke-width="0.3"/>
<path d="M26.0982 12.5596H8.58191V13.083H26.0982V12.5596Z" fill="#666666"/>
<path d="M26.0982 15.3857H8.58191V15.9092H26.0982V15.3857Z" fill="#666666"/>
<path d="M26.0982 18.2109H8.58191V18.7344H26.0982V18.2109Z" fill="#666666"/>
<path d="M26.0982 21.0039H8.58191V21.5273H26.0982V21.0039Z" fill="#666666"/>
<path d="M26.0982 23.8291H8.58191V24.3525H26.0982V23.8291Z" fill="#666666"/>
<path d="M16.8516 27.0947H8.58191V27.6181H16.8516V27.0947Z" fill="#666666"/>
<path d="M23.9056 32.3591L29 27.2646H23.9056V32.3591Z" fill="#F4F2F2"/>
<path d="M21 9H14V10H21V9Z" fill="#535353"/>
<path d="M23.9339 14.783L22.4576 13.9355L21.6053 15.4034L23.0816 16.2508L23.9339 14.783Z" fill="#E0E1E2"/>
<path d="M25.6385 11.8475L24.8948 11.4206C24.7937 11.3625 24.6837 11.3307 24.5715 11.3222C24.5154 11.318 24.4589 11.3196 24.4026 11.3276C24.1208 11.3654 23.8457 11.5452 23.6789 11.8325L22.4576 13.9357L23.9339 14.7831L25.6385 11.8475Z" fill="#E85738"/>
<path d="M24.9268 17.3103L23.0815 16.251L18.1808 24.6911L20.0261 25.7504L24.9268 17.3103Z" fill="#F2C91D"/>
<path d="M25.7791 15.8425L23.9338 14.7832L23.0815 16.251L24.9268 17.3104L25.7791 15.8425Z" fill="#C4C4C4"/>
<path d="M25.7791 15.8427L27.0003 13.7395C27.1671 13.4522 27.1541 13.107 26.9975 12.8174C26.9664 12.7598 26.9289 12.7036 26.8866 12.6514C26.8012 12.5465 26.6944 12.4539 26.568 12.3813L25.6384 11.8477L23.9338 14.7833L25.7791 15.8427Z" fill="#B13218"/>
<path d="M20.0261 25.7505L16.7046 23.8438L16.6607 27.7328L20.0261 25.7505Z" fill="#FDEDD9"/>
<path d="M17.8536 26.95L16.7465 26.3145L16.6608 27.7331L17.8536 26.95Z" fill="#4C4C4C"/>
<path d="M23.0816 16.2508L21.6053 15.4033L16.7046 23.8434L18.1808 24.6909L23.0816 16.2508Z" fill="#FFD93C"/>
</svg>
