<svg width="64" height="24" viewBox="0 0 64 24" fill="none" xmlns="http://www.w3.org/2000/svg">
<path d="M10.82 18.5H9.66L5.64 12.56L1.56 18.5H0.38L5.1 11.72L0.78 5.3H1.98L5.72 10.88L9.52 5.3H10.66L6.26 11.7L10.82 18.5ZM26.6881 5.3V18.5H25.7281V8.66L25.8481 6.26H25.8281L21.0081 18.5H20.0881L15.2681 6.26H15.2481L15.3681 8.66V18.5H14.4081V5.3H15.9081L19.8881 15.3L20.5481 17.32H20.5681L21.2081 15.32L25.1881 5.3H26.6881ZM32.8534 17.58H40.7734V18.5H31.8534V5.3H32.8534V17.58Z" fill="#143566"/>
<path d="M55.2188 5.3V13.12C55.2188 14.9867 54.7188 16.3867 53.7188 17.32C52.7321 18.24 51.2654 18.7 49.3188 18.7C47.3854 18.7 45.9188 18.24 44.9188 17.32C43.9188 16.3867 43.4188 14.9867 43.4188 13.12V5.3H46.8788V13.18C46.8788 14.1267 47.0788 14.8333 47.4788 15.3C47.8921 15.7667 48.5054 16 49.3188 16C50.1454 16 50.7588 15.7667 51.1588 15.3C51.5721 14.8333 51.7788 14.1267 51.7788 13.18V5.3H55.2188ZM62.318 5.3V18.5H58.878V5.3H62.318Z" fill="#DA020F"/>
</svg>
