<svg width="64" height="15" viewBox="0 0 64 15" fill="none" xmlns="http://www.w3.org/2000/svg">
<path d="M10.82 14H9.66L5.64 8.06L1.56 14H0.38L5.1 7.22L0.78 0.799999H1.98L5.72 6.38L9.52 0.799999H10.66L6.26 7.2L10.82 14ZM27.6881 0.799999V14H26.7281V4.16L26.8481 1.76H26.8281L22.0081 14H21.0881L16.2681 1.76H16.2481L16.3681 4.16V14H15.4081V0.799999H16.9081L20.8881 10.8L21.5481 12.82H21.5681L22.2081 10.82L26.1881 0.799999H27.6881ZM34.8534 13.08H42.7734V14H33.8534V0.799999H34.8534V13.08Z" fill="black"/>
<path d="M56.6123 0.799999V9.18C56.6123 10.82 56.1657 12.0667 55.2723 12.92C54.3923 13.7733 53.1457 14.2 51.5323 14.2C49.919 14.2 48.6657 13.7733 47.7723 12.92C46.879 12.0667 46.4323 10.82 46.4323 9.18V0.799999H47.4323V8.98C47.4323 10.3933 47.779 11.4667 48.4723 12.2C49.179 12.92 50.199 13.28 51.5323 13.28C52.8657 13.28 53.879 12.92 54.5723 12.2C55.2657 11.4667 55.6123 10.3933 55.6123 8.98V0.799999H56.6123ZM63.4628 0.799999V14H62.4628V0.799999H63.4628Z" fill="#DA020F"/>
</svg>
