<svg width="66" height="15" viewBox="0 0 66 15" fill="none" xmlns="http://www.w3.org/2000/svg">
<path d="M13.72 14H8.8L6.72 10.2L4.76 14H0.12L4.56 7.4L0.34 0.799999H5.16L7.04 4.44L8.94 0.799999H13.38L9.18 7.28L13.72 14ZM32.0914 0.799999V14H28.4914V8.72L28.5714 4.46H28.5314L25.6314 14H22.3514L19.4914 4.46H19.4314L19.5114 8.72V14H15.9114V0.799999H21.6714L23.4514 7.06L24.1114 9.68H24.1514L24.8114 7.06L26.5914 0.799999H32.0914ZM39.5852 10.94H45.8652V14H35.5052V0.799999H39.5852V10.94Z" fill="#091D3D"/>
<path d="M59.3155 0.799999V9.18C59.3155 10.82 58.8688 12.0667 57.9755 12.92C57.0955 13.7733 55.8488 14.2 54.2355 14.2C52.6221 14.2 51.3688 13.7733 50.4755 12.92C49.5821 12.0667 49.1355 10.82 49.1355 9.18V0.799999H50.1355V8.98C50.1355 10.3933 50.4821 11.4667 51.1755 12.2C51.8821 12.92 52.9021 13.28 54.2355 13.28C55.5688 13.28 56.5821 12.92 57.2755 12.2C57.9688 11.4667 58.3155 10.3933 58.3155 8.98V0.799999H59.3155ZM65.1659 0.799999V14H64.1659V0.799999H65.1659Z" fill="#DA020F"/>
</svg>
