<svg width="60" height="15" viewBox="0 0 60 15" fill="none" xmlns="http://www.w3.org/2000/svg">
<path d="M13.72 14H8.8L6.72 10.2L4.76 14H0.12L4.56 7.4L0.34 0.799999H5.16L7.04 4.44L8.94 0.799999H13.38L9.18 7.28L13.72 14ZM32.0914 0.799999V14H28.4914V8.72L28.5714 4.46H28.5314L25.6314 14H22.3514L19.4914 4.46H19.4314L19.5114 8.72V14H15.9114V0.799999H21.6714L23.4514 7.06L24.1114 9.68H24.1514L24.8114 7.06L26.5914 0.799999H32.0914ZM39.5852 10.94H45.8652V14H35.5052V0.799999H39.5852V10.94Z" fill="black"/>
<path d="M55.3115 6.08V10.676C55.3115 11.828 55.0035 12.692 54.3875 13.268C53.7715 13.836 52.8515 14.12 51.6275 14.12C50.3955 14.12 49.4715 13.836 48.8555 13.268C48.2395 12.692 47.9315 11.828 47.9315 10.676V6.08H50.3915V10.808C50.3915 11.288 50.4955 11.648 50.7035 11.888C50.9115 12.128 51.2195 12.248 51.6275 12.248C52.0355 12.248 52.3435 12.128 52.5515 11.888C52.7595 11.648 52.8635 11.288 52.8635 10.808V6.08H55.3115ZM59.6667 6.08V14H57.2187V6.08H59.6667Z" fill="#DA020F"/>
</svg>
