<svg width="65" height="24" viewBox="0 0 65 24" fill="none" xmlns="http://www.w3.org/2000/svg">
<path d="M4.14773 4.45455L7.08097 9.41193H7.1946L10.142 4.45455H13.6151L9.17614 11.7273L13.7145 19H10.1776L7.1946 14.0355H7.08097L4.09801 19H0.575284L5.12784 11.7273L0.660511 4.45455H4.14773ZM15.5611 4.45455H19.3537L23.3594 14.2273H23.5298L27.5355 4.45455H31.3281V19H28.3452V9.53267H28.2244L24.4602 18.929H22.429L18.6648 9.49716H18.544V19H15.5611V4.45455ZM33.8619 19V4.45455H36.9371V16.4645H43.1729V19H33.8619Z" fill="#143566"/>
<path d="M54.1939 4.45455H57.2692V13.9006C57.2692 14.9612 57.0159 15.8892 56.5092 16.6847C56.0073 17.4801 55.3042 18.1004 54.3999 18.5455C53.4955 18.9858 52.442 19.206 51.2393 19.206C50.032 19.206 48.9761 18.9858 48.0717 18.5455C47.1674 18.1004 46.4643 17.4801 45.9624 16.6847C45.4605 15.8892 45.2095 14.9612 45.2095 13.9006V4.45455H48.2848V13.6378C48.2848 14.1918 48.4055 14.6842 48.647 15.1151C48.8932 15.5459 49.2389 15.8845 49.6839 16.1307C50.129 16.3769 50.6475 16.5 51.2393 16.5C51.8359 16.5 52.3544 16.3769 52.7947 16.1307C53.2398 15.8845 53.5831 15.5459 53.8246 15.1151C54.0708 14.6842 54.1939 14.1918 54.1939 13.6378V4.45455ZM62.8746 4.45455V19H59.7994V4.45455H62.8746Z" fill="#DA020F"/>
</svg>
