<svg width="63" height="23" viewBox="0 0 63 23" fill="none" xmlns="http://www.w3.org/2000/svg">
<path d="M21.5 17.75C24.9518 17.75 27.75 14.9518 27.75 11.5C27.75 8.04822 24.9518 5.25 21.5 5.25C18.0482 5.25 15.25 8.04822 15.25 11.5C15.25 14.9518 18.0482 17.75 21.5 17.75Z" stroke="#106CBD" stroke-width="2" stroke-linecap="round" stroke-linejoin="round"/>
<path d="M21.5 7.75V11.5L24 12.75" stroke="#106CBD" stroke-width="1.5" stroke-linecap="round" stroke-linejoin="round"/>
<path d="M12.7129 5.96875H8.68945V18H6.36523V5.96875H2.35156V3.99609H12.7129V5.96875Z" fill="#106CBD"/>
<path d="M30.7285 18V3.99609H34.7715C39.9342 3.99609 42.5156 6.27148 42.5156 10.8223C42.5156 12.9837 41.7995 14.722 40.3672 16.0371C38.9349 17.3457 37.0143 18 34.6055 18H30.7285ZM33.043 5.96875V16.0371H34.8984C36.5326 16.0371 37.8021 15.5879 38.707 14.6895C39.6185 13.791 40.0742 12.5215 40.0742 10.8809C40.0742 7.60612 38.3783 5.96875 34.9863 5.96875H33.043Z" fill="#106CBD"/>
<path fill-rule="evenodd" clip-rule="evenodd" d="M53.6368 6.70093C52.6026 6.24016 51.4473 6.12601 50.343 6.3755C49.2387 6.625 48.2447 7.22478 47.5091 8.08539C46.7735 8.946 46.3359 10.0213 46.2614 11.151C46.1869 12.2807 46.4796 13.4041 47.0958 14.3539C47.7119 15.3036 48.6186 16.0287 49.6806 16.4211C50.7426 16.8134 51.9029 16.852 52.9886 16.531C54.0742 16.21 55.027 15.5466 55.7049 14.6399C56.3828 13.7331 56.7494 12.6316 56.75 11.4994V10.925C56.75 10.3727 57.1977 9.925 57.75 9.925C58.3023 9.925 58.75 10.3727 58.75 10.925V11.5C58.7491 13.0634 58.2429 14.5852 57.3068 15.8374C56.3707 17.0896 55.0549 18.0056 53.5556 18.4489C52.0564 18.8922 50.454 18.839 48.9875 18.2971C47.521 17.7553 46.2689 16.754 45.4179 15.4424C44.567 14.1309 44.1628 12.5794 44.2657 11.0194C44.3686 9.45938 44.973 7.97441 45.9888 6.78595C47.0045 5.59749 48.3773 4.76922 49.9022 4.42468C51.4272 4.08013 53.0227 4.23777 54.4508 4.87407C54.9552 5.09885 55.182 5.69003 54.9572 6.1945C54.7324 6.69897 54.1412 6.92571 53.6368 6.70093Z" fill="#106CBD"/>
<path fill-rule="evenodd" clip-rule="evenodd" d="M58.2801 5.9694C58.5731 6.26215 58.5733 6.73703 58.2806 7.03007L52.0306 13.2863C51.89 13.4271 51.6992 13.5062 51.5002 13.5062C51.3012 13.5063 51.1104 13.4273 50.9697 13.2866L49.0947 11.4116C48.8018 11.1187 48.8018 10.6438 49.0947 10.3509C49.3876 10.058 49.8624 10.058 50.1553 10.3509L51.4997 11.6953L57.2194 5.96993C57.5122 5.6769 57.987 5.67666 58.2801 5.9694Z" fill="#106CBD"/>
</svg>
