<svg xmlns="http://www.w3.org/2000/svg" width="24" height="24" fill="none" stroke="currentColor" stroke-linecap="round" stroke-linejoin="round" stroke-width="2" class="icon icon-tabler icons-tabler-outline icon-tabler-tournament" viewBox="0 0 24 24"><path stroke="none" d="M0 24V0h24v24z"/><path d="M4 22a2 2 0 1 0 0-4 2 2 0 1 0 0 4m6-16a2 2 0 1 0 0-4 2 2 0 1 0 0 4m2 16a2 2 0 1 0 0-4 2 2 0 1 0 0 4m8 0a2 2 0 1 0 0-4 2 2 0 1 0 0 4m-8-4v-3a1 1 0 0 1 1-1h6a1 1 0 0 1 1 1v3"/><path d="M4 18v-7a1 1 0 0 1 1-1h10a1 1 0 0 1 1 1v2m-6-3V6"/></svg>