<svg xmlns="http://www.w3.org/2000/svg" width="16" height="16" fill="currentColor" viewBox="0 0 16 16"><path stroke="currentColor" stroke-width=".25" d="M15 4.957c0-.37-.144-.716-.405-.977L12.01 1.392c-.522-.523-1.431-.523-1.953 0L8 3.452v-.129c0-.772-.628-1.401-1.4-1.401H2.4c-.772 0-1.4.629-1.4 1.401V13.6c0 .77.628 1.4 1.4 1.4h10.267c.771 0 1.4-.629 1.4-1.401V9.395c0-.772-.629-1.401-1.4-1.401h-.13l2.058-2.059c.26-.26.405-.609.405-.978ZM2.4 2.855h4.2c.257 0 .467.21.467.467v4.671H1.933v-4.67c0-.259.21-.468.467-.468Zm-.467 10.743v-4.67h5.134v5.137H2.4a.47.47 0 0 1-.467-.467Zm11.2-4.204v4.204c0 .257-.21.467-.466.467H8V8.927h4.667c.256 0 .466.21.466.467ZM8 7.993v-1.53l1.529 1.53zm5.935-2.72-2.586 2.59a.456.456 0 0 1-.633 0L8.13 5.272a.445.445 0 0 1 0-.632l2.586-2.588a.444.444 0 0 1 .633 0l2.586 2.588a.445.445 0 0 1 0 .632Z"/></svg>