<?xml version="1.0" encoding="utf-8"?>
<!-- Generator: Adobe Illustrator 21.1.0, SVG Export Plug-In . SVG Version: 6.00 Build 0)  -->
<svg version="1.1" id="Layer_1" xmlns="http://www.w3.org/2000/svg" xmlns:xlink="http://www.w3.org/1999/xlink" x="0px" y="0px"
	 viewBox="0 0 817.3 149.8" style="enable-background:new 0 0 817.3 149.8;" xml:space="preserve">
<style type="text/css">
	.st0{fill:url(#SVGID_1_);}
	.st1{fill:url(#SVGID_2_);}
	.st2{opacity:0.7;}
	.st3{clip-path:url(#SVGID_4_);}
	.st4{fill:url(#SVGID_5_);}
	.st5{fill:#FFFFFF;}
	.st6{fill:#FEC761;}
	.st7{clip-path:url(#SVGID_7_);}
</style>
<title>nsoftware_logo</title>
<path d="M180.7,117.1V97.5c3.8,2.3,7.8,4.1,12,5.4c3.6,1.1,7.4,1.7,11.2,1.7c4.3,0,7.7-0.6,10.2-1.8c2.5-1.2,3.7-3,3.7-5.4
	c0-1.5-0.6-2.9-1.7-3.8c-1.3-1.1-2.8-2-4.3-2.7c-1.9-0.8-3.8-1.5-5.8-2.1c-2.1-0.6-4.1-1.3-6.1-2.1c-2.9-1.1-5.6-2.3-8.3-3.8
	c-2.2-1.2-4.3-2.8-6-4.7c-1.6-1.8-2.9-3.9-3.7-6.2c-0.9-2.7-1.3-5.5-1.3-8.4c-0.1-4,0.9-7.9,2.9-11.4c1.9-3.2,4.5-5.8,7.7-7.8
	c3.4-2.1,7.1-3.6,11-4.5c4.2-0.9,8.5-1.4,12.9-1.4c3.6,0,7.1,0.3,10.6,0.8c3.6,0.5,7.1,1.3,10.6,2.3v18.8c-3.1-1.8-6.4-3.1-9.9-4
	c-3.4-0.9-6.9-1.3-10.3-1.3c-1.5,0-3,0.1-4.5,0.4c-1.3,0.2-2.5,0.7-3.7,1.2c-1,0.5-1.9,1.2-2.5,2.1c-0.6,0.8-0.9,1.8-0.9,2.9
	c0,1.4,0.5,2.7,1.4,3.7c1,1.1,2.3,2,3.6,2.7c1.6,0.8,3.3,1.5,5,2c1.8,0.6,3.6,1.2,5.4,1.8c3,1,5.9,2.3,8.8,3.7
	c2.5,1.2,4.7,2.8,6.7,4.7c1.8,1.8,3.3,3.9,4.3,6.3c2.4,6.8,1.9,14.2-1.5,20.6c-2,3.3-4.8,6.1-8.1,8.1c-3.6,2.2-7.5,3.7-11.6,4.5
	c-4.5,1-9.1,1.4-13.6,1.4C196.5,121.2,188.4,119.9,180.7,117.1z"/>
<path d="M290.4,121.1c-13.1,0-23.5-3.7-31-11s-11.3-17.3-11.3-30c0-13,3.9-23.2,11.7-30.6c7.8-7.4,18.3-11,31.6-11
	c13.1,0,23.3,3.7,30.8,11c7.4,7.3,11.2,17.1,11.1,29.2c0,13.1-3.8,23.4-11.5,31C314.2,117.3,303.7,121.1,290.4,121.1z M291,57.1
	c-5.7,0-10.2,2-13.4,5.9c-3.2,3.9-4.8,9.5-4.8,16.8c0,15.1,6.1,22.7,18.3,22.7c11.6,0,17.5-7.8,17.5-23.3
	C308.6,64.5,302.8,57.1,291,57.1L291,57.1z"/>
<path d="M395,21.2c-2.9-1.2-5.9-1.8-9-1.8c-7.8,0-11.7,4.2-11.7,12.7v8.4h18v17.9h-18v60.8h-24.2V58.4h-13.2V40.5h13.2v-9.8
	c0-9,2.9-16.2,8.8-21.7c5.8-5.5,13.8-8.2,23.8-8.2c4.2-0.1,8.3,0.4,12.3,1.5L395,21.2z"/>
<path d="M459.7,118.3c-3.6,1.9-9,2.8-16.2,2.9c-17.1,0-25.7-8.9-25.7-26.7V58.4H405V40.5h12.8v-17l24.2-6.9v23.9h17.7v17.9H442v31.8
	c0,8.2,3.3,12.3,9.8,12.3c2.8-0.1,5.5-0.8,7.9-2.2L459.7,118.3z"/>
<path d="M593.4,40.5l-22.7,78.8h-25.5l-11.6-46.1c-0.8-3.3-1.2-6.7-1.3-10.1h-0.5c-0.2,3.3-0.8,6.6-1.5,9.8l-12.5,46.4h-25.2
	l-22.2-78.8h24.8L506,91.8c0.6,2.9,1,5.8,1.2,8.8h0.5c0.2-3.1,0.6-6.1,1.4-9.1l13.5-51.1h23.1l12.2,51.4c0.5,3,0.9,5.9,1.1,8.9h0.5
	c0.3-3,0.7-6,1.2-8.9l10.2-51.4L593.4,40.5L593.4,40.5z"/>
<path d="M671.6,119.2h-23v-11.3h-0.3c-5.3,8.8-13.1,13.2-23.5,13.2c-7.6,0-13.6-2.2-18-6.5s-6.6-10.1-6.6-17.3
	c0-15.3,9-24.1,27.2-26.5l21.4-2.8c0-8.6-4.7-12.9-14-12.9c-9.6,0.1-18.9,3-26.8,8.4V45.1c4.4-2.1,9.1-3.6,13.8-4.6
	c5.2-1.3,10.6-1.9,16-2c22.5,0,33.8,11.2,33.8,33.6L671.6,119.2L671.6,119.2z M648.8,87.2v-5.3l-14.3,1.9c-7.9,1-11.9,4.6-11.9,10.7
	c-0.1,2.6,1,5.1,2.9,6.8c2.2,1.9,5,2.8,7.8,2.6c4.2,0.1,8.3-1.6,11.2-4.7C647.3,95.9,648.9,91.6,648.8,87.2L648.8,87.2z"/>
<path d="M739.2,62.4c-3.2-1.6-6.7-2.5-10.2-2.4c-5.3,0-9.4,1.9-12.4,5.8s-4.5,9.1-4.5,15.8v37.6h-24.3V40.5h24.3v14.6h0.3
	c3.8-10.7,10.8-16,20.8-16c2-0.1,4.1,0.2,6,0.9L739.2,62.4L739.2,62.4z"/>
<path d="M817.3,86.8h-51.4c0.8,11.4,8,17.1,21.6,17.1c8,0.2,16-2,22.8-6.1v17.5c-7.3,3.9-16.7,5.8-28.4,5.8
	c-12.7,0-22.6-3.5-29.6-10.6S741.8,93.6,741.8,81c0-13.1,3.8-23.4,11.4-31.1c7.3-7.5,17.5-11.7,28-11.5c11.5,0,20.4,3.4,26.7,10.2
	s9.4,16.1,9.4,27.8V86.8z M794.8,71.8c0-11.3-4.6-16.9-13.7-16.9c-3.9,0-7.6,1.8-10.1,4.8c-2.9,3.4-4.7,7.6-5.2,12.1H794.8z"/>
<linearGradient id="SVGID_1_" gradientUnits="userSpaceOnUse" x1="25.1833" y1="668.0833" x2="126.0167" y2="768.9167" gradientTransform="matrix(1 0 0 1 0 -640)">
	<stop  offset="0" style="stop-color:#982723"/>
	<stop  offset="1" style="stop-color:#C32C28"/>
</linearGradient>
<circle class="st0" cx="75.6" cy="78.5" r="71.3"/>
<linearGradient id="SVGID_2_" gradientUnits="userSpaceOnUse" x1="26.8632" y1="669.1632" x2="123.7368" y2="766.0368" gradientTransform="matrix(1 0 0 1 0 -640)">
	<stop  offset="0" style="stop-color:#8F221E"/>
	<stop  offset="0.18" style="stop-color:#AE2221"/>
	<stop  offset="0.37" style="stop-color:#C72324"/>
	<stop  offset="0.56" style="stop-color:#DA2326"/>
	<stop  offset="0.77" style="stop-color:#E42328"/>
	<stop  offset="1" style="stop-color:#E82328"/>
</linearGradient>
<circle class="st1" cx="75.3" cy="77.6" r="68.5"/>
<g class="st2">
	<g>
		<g>
			<defs>
				<polygon id="SVGID_3_" points="58.1,-12.3 23.5,84 177.1,109.1 161.6,3.5 				"/>
			</defs>
			<clipPath id="SVGID_4_">
				<use xlink:href="#SVGID_3_"  style="overflow:visible;"/>
			</clipPath>
			<g class="st3">
				
					<linearGradient id="SVGID_5_" gradientUnits="userSpaceOnUse" x1="139.9476" y1="816.0339" x2="121.2876" y2="750.9739" gradientTransform="matrix(0.9991 4.344502e-02 -4.344502e-02 0.9991 -18.3301 -734.7905)">
					<stop  offset="0" style="stop-color:#F26C44"/>
					<stop  offset="0.37" style="stop-color:#DD503A"/>
					<stop  offset="0.76" style="stop-color:#CC3732"/>
					<stop  offset="1" style="stop-color:#C52E2F"/>
				</linearGradient>
				<path class="st4" d="M95.6,84.6c16.6,0.7,32.1-1.1,45.1-4.8c1.2-37.2-27.4-68.6-64.3-70.2c-23.6-1-46.1,10.6-59,30.4
					c-0.1,0.6-0.1,1.2-0.2,1.7C16.3,63.5,51.4,82.7,95.6,84.6z"/>
			</g>
		</g>
	</g>
</g>
<path class="st5" d="M118,64.8c0.5-1.8,0.7-3.7,0.6-5.6c-1.2-8.8-9.8-11.3-11.4-11.3c-1.8-0.2-3.7,0.1-5.3,1c-2.2,1-9.5,5.8-16.6,13
	c-1.9,1.9-8.6,8.6-13.4,14.3c3-8.4,5.2-17,6.7-25.8c0.1-0.3,0-0.6-0.1-0.8c-0.7-0.8-3.3-4-9.4-4.7c-3.5-0.5-7,0.4-9.8,2.7
	c-0.4,0.3-0.6,0.7-0.7,1.1C57,58.3,55,67.9,52.3,77.5c-5.6,20.1-7,22.4-10.1,29.8c-0.2,0.4-0.2,0.9,0,1.3c0.5,1,0.8,3.4,5.9,5.5
	c2.5,0.9,5,1.3,7.6,1.2c0.3,0,0.7-0.1,1-0.3c5.4-3.3,10.5-7.2,15-11.6C80.4,95.1,89.6,84,97,74.7l-0.9,4.1
	c-1.3,5.3-2.1,10.7-2.2,16.1c0,0.2,0,0.5,0,0.7c0.2,4.6,1.1,9.1,2.8,13.4c1.1,2.9,2.7,5.7,4.5,8.2c0.3,0.4,0.7,0.6,1.1,0.7
	c5.9,1,11.9-1.4,15.4-6.3c0.3-0.4-0.6-2.1-1.1-2.8s-4-6.4-4.1-11.8c0.1-4.4,0.7-8.9,1.8-13.2C115.2,79.2,117.5,67.3,118,64.8z"/>
<g>
	<path class="st6" d="M23.7,119.5c8.3,10.2,29.9,24.7,51.6,24.7c20,0,39-9.1,51.6-24.7C95.9,141.4,54.6,141.4,23.7,119.5z"/>
</g>
<g>
	<g>
		<defs>
			<ellipse id="SVGID_6_" cx="75.7" cy="78.6" rx="71.3" ry="71.5"/>
		</defs>
		<clipPath id="SVGID_7_">
			<use xlink:href="#SVGID_6_"  style="overflow:visible;"/>
		</clipPath>
		<g class="st7">
			<path class="st5" d="M40.5,66.2C46.1,43.6,53,13.5,52.9,9l-0.5,0.2c-0.3,0.2-0.6,0.3-0.9,0.3C45,11.8,39,15,33.5,19.1
				C29.6,36.9,29.1,41,23.4,61.4C17.5,82.3,15.3,87.3,9,106.3c2.9,6.8,6.8,13.1,11.5,18.8C24.5,116.7,34.9,88.8,40.5,66.2z"/>
		</g>
	</g>
</g>
<g>
	<path class="st6" d="M23.2,119.5c8.3,10.2,29.9,24.7,51.6,24.7c20,0,39-9.1,51.6-24.7C95.4,141.4,54.1,141.4,23.2,119.5z"/>
</g>
<path class="st5" d="M40.8,65.9c5.6-22.7,12.5-51,12.4-55.5C53,10.5,44.7,12.1,33,21.1c-3.9,17.9-3.6,19.6-9.4,40.1
	c-5.9,21-7.8,24.9-14.2,44c2.7,7.1,6.6,13.7,11.6,19.4C25,116,35.1,88.6,40.8,65.9z"/>
</svg>
