<?xml version="1.0" encoding="utf-8"?>
<!-- Generator: Adobe Illustrator 21.1.0, SVG Export Plug-In . SVG Version: 6.00 Build 0)  -->
<svg version="1.1" id="Layer_1" xmlns="http://www.w3.org/2000/svg" xmlns:xlink="http://www.w3.org/1999/xlink" x="0px" y="0px"
	 viewBox="0 0 203.4 64.6" style="enable-background:new 0 0 203.4 64.6;" xml:space="preserve">
<style type="text/css">
	.st0{fill:#008EE5;}
	.st1{fill:none;stroke:#595959;stroke-miterlimit:10;}
	.st2{fill:#6D6D6D;}
	.st3{enable-background:new    ;}
</style>
<title>logo</title>
<path class="st0" d="M13.3,17.2c2.4-0.2,4.9,0.3,7.1,1.3c1.8,0.9,3.4,2.2,4.5,3.9c0.6,0.9,1,1.9,1.3,2.9c0.1,0.2,0.1,0.4,0.2,0.7
	c0.1,0.2,0.1,0.5,0,0.7c-0.1,0.3-0.4,0.6-0.7,0.7c-0.4,0.1-0.8,0.1-1.3,0.1h-3.8c-0.3,0-0.6-0.1-0.8-0.2c-0.3-0.1-0.5-0.4-0.6-0.6
	c-0.1-0.3-0.3-0.6-0.4-0.9c-0.2-0.4-0.4-0.7-0.7-1c-0.2-0.3-0.5-0.6-0.8-0.8c-0.5-0.3-1.1-0.6-1.6-0.7c-0.2-0.1-0.4-0.1-0.6-0.1
	c-0.2,0-0.4,0-0.6-0.1h-0.5c-0.6,0-1.1,0.1-1.7,0.2c-0.9,0.3-1.8,0.8-2.5,1.4c-0.6,0.7-1.2,1.5-1.5,2.3C8.1,27.2,8,27.6,7.9,28
	c-0.1,0.4-0.2,0.9-0.3,1.4c0,0.1-0.1,0.3-0.1,0.4s0,0.3-0.1,0.4c-0.1,0.5-0.1,1-0.1,1.4c0,0.5,0.1,1,0.1,1.5c0,0.2,0,0.4,0.1,0.6
	c0.1,0.2,0.1,0.5,0.1,0.7c0,0.2,0.1,0.5,0.1,0.7c0.3,0.8,0.6,1.5,1,2.2c0.4,0.7,0.9,1.2,1.5,1.7c0.2,0.1,0.4,0.3,0.6,0.4
	c0.4,0.2,0.8,0.4,1.2,0.5c0.4,0.1,0.9,0.1,1.5,0.2h0.3c0.1,0,0.2,0,0.3,0h0.5l0.7-0.2c0.2,0,0.5-0.1,0.6-0.2c1-0.4,1.8-1.1,2.4-2
	c0.1-0.2,0.3-0.4,0.4-0.6c0.1-0.2,0.2-0.4,0.3-0.6l0.4-1c0.1-0.3,0.4-0.6,0.7-0.7c0.5-0.2,1-0.2,1.5-0.2h1.7h0.8
	c0.2,0,0.4,0,0.7,0.1h0.4l0.4,0.1c0.1,0,0.2,0.1,0.3,0.1c0.2,0.2,0.3,0.4,0.3,0.6c0.1,0.3,0.1,0.5,0,0.8c-0.3,1.1-0.7,2.1-1.1,3.1
	c-1.5,2.7-3.9,4.7-6.9,5.6c-0.4,0.1-0.7,0.2-1.1,0.2c-0.4,0.1-0.8,0.1-1.1,0.2c-0.2,0-0.4,0.1-0.6,0c-0.2,0-0.4,0-0.6,0h-0.6
	c-0.3,0.1-0.5,0.1-0.8,0.1c-0.3,0-0.5,0-0.8-0.1c-0.2-0.1-0.5-0.1-0.8-0.1c-0.2,0-0.5,0-0.7-0.1l-0.5-0.1l-0.5-0.1L9.1,45
	c-0.3-0.1-0.7-0.2-1-0.4c-1.5-0.6-2.9-1.5-4.1-2.7c-1.2-1.2-2.1-2.6-2.7-4.2c-0.2-0.3-0.3-0.7-0.4-1c-0.1-0.4-0.2-0.7-0.3-1.1
	c0-0.1-0.1-0.3-0.1-0.5c0-0.2,0-0.3-0.1-0.5c-0.1-0.2-0.1-0.5-0.1-0.8c0-0.3,0-0.5-0.1-0.8v-0.9c-0.1-0.4-0.1-0.8,0-1.1
	c0-0.2,0-0.3,0-0.5c0-0.1,0-0.3,0-0.4c0.1-0.2,0.1-0.5,0.1-0.7c0-0.2,0-0.4,0.1-0.6c0.2-0.6,0.3-1.2,0.4-1.8
	c0.1-0.6,0.3-1.1,0.5-1.7c0.7-1.7,1.7-3.2,2.9-4.5c1.3-1.3,2.8-2.2,4.5-2.9c0.5-0.2,1-0.4,1.5-0.5c0.5-0.1,1.1-0.2,1.6-0.3
	c0.3,0,0.5,0,0.8,0C12.7,17.3,13,17.3,13.3,17.2z"/>
<path class="st0" d="M55.2,42.9c0.1,0.4,0.1,0.8,0.1,1.2c0,0.4-0.2,0.7-0.5,0.8C54.5,44.9,54.3,45,54,45h-3.7h-0.9
	c-0.3,0-0.5-0.1-0.7-0.2c-0.2-0.1-0.4-0.3-0.5-0.6c-0.1-0.3-0.3-0.5-0.5-0.7c-0.1-0.1-0.2-0.1-0.3-0.2c-0.1,0-0.3,0-0.4,0
	c-0.2,0.1-0.3,0.2-0.5,0.3c-0.2,0.1-0.3,0.2-0.5,0.3c-0.2,0.1-0.4,0.2-0.6,0.3l-0.6,0.3c-0.5,0.2-0.9,0.4-1.4,0.5l-1.5,0.4
	c-0.2,0.1-0.5,0.1-0.7,0.1l-0.7,0.1h-0.3h-0.3h-0.6c-0.3,0.1-0.7,0.1-1,0h-0.5c-0.2-0.1-0.5-0.1-0.7-0.1c-0.2,0-0.4,0-0.7-0.1
	l-1-0.2c-0.3-0.1-0.6-0.1-0.9-0.3c-0.9-0.3-1.8-0.8-2.6-1.5c-0.8-0.7-1.3-1.5-1.7-2.4c-0.1-0.3-0.2-0.5-0.3-0.8
	c-0.1-0.3-0.2-0.6-0.2-0.9c-0.1-0.2-0.1-0.3-0.1-0.5c0-0.2,0-0.3,0-0.5c-0.1-0.2-0.1-0.4-0.1-0.7c0-0.2,0-0.5,0-0.7
	c0.1-0.3,0.1-0.6,0.1-0.9l0.3-1.2c0.1-0.4,0.2-0.7,0.4-1.1c0.5-0.9,1.2-1.7,2-2.3c0.9-0.6,1.9-1,3-1.3c0.5-0.2,0.9-0.3,1.4-0.4
	c0.5-0.1,1-0.2,1.5-0.3c0.3-0.1,0.6-0.1,0.9-0.1c0.3,0,0.6-0.1,0.9-0.1c0.2-0.1,0.5-0.1,0.7-0.1c0.3,0,0.5,0,0.8-0.1
	c0.2-0.1,0.5-0.1,0.7-0.1c0.3,0,0.5,0,0.8-0.1c0.7-0.2,1.4-0.3,2-0.5c0.6-0.1,1.2-0.5,1.7-0.9c0.3-0.3,0.5-0.6,0.6-1
	c0-0.1,0-0.2,0-0.3c0-0.1,0-0.1,0-0.2c0-0.1,0.1-0.2,0-0.3v-0.3c0-0.1-0.1-0.3-0.1-0.4c0-0.1,0-0.2-0.1-0.4c-0.3-1-1.2-1.8-2.2-2.1
	c-0.4-0.1-0.7-0.2-1.1-0.2c-0.4-0.1-0.8-0.1-1.2-0.1c-0.4,0-0.9,0.1-1.3,0.1c-0.4,0.1-0.7,0.1-1.1,0.3c-0.2,0.1-0.4,0.2-0.6,0.3
	c-0.2,0.1-0.4,0.3-0.5,0.4c-0.2,0.2-0.4,0.4-0.5,0.6c-0.2,0.2-0.3,0.4-0.4,0.7c-0.2,0.3-0.3,0.7-0.5,1c-0.1,0.3-0.4,0.6-0.8,0.6
	c-0.3,0.1-0.6,0.1-0.9,0.1h-2.9h-0.5c-0.2,0-0.3,0-0.5,0h-0.5c-0.1,0-0.1-0.1-0.2-0.1c-0.1,0-0.2,0-0.3-0.1
	c-0.3-0.1-0.5-0.4-0.6-0.7c0-0.2,0-0.3,0-0.5c0-0.2,0.1-0.3,0.1-0.5c0.1-0.4,0.2-0.7,0.3-1.1c0.1-0.3,0.3-0.6,0.5-0.9l0.3-0.5
	l0.3-0.5c0.3-0.4,0.6-0.8,1-1.1c0.1-0.1,0.2-0.2,0.3-0.3l0.5-0.4c0.2-0.1,0.3-0.2,0.5-0.3c0.6-0.4,1.2-0.7,1.9-0.9
	c0.7-0.2,1.3-0.4,2-0.6c0.4-0.1,0.9-0.2,1.3-0.2c0.5,0,0.9-0.1,1.4-0.2c0.2,0,0.4,0,0.7,0c0.3,0,0.5,0,0.5,0c1.4,0,2.7,0,4.1,0.2
	c1.2,0.1,2.4,0.4,3.6,0.8c1,0.4,1.9,0.9,2.8,1.5c0.8,0.7,1.5,1.5,1.9,2.5c0.3,0.6,0.4,1.3,0.4,2c0,0.8,0,1.6,0,2.4v13.7
	c0,0.6,0,1.2,0.2,1.9c0,0.1,0.1,0.2,0,0.3C55.1,42.6,55.1,42.8,55.2,42.9z M47.4,34.8c0.1-0.4,0.1-0.8,0-1.2
	c-0.1-0.2-0.1-0.4-0.1-0.6c0-0.2-0.1-0.3-0.2-0.4c-0.2-0.2-0.5-0.2-0.8-0.2l-0.4,0.1l-0.4,0.1c-0.3,0.1-0.5,0.1-0.8,0.2
	c-0.3,0-0.6,0.1-0.8,0.2c-0.2,0-0.3,0.1-0.5,0c-0.4,0.1-0.9,0.2-1.4,0.2c-0.4,0-0.9,0.1-1.3,0.3L40,33.6c-0.3,0.1-0.5,0.1-0.7,0.2
	c-0.7,0.3-1.4,0.8-1.9,1.4c-0.5,0.8-0.7,1.7-0.5,2.6c0,0.5,0.2,1,0.6,1.5c0.3,0.4,0.7,0.7,1.1,0.9c0.5,0.2,1,0.4,1.6,0.5
	c0.6,0.1,1.2,0.1,1.8,0.1c0.6,0,1.2-0.2,1.8-0.3c0.8-0.2,1.6-0.7,2.2-1.3c0.6-0.7,1-1.4,1.2-2.3c0.1-0.2,0.1-0.5,0.1-0.8
	c0-0.3,0.1-0.5,0.1-0.8L47.4,34.8z"/>
<path class="st0" d="M62.1,7.6h3.8c0.3,0,0.7,0,1,0.1c0.3,0,0.5,0.1,0.7,0.3C67.9,8.3,68,8.6,68,9c0,0.4,0,0.8,0,1.2v31.5
	c0,0.4,0,0.9,0,1.4c0,0.4,0,0.9-0.2,1.2c-0.2,0.3-0.6,0.5-0.9,0.6c-0.2,0.1-0.5,0.1-0.7,0c-0.3,0-0.5,0-0.8,0h-2.5c-0.3,0-0.7,0-1,0
	c-0.3,0-0.6-0.1-0.8-0.3c-0.2-0.2-0.3-0.5-0.3-0.8c0-0.4,0-0.7,0-1.1V11.2c0-0.5,0-1,0-1.6c-0.1-0.5,0-0.9,0.1-1.4
	C60.9,8,61,7.9,61.2,7.9l0.4-0.2h0.3L62.1,7.6z"/>
<path class="st0" d="M75.4,7.6h3.8c0.3,0,0.7,0,1,0.1c0.3,0,0.5,0.1,0.7,0.3c0.2,0.3,0.3,0.6,0.3,1c0,0.4,0,0.8,0,1.2v31.5
	c0,0.4,0,0.9,0,1.4c0,0.4,0,0.9-0.2,1.2c-0.2,0.3-0.6,0.5-0.9,0.6c-0.2,0.1-0.5,0.1-0.7,0c-0.3,0-0.5,0-0.8,0h-2.5c-0.3,0-0.7,0-1,0
	c-0.3,0-0.6-0.1-0.8-0.3c-0.2-0.2-0.3-0.5-0.3-0.8c0-0.4,0-0.7,0-1.1V11.2c0-0.5,0-1,0-1.6c-0.1-0.5,0-0.9,0.1-1.4
	c0.1-0.1,0.2-0.2,0.3-0.3l0.4-0.2h0.3L75.4,7.6z"/>
<path class="st0" d="M114.9,30.1c0.1,0.3,0.1,0.7,0.1,1.1c0,0.4,0,0.7-0.1,1.1c0,0.1,0,0.3,0,0.5c0,0.1,0,0.3,0,0.5
	c-0.1,0.3-0.1,0.5-0.1,0.8c0,0.3,0,0.5-0.1,0.8c0,0.2,0,0.5-0.1,0.7c-0.1,0.4-0.2,0.8-0.3,1.3c-0.1,0.4-0.2,0.8-0.4,1.2
	c-0.6,1.5-1.4,2.9-2.4,4.1c-1,1.2-2.3,2.1-3.7,2.7c-0.3,0.1-0.7,0.3-1,0.3l-1.1,0.3c-0.2,0.1-0.4,0.1-0.7,0.1c-0.2,0-0.4,0-0.7,0
	H104c-0.3,0.1-0.6,0.1-0.8,0.1c-0.3,0-0.6-0.1-0.8-0.1H102c-0.2,0-0.4-0.1-0.6-0.1l-0.6-0.1c-0.7-0.2-1.3-0.3-1.8-0.5
	c-0.6-0.2-1.1-0.4-1.6-0.7l-0.6-0.4c-0.2-0.1-0.4-0.3-0.6-0.5l-0.3-0.2c-0.1-0.1-0.2-0.1-0.3-0.2c-0.3-0.1-0.5,0-0.6,0.2
	c-0.2,0.3-0.3,0.6-0.3,0.9c0,0.3-0.2,0.6-0.4,0.8c-0.2,0.1-0.5,0.2-0.7,0.2c-0.3,0-0.6,0-0.9,0h-2.6h-0.8c-0.2,0-0.5,0-0.7-0.1
	c-0.5-0.1-0.8-0.5-0.8-1c-0.1-0.5-0.1-1.1-0.1-1.6V9.2c0-0.4,0.1-0.7,0.3-1c0.2-0.3,0.4-0.4,0.7-0.5c0.1,0,0.2,0,0.2,0
	c0.1,0,0.2,0,0.2,0h3.3c0.5,0,1.1,0,1.6,0.1c0.4,0,0.8,0.4,0.9,0.8c0.1,0.5,0.2,0.9,0.1,1.4c0,0.6-0.1,1.1-0.1,1.5v6.9
	c0,0.3,0,0.7,0.1,1c0,0.2,0.1,0.3,0.1,0.5c0,0.1,0.1,0.2,0.3,0.2c0.1,0.1,0.2,0.1,0.3,0.1c0.1,0,0.2,0,0.3,0
	c0.2-0.1,0.5-0.3,0.7-0.5l0.7-0.5c0.4-0.3,0.9-0.6,1.4-0.8c0.5-0.2,1.1-0.4,1.6-0.6c0.3-0.1,0.6-0.2,0.8-0.2c0.3,0,0.6-0.1,0.8-0.1
	c0.3-0.1,0.5-0.1,0.8-0.1h1.4c0.1,0,0.2,0,0.4,0c0.1,0,0.3,0,0.4,0c0.4,0.1,0.7,0.2,1.1,0.2c0.3,0.1,0.7,0.1,1,0.3
	c1.5,0.6,2.8,1.5,3.9,2.6c1.1,1.1,2,2.5,2.6,3.9c0.2,0.4,0.3,0.9,0.4,1.3c0.1,0.5,0.3,0.9,0.4,1.4c0.1,0.2,0.1,0.5,0.1,0.7
	c0,0.3,0.1,0.5,0.1,0.8c0.1,0.2,0.1,0.4,0.1,0.6c0,0.2,0,0.4,0,0.6L114.9,30.1z M107.1,35c0.1-0.4,0.2-0.9,0.3-1.3
	c0.1-0.5,0.1-1.1,0.2-1.6c0-0.5,0-1.1,0-1.6c0-0.5-0.1-0.9-0.2-1.4c-0.1-0.3-0.2-0.7-0.2-1c0-0.3-0.1-0.6-0.3-0.9
	c-0.5-1.2-1.2-2.2-2.1-3.1c-1.1-0.9-2.5-1.4-3.9-1.3h-0.4c-0.1,0-0.2,0-0.4,0L99.5,23l-0.6,0.2c-1,0.4-1.8,1.1-2.3,2
	C96,26,95.6,27,95.3,28c-0.1,0.3-0.2,0.6-0.2,0.9c0,0.3-0.1,0.6-0.1,0.9c0,0.2-0.1,0.3-0.1,0.5c0,0.1,0,0.3,0,0.4c0,0.1,0,0.3,0,0.4
	c-0.1,0.4-0.1,0.7-0.1,1.1c0,0.3,0.1,0.7,0.2,1c0.1,0.3,0.1,0.6,0.1,0.9c0,0.3,0.1,0.6,0.2,0.8c0.3,0.9,0.6,1.8,1.1,2.6
	c0.5,0.7,1.1,1.4,1.9,1.8c0.5,0.3,1.1,0.6,1.7,0.7h0.2c0.1,0,0.2,0,0.3,0c0.2,0,0.3,0.1,0.5,0.1c0.2,0,0.4,0,0.6,0l1-0.2
	c0.3-0.1,0.6-0.1,0.9-0.2c0.9-0.4,1.7-1.1,2.3-1.9C106.4,37,106.8,36,107.1,35L107.1,35z"/>
<path class="st0" d="M143.3,42.9c0.1,0.4,0.1,0.8,0.1,1.2c0,0.4-0.2,0.7-0.6,0.8c-0.2,0.1-0.5,0.2-0.7,0.2h-3.7h-0.9
	c-0.3,0-0.5-0.1-0.7-0.2c-0.2-0.1-0.4-0.3-0.6-0.6c-0.1-0.3-0.3-0.5-0.5-0.7c-0.1-0.1-0.2-0.1-0.3-0.2c-0.1,0-0.3,0-0.4,0
	c-0.2,0.1-0.3,0.2-0.5,0.3c-0.2,0.1-0.3,0.2-0.5,0.3c-0.2,0.1-0.4,0.3-0.6,0.4l-0.6,0.3c-0.5,0.2-0.9,0.4-1.4,0.5l-1.5,0.4
	c-0.2,0.1-0.5,0.1-0.7,0.1l-0.7,0.1h-0.3h-0.3h-0.6c-0.3,0.1-0.7,0.1-1,0h-0.5c-0.2-0.1-0.5-0.1-0.7-0.1c-0.2,0-0.4,0-0.7-0.1
	l-1-0.2c-0.3-0.1-0.6-0.1-0.9-0.3c-0.9-0.3-1.8-0.8-2.6-1.5c-0.8-0.7-1.3-1.5-1.7-2.4c-0.1-0.3-0.2-0.5-0.3-0.8
	c-0.1-0.3-0.2-0.6-0.2-0.9c-0.1-0.2-0.1-0.3-0.1-0.5c0-0.2,0-0.3,0-0.5c-0.1-0.2-0.1-0.4-0.1-0.7c0-0.2,0-0.5,0-0.7
	c0.1-0.3,0.1-0.6,0.1-0.9l0.3-1.2c0.1-0.4,0.2-0.7,0.4-1.1c0.5-0.9,1.2-1.7,2-2.3c0.9-0.6,1.9-1.1,3-1.4c0.5-0.2,0.9-0.3,1.4-0.4
	c0.5-0.1,1-0.2,1.5-0.3c0.3-0.1,0.6-0.1,0.9-0.1c0.3,0,0.6-0.1,0.9-0.1c0.2-0.1,0.5-0.1,0.7-0.1c0.3,0,0.5,0,0.8-0.1
	c0.2-0.1,0.5-0.1,0.7-0.1c0.3,0,0.5,0,0.8-0.1c0.7-0.2,1.4-0.3,2-0.5c0.6-0.1,1.2-0.5,1.6-0.9c0.3-0.3,0.5-0.6,0.6-1
	c0-0.1,0-0.2,0-0.3c0-0.1,0-0.1,0-0.2c0-0.1,0.1-0.2,0.1-0.3v-0.3c0-0.1-0.1-0.3-0.1-0.4c0-0.1,0-0.2-0.1-0.4
	c-0.3-1-1.2-1.8-2.2-2.1c-0.4-0.1-0.7-0.2-1.1-0.2c-0.4-0.1-0.9-0.1-1.3,0c-0.4,0-0.9,0.1-1.3,0.1c-0.4,0.1-0.7,0.1-1.1,0.3
	c-0.2,0.1-0.4,0.2-0.6,0.3c-0.2,0.1-0.4,0.3-0.6,0.4c-0.2,0.2-0.4,0.4-0.6,0.6c-0.2,0.2-0.3,0.4-0.4,0.7c-0.2,0.3-0.3,0.7-0.4,1
	c-0.1,0.3-0.4,0.6-0.8,0.6c-0.3,0.1-0.6,0.1-0.9,0.1h-2.9h-0.5c-0.2,0-0.3,0-0.5,0h-0.5c-0.1,0-0.2-0.1-0.3,0c-0.1,0-0.2,0-0.3-0.1
	c-0.3-0.1-0.5-0.4-0.6-0.7c0-0.2,0-0.3,0-0.5c0-0.2,0.1-0.3,0.1-0.5c0.1-0.4,0.2-0.7,0.3-1.1c0.1-0.3,0.3-0.6,0.4-0.9l0.3-0.5
	l0.3-0.5c0.3-0.4,0.6-0.8,1-1.1c0.1-0.1,0.2-0.2,0.3-0.3l0.5-0.4c0.2-0.1,0.3-0.2,0.5-0.3c0.6-0.4,1.2-0.7,1.9-0.9
	c0.7-0.2,1.3-0.4,2-0.6c0.4-0.1,0.9-0.2,1.3-0.2c0.5,0,0.9-0.1,1.4-0.2c0.2,0,0.4,0,0.6,0c0.3,0,0.5,0,0.6,0c1.4,0,2.7,0,4.1,0.2
	c1.2,0.1,2.4,0.4,3.6,0.8c1,0.4,1.9,0.9,2.8,1.5c0.8,0.7,1.4,1.5,1.8,2.5c0.3,0.6,0.4,1.3,0.4,2c0,0.8,0.1,1.6,0.1,2.4v13.7
	c0,0.6,0.1,1.3,0.2,1.9c0,0.1,0.1,0.2,0.1,0.3C143.1,42.7,143.2,42.8,143.3,42.9z M135.6,34.8c0.1-0.4,0.1-0.8,0-1.2
	c-0.1-0.2-0.1-0.4-0.1-0.6c0-0.2-0.1-0.3-0.2-0.4c-0.2-0.2-0.5-0.2-0.8-0.2l-0.4,0.1l-0.4,0.1c-0.3,0.1-0.5,0.1-0.8,0.2
	c-0.3,0-0.6,0.1-0.8,0.2c-0.2,0-0.3,0.1-0.5,0c-0.4,0.1-0.9,0.2-1.4,0.2c-0.4,0-0.9,0.1-1.3,0.3l-0.8,0.2c-0.3,0.1-0.5,0.1-0.7,0.2
	c-0.7,0.3-1.4,0.8-1.9,1.4c-0.5,0.8-0.7,1.7-0.6,2.6c0,0.5,0.2,1,0.6,1.5c0.3,0.4,0.7,0.7,1.1,0.9c0.5,0.2,1,0.4,1.6,0.5
	c0.6,0.1,1.2,0.1,1.8,0.1c0.6,0,1.2-0.2,1.8-0.3c0.8-0.2,1.6-0.7,2.2-1.3c0.6-0.7,1-1.4,1.2-2.3c0.1-0.2,0.1-0.5,0.1-0.8
	c0-0.3,0.1-0.5,0.1-0.8L135.6,34.8z"/>
<path class="st0" d="M159.6,17.2c2.4-0.1,4.9,0.3,7.1,1.3c1.8,0.9,3.4,2.2,4.5,3.9c0.6,0.9,1,1.9,1.3,2.9c0.1,0.2,0.1,0.4,0.2,0.7
	c0.1,0.2,0.1,0.5,0,0.7c-0.1,0.3-0.4,0.6-0.7,0.7c-0.4,0.1-0.8,0.1-1.3,0.1H167c-0.3,0-0.6-0.1-0.8-0.2c-0.3-0.1-0.5-0.4-0.6-0.6
	c-0.1-0.3-0.3-0.6-0.4-0.9c-0.2-0.4-0.4-0.7-0.7-1c-0.2-0.3-0.5-0.6-0.8-0.8c-0.5-0.3-1.1-0.6-1.6-0.7c-0.2-0.1-0.4-0.1-0.6-0.1
	c-0.2,0-0.4,0-0.6-0.1h-0.5c-0.6,0-1.1,0.1-1.7,0.2c-0.9,0.3-1.8,0.8-2.5,1.4c-0.6,0.7-1.2,1.5-1.5,2.3c-0.2,0.4-0.3,0.8-0.4,1.2
	c-0.1,0.4-0.2,0.9-0.3,1.4c0,0.1-0.1,0.3-0.1,0.4s0,0.3-0.1,0.4c-0.1,0.5-0.1,1-0.1,1.5c0,0.5,0,1,0.1,1.5c0,0.2,0,0.4,0.1,0.6
	c0.1,0.2,0.1,0.5,0.1,0.7c0,0.2,0.1,0.5,0.1,0.7c0.3,0.8,0.6,1.5,1,2.2c0.4,0.7,0.9,1.2,1.5,1.7c0.2,0.1,0.4,0.3,0.6,0.4
	c0.4,0.2,0.8,0.4,1.2,0.5c0.4,0.1,0.9,0.1,1.5,0.2h0.3c0.1,0,0.2,0,0.3,0h0.5l0.7-0.2c0.2,0,0.4-0.1,0.6-0.2c1-0.4,1.8-1.1,2.4-2
	c0.1-0.2,0.3-0.4,0.4-0.6c0.1-0.2,0.2-0.4,0.3-0.6l0.4-1c0.1-0.3,0.4-0.6,0.7-0.7c0.5-0.2,1-0.2,1.5-0.2h1.7h0.8
	c0.2,0,0.4,0,0.7,0.1h0.4l0.4,0.1c0.1,0,0.2,0.1,0.3,0.1c0.2,0.2,0.3,0.4,0.3,0.6c0.1,0.3,0.1,0.5,0,0.8c-0.3,1.1-0.7,2.1-1.1,3.1
	c-1.5,2.7-3.9,4.7-6.9,5.6c-0.4,0.1-0.7,0.2-1.1,0.2c-0.4,0.1-0.8,0.1-1.1,0.2c-0.2,0-0.4,0.1-0.6,0c-0.2,0-0.4,0-0.6,0h-0.6
	c-0.3,0.1-0.5,0.1-0.8,0.1c-0.3,0-0.5,0-0.8-0.1c-0.2-0.1-0.5-0.1-0.8-0.1c-0.2,0-0.5,0-0.7-0.1l-0.5-0.1l-0.5-0.1l-1.1-0.3
	c-0.3-0.1-0.7-0.2-1-0.4c-1.5-0.6-2.9-1.5-4.1-2.7c-1.2-1.2-2.1-2.6-2.7-4.1c-0.2-0.3-0.3-0.7-0.4-1c-0.1-0.4-0.2-0.7-0.3-1.1
	c0-0.1,0-0.3-0.1-0.4c0-0.2,0-0.3-0.1-0.5c-0.1-0.2-0.1-0.5-0.1-0.8c0-0.3,0-0.5-0.1-0.8v-0.9c-0.1-0.4-0.1-0.8,0-1.2
	c0-0.2,0-0.3,0-0.5c0-0.1,0-0.3,0-0.4c0.1-0.2,0.1-0.5,0.1-0.7c0-0.2,0-0.4,0.1-0.6c0.2-0.6,0.3-1.2,0.4-1.8
	c0.1-0.6,0.3-1.1,0.5-1.7c0.7-1.7,1.7-3.2,2.9-4.5c1.3-1.3,2.8-2.2,4.5-2.9c0.5-0.2,1-0.4,1.5-0.5c0.5-0.1,1.1-0.2,1.6-0.3
	c0.3,0,0.5,0,0.8,0C159.2,17.3,159.4,17.3,159.6,17.2z"/>
<path class="st0" d="M178.9,7.6h3.8c0.3,0,0.7,0,1,0.1c0.3,0,0.5,0.1,0.7,0.3c0.3,0.4,0.5,1,0.4,1.5c0,0.7,0,1.3,0,1.9v12.1
	c0,0.3,0,0.5-0.1,0.8c0,0.3,0,0.5,0.1,0.8v0.5c0.1,0.2,0.1,0.4,0.2,0.5c0.1,0.3,0.4,0.5,0.7,0.4c0,0,0,0,0.1,0
	c0.1,0,0.3-0.1,0.4-0.2c0.3-0.2,0.7-0.5,0.9-0.8c0.3-0.3,0.5-0.6,0.8-0.9l0.9-0.9c0.3-0.3,0.6-0.6,0.8-1c0.1-0.1,0.3-0.2,0.4-0.3
	l0.5-0.5l0.5-0.5l1.2-1.2c0.1-0.1,0.2-0.3,0.3-0.3c0.1-0.1,0.2-0.2,0.3-0.3c0.3-0.3,0.6-0.6,0.9-0.9c0.4-0.3,0.8-0.5,1.2-0.5
	c0.2,0,0.5-0.1,0.7,0c0.1,0,0.3,0,0.4,0c0.2,0,0.3,0,0.5,0h1.7c0.3,0,0.6,0,1,0c0.3,0,0.7,0,1,0h0.6c0.2,0.1,0.3,0.1,0.5,0.1
	c0.2,0,0.3,0.1,0.4,0.2c0.1,0.1,0.1,0.3,0,0.4c0,0.1-0.1,0.3-0.2,0.4c-0.2,0.3-0.5,0.7-0.8,0.9c-0.3,0.3-0.6,0.5-0.9,0.8l-0.7,0.7
	c-0.2,0.2-0.5,0.5-0.8,0.7c-0.2,0.1-0.3,0.3-0.4,0.5c-0.1,0.2-0.3,0.3-0.4,0.5c-0.2,0.1-0.3,0.3-0.5,0.4c-0.1,0.2-0.3,0.3-0.5,0.5
	l-2,2c-0.2,0.2-0.5,0.4-0.6,0.6c-0.2,0.2-0.4,0.5-0.6,0.7c-0.1,0.1-0.2,0.3-0.2,0.4c-0.1,0.2-0.1,0.3,0,0.5c0.1,0.3,0.2,0.7,0.4,0.9
	c0.2,0.3,0.4,0.5,0.6,0.8c0.3,0.4,0.5,0.8,0.8,1.1c0.2,0.4,0.5,0.8,0.8,1.1l5.5,8.3c0.3,0.5,0.7,1,1,1.5s0.6,1,0.9,1.5
	c0.1,0.2,0.2,0.4,0.3,0.6c0,0.2-0.1,0.4-0.2,0.6c-0.1,0.1-0.3,0.1-0.4,0.1c-0.2,0-0.3,0-0.5,0.1c-0.2,0-0.3,0-0.5,0h-0.5h-2h-2
	c-0.6,0-1.2,0-1.7-0.2c-0.4-0.2-0.8-0.6-1-1c-0.3-0.5-0.5-0.9-0.8-1.3l-1.8-2.9l-1.8-2.8c-0.3-0.5-0.6-0.9-0.8-1.4
	c-0.3-0.5-0.5-0.9-0.9-1.3c-0.1-0.2-0.2-0.3-0.4-0.4c-0.1-0.2-0.4-0.2-0.6-0.2c-0.3,0-0.5,0.1-0.7,0.3l-0.5,0.5
	c-0.3,0.2-0.6,0.5-0.8,0.7c-0.3,0.3-0.5,0.6-0.6,1c-0.1,0.3-0.1,0.6-0.1,0.9v4.2c0,0.2,0,0.5,0,0.8c0,0.3,0,0.6,0,0.9
	c0,0.3,0,0.6-0.1,0.9c0,0.2-0.1,0.4-0.2,0.6c-0.2,0.2-0.4,0.4-0.6,0.5c-0.3,0.1-0.7,0.1-1,0.2c-0.4,0-0.8,0-1.2,0h-1.1h-1.3
	c-0.4,0-0.7,0-1.1-0.1c-0.4-0.1-0.7-0.5-0.7-0.9c0-0.5-0.1-1-0.1-1.6V10.4c0-0.4,0-0.8,0-1.2c0-0.3,0-0.7,0.2-1
	c0.2-0.3,0.4-0.4,0.7-0.5h0.2L178.9,7.6z"/>
<polyline class="st1" points="177.5,56.5 201.1,56.5 201.1,50.5 "/>
<polyline class="st1" points="6.1,50.5 6.1,56.5 26.4,56.5 "/>
<polyline class="st1" points="201.1,12.5 201.1,0.5 6.1,0.5 6.1,11.5 "/>
<path class="st2" d="M30.6,60.2v-7.1H28v-1.5h6.8v1.5h-2.5v7.1H30.6z"/>
<path class="st2" d="M40.8,60.2v-8.6h6.4v1.5h-4.6V55h4.3v1.4h-4.3v2.3h4.8v1.4H40.8z"/>
<path class="st2" d="M59.1,57.1l1.7,0.5c-0.3,0.9-0.7,1.6-1.3,2.1c-0.6,0.5-1.4,0.7-2.3,0.7c-1.1,0-2.1-0.4-2.8-1.2
	c-0.7-0.8-1.1-1.8-1.1-3.2c0-1.4,0.4-2.5,1.1-3.3c0.7-0.8,1.7-1.2,2.9-1.2c1.1,0,1.9,0.3,2.6,0.9c0.4,0.4,0.7,0.9,0.9,1.6L59,54.4
	c-0.1-0.4-0.3-0.8-0.6-1.1c-0.3-0.3-0.7-0.4-1.2-0.4c-0.6,0-1.2,0.2-1.6,0.7c-0.4,0.5-0.6,1.2-0.6,2.2c0,1.1,0.2,1.9,0.6,2.3
	c0.4,0.5,0.9,0.7,1.5,0.7c0.5,0,0.9-0.1,1.2-0.4C58.7,58.2,58.9,57.7,59.1,57.1z"/>
<path class="st2" d="M67.1,60.2v-8.6h1.7V55h3.4v-3.4h1.7v8.6h-1.7v-3.8h-3.4v3.8H67.1z"/>
<path class="st2" d="M80.6,60.2v-8.6h1.7l3.5,5.7v-5.7h1.6v8.6h-1.7l-3.5-5.6v5.6H80.6z"/>
<path class="st2" d="M93.7,56c0-0.9,0.1-1.6,0.4-2.2c0.2-0.4,0.5-0.8,0.8-1.2c0.3-0.3,0.7-0.6,1.1-0.8c0.5-0.2,1.2-0.3,1.9-0.3
	c1.3,0,2.3,0.4,3,1.2c0.8,0.8,1.1,1.9,1.1,3.3c0,1.4-0.4,2.5-1.1,3.3c-0.8,0.8-1.8,1.2-3,1.2c-1.3,0-2.3-0.4-3.1-1.2
	C94,58.4,93.7,57.4,93.7,56z M95.5,55.9c0,1,0.2,1.7,0.7,2.2c0.4,0.5,1,0.8,1.7,0.8c0.7,0,1.3-0.2,1.7-0.7c0.4-0.5,0.7-1.2,0.7-2.2
	c0-1-0.2-1.7-0.6-2.2s-1-0.7-1.7-0.7c-0.7,0-1.3,0.2-1.7,0.7C95.7,54.2,95.5,54.9,95.5,55.9z"/>
<path class="st2" d="M108.2,60.2v-8.5h1.7v7.1h4.3v1.4H108.2z"/>
<path class="st2" d="M120,56c0-0.9,0.1-1.6,0.4-2.2c0.2-0.4,0.5-0.8,0.8-1.2c0.3-0.3,0.7-0.6,1.1-0.8c0.5-0.2,1.2-0.3,1.9-0.3
	c1.3,0,2.3,0.4,3,1.2c0.8,0.8,1.1,1.9,1.1,3.3c0,1.4-0.4,2.5-1.1,3.3c-0.8,0.8-1.8,1.2-3,1.2c-1.3,0-2.3-0.4-3.1-1.2
	C120.3,58.4,120,57.4,120,56z M121.8,55.9c0,1,0.2,1.7,0.7,2.2c0.4,0.5,1,0.8,1.7,0.8c0.7,0,1.3-0.2,1.7-0.7
	c0.4-0.5,0.7-1.2,0.7-2.2c0-1-0.2-1.7-0.6-2.2c-0.4-0.5-1-0.7-1.7-0.7c-0.7,0-1.3,0.2-1.7,0.7C122,54.2,121.8,54.9,121.8,55.9z"/>
<path class="st2" d="M138.5,57.1v-1.4h3.7V59c-0.4,0.4-0.9,0.7-1.6,0.9c-0.7,0.3-1.4,0.4-2.1,0.4c-0.9,0-1.7-0.2-2.4-0.6
	c-0.7-0.4-1.2-0.9-1.5-1.6c-0.3-0.7-0.5-1.5-0.5-2.3c0-0.9,0.2-1.7,0.6-2.4c0.4-0.7,0.9-1.2,1.6-1.6c0.6-0.3,1.2-0.4,2.1-0.4
	c1.1,0,1.9,0.2,2.5,0.7c0.6,0.4,1,1.1,1.2,1.9l-1.7,0.3c-0.1-0.4-0.3-0.8-0.7-1c-0.3-0.2-0.8-0.4-1.3-0.4c-0.8,0-1.4,0.2-1.8,0.7
	c-0.4,0.5-0.7,1.2-0.7,2.1c0,1,0.2,1.8,0.7,2.3c0.5,0.5,1,0.8,1.8,0.8c0.4,0,0.7-0.1,1.1-0.2c0.4-0.1,0.7-0.3,0.9-0.5v-1.1H138.5z"
	/>
<path class="st2" d="M148.6,60.2v-8.6h1.7v8.6H148.6z"/>
<path class="st2" d="M156.8,60.2v-8.6h6.4v1.5h-4.6V55h4.3v1.4h-4.3v2.3h4.8v1.4H156.8z"/>
<g class="st3">
	<path class="st2" d="M168.1,57.4l1.7-0.2c0.1,0.6,0.3,1,0.6,1.2c0.3,0.3,0.7,0.4,1.3,0.4c0.6,0,1-0.1,1.3-0.4
		c0.3-0.2,0.4-0.5,0.4-0.8c0-0.2-0.1-0.4-0.2-0.5c-0.1-0.1-0.3-0.3-0.6-0.4c-0.2-0.1-0.7-0.2-1.4-0.4c-0.9-0.2-1.6-0.5-2-0.9
		c-0.5-0.5-0.8-1.1-0.8-1.7c0-0.4,0.1-0.8,0.4-1.2c0.2-0.4,0.6-0.7,1.1-0.9c0.5-0.2,1-0.3,1.7-0.3c1.1,0,1.9,0.2,2.4,0.7
		c0.5,0.5,0.8,1.1,0.9,1.9l-1.7,0.1c-0.1-0.4-0.2-0.8-0.5-1c-0.2-0.2-0.6-0.3-1.1-0.3c-0.5,0-0.9,0.1-1.2,0.3
		c-0.2,0.1-0.3,0.3-0.3,0.5c0,0.2,0.1,0.4,0.3,0.5c0.2,0.2,0.8,0.4,1.6,0.6c0.8,0.2,1.5,0.4,1.9,0.6c0.4,0.2,0.7,0.5,1,0.9
		c0.2,0.4,0.3,0.8,0.3,1.4c0,0.5-0.1,1-0.4,1.4c-0.3,0.4-0.7,0.7-1.2,1c-0.5,0.2-1.1,0.3-1.9,0.3c-1.1,0-1.9-0.3-2.5-0.8
		S168.2,58.4,168.1,57.4z"/>
</g>
</svg>
