<svg width="75" height="32" viewBox="0 0 75 32" fill="none" xmlns="http://www.w3.org/2000/svg">
<rect x="46" y="2" width="29" height="21" fill="#DA020F"/>
<path d="M7.93731 13.2963L12.4267 20H9.21133L6.11729 14.9646L3.02326 20H0L4.40849 13.1345L0.283114 6.69363H3.39737L6.25885 11.4863L9.06977 6.69363H12.1132L7.93731 13.2963ZM26.6878 13.7007C26.6878 13.276 26.6878 12.939 26.6878 12.6896C26.6945 12.4334 26.7417 11.3987 26.8294 9.58544H26.7485L23.3107 20H20.7323L17.527 9.56522H17.4461C17.5607 11.756 17.618 13.1716 17.618 13.8119V20H15.1003V6.69363H18.9325L22.0872 16.8655H22.1377L25.4745 6.69363H29.3167V20H26.6878V13.7007ZM41.8888 20H33.6785V6.69363H36.4995V17.6744H41.8888V20Z" fill="black"/>
<path d="M59.585 6.69363H62.406V15.3084C62.4195 16.7846 61.9241 17.971 60.9197 18.8675C59.9153 19.7641 58.5705 20.2022 56.8853 20.182C55.1664 20.182 53.8351 19.7438 52.8914 18.8675C51.9544 17.9845 51.4859 16.7846 51.4859 15.2679V6.69363H54.2968V14.8433C54.2968 15.8814 54.5024 16.6363 54.9136 17.1082C55.3315 17.58 56.0056 17.816 56.9358 17.816C57.8728 17.816 58.5469 17.5767 58.9581 17.0981C59.376 16.6195 59.585 15.8611 59.585 14.8231V6.69363ZM69.48 20H66.6589V6.69363H69.48V20Z" fill="white"/>
</svg>
