<svg width="16" height="16" viewBox="0 0 16 16" fill="none" xmlns="http://www.w3.org/2000/svg">
<path d="M2 12.6667C2 12.313 2.14058 11.974 2.39062 11.724C2.64067 11.4739 2.97971 11.3333 3.33333 11.3333C3.68695 11.3333 4.02599 11.4739 4.27604 11.724C4.52609 11.974 4.66667 12.313 4.66667 12.6667C4.66667 13.0203 4.52609 13.3593 4.27604 13.6094C4.02599 13.8594 3.68695 14 3.33333 14C2.97971 14 2.64067 13.8594 2.39062 13.6094C2.14058 13.3593 2 13.0203 2 12.6667ZM8 13.3333C8 11.9188 7.43834 10.562 6.43815 9.56185C5.43796 8.56166 4.08115 8 2.66667 8C2.29848 8 2 7.70152 2 7.33333C2 6.96514 2.29848 6.66667 2.66667 6.66667C4.43478 6.66667 6.13062 7.3689 7.38086 8.61914C8.6311 9.86938 9.33333 11.5652 9.33333 13.3333C9.33333 13.7015 9.03486 14 8.66667 14C8.29848 14 8 13.7015 8 13.3333ZM12.6667 13.3333C12.6667 10.6812 11.613 8.13773 9.73763 6.26237C7.86227 4.38701 5.31883 3.33333 2.66667 3.33333C2.29848 3.33333 2 3.03486 2 2.66667C2 2.29848 2.29848 2 2.66667 2C5.67245 2 8.55493 3.19425 10.6803 5.31966C12.8058 7.44507 14 10.3275 14 13.3333C14 13.7015 13.7015 14 13.3333 14C12.9651 14 12.6667 13.7015 12.6667 13.3333Z" fill="currentColor"/>
</svg>
