<svg width="608" height="587" viewBox="0 0 608 587" fill="none" xmlns="http://www.w3.org/2000/svg">
    <g clip-path="url(#clip0_6450_61727)">
        <rect width="608" height="587" fill="#E4E4E4" fill-opacity="0.8"/>
        <g filter="url(#filter0_dd_6450_61727)">
            <rect x="52" y="157" width="504" height="272" rx="8" fill="white" shape-rendering="crispEdges"/>
            <path d="M77.084 204.443V202.051C77.2988 202.246 77.5527 202.422 77.8457 202.578C78.1452 202.734 78.4609 202.868 78.793 202.979C79.125 203.083 79.457 203.164 79.7891 203.223C80.1211 203.281 80.4271 203.311 80.707 203.311C81.6836 203.311 82.4095 203.148 82.8848 202.822C83.3665 202.497 83.6074 202.025 83.6074 201.406C83.6074 201.074 83.526 200.788 83.3633 200.547C83.207 200.299 82.9857 200.075 82.6992 199.873C82.4128 199.671 82.0742 199.479 81.6836 199.297C81.2995 199.108 80.8861 198.913 80.4434 198.711C79.9681 198.457 79.5254 198.2 79.1152 197.939C78.7051 197.679 78.347 197.393 78.041 197.08C77.7415 196.761 77.5039 196.403 77.3281 196.006C77.1589 195.609 77.0742 195.143 77.0742 194.609C77.0742 193.952 77.2207 193.382 77.5137 192.9C77.8132 192.412 78.2038 192.012 78.6855 191.699C79.1738 191.38 79.7272 191.146 80.3457 190.996C80.9642 190.84 81.5957 190.762 82.2402 190.762C83.7051 190.762 84.7728 190.928 85.4434 191.26V193.555C84.6491 192.982 83.627 192.695 82.377 192.695C82.0319 192.695 81.6868 192.728 81.3418 192.793C81.0033 192.858 80.6973 192.965 80.4238 193.115C80.1569 193.265 79.9388 193.457 79.7695 193.691C79.6003 193.926 79.5156 194.209 79.5156 194.541C79.5156 194.854 79.5807 195.124 79.7109 195.352C79.8411 195.579 80.0299 195.788 80.2773 195.977C80.5312 196.165 80.8372 196.351 81.1953 196.533C81.5599 196.709 81.9798 196.901 82.4551 197.109C82.9434 197.363 83.4023 197.63 83.832 197.91C84.2682 198.19 84.6491 198.499 84.9746 198.838C85.3066 199.176 85.5671 199.554 85.7559 199.971C85.9512 200.381 86.0488 200.85 86.0488 201.377C86.0488 202.087 85.9056 202.686 85.6191 203.174C85.3327 203.662 84.9453 204.059 84.457 204.365C83.9753 204.671 83.4186 204.893 82.7871 205.029C82.1556 205.166 81.4883 205.234 80.7852 205.234C80.5508 205.234 80.2611 205.215 79.916 205.176C79.5775 205.143 79.2292 205.091 78.8711 205.02C78.513 204.954 78.1745 204.873 77.8555 204.775C77.5365 204.678 77.2793 204.567 77.084 204.443ZM97.2598 205H94.9941V199.531C94.9941 197.552 94.3333 196.562 93.0117 196.562C92.3477 196.562 91.7878 196.849 91.332 197.422C90.8763 197.995 90.6484 198.727 90.6484 199.619V205H88.373V190.195H90.6484V196.66H90.6875C91.4427 195.397 92.5234 194.766 93.9297 194.766C96.1497 194.766 97.2598 196.123 97.2598 198.838V205ZM107.689 205H105.492V203.438H105.453C104.763 204.635 103.751 205.234 102.416 205.234C101.433 205.234 100.661 204.967 100.102 204.434C99.5482 203.9 99.2715 203.193 99.2715 202.314C99.2715 200.426 100.359 199.326 102.533 199.014L105.502 198.594C105.502 197.168 104.825 196.455 103.471 196.455C102.279 196.455 101.205 196.865 100.248 197.686V195.703C101.303 195.078 102.52 194.766 103.9 194.766C106.426 194.766 107.689 196.009 107.689 198.496V205ZM105.502 200.088L103.402 200.381C102.751 200.465 102.26 200.625 101.928 200.859C101.602 201.087 101.439 201.491 101.439 202.07C101.439 202.493 101.589 202.842 101.889 203.115C102.195 203.382 102.602 203.516 103.109 203.516C103.799 203.516 104.369 203.275 104.818 202.793C105.274 202.305 105.502 201.693 105.502 200.957V200.088ZM116.264 197.158C115.99 196.943 115.596 196.836 115.082 196.836C114.411 196.836 113.852 197.139 113.402 197.744C112.953 198.35 112.729 199.173 112.729 200.215V205H110.463V195H112.729V197.061H112.768C112.989 196.357 113.327 195.811 113.783 195.42C114.245 195.023 114.76 194.824 115.326 194.824C115.736 194.824 116.049 194.886 116.264 195.01V197.158ZM126.332 200.615H119.516C119.542 201.54 119.825 202.253 120.365 202.754C120.912 203.255 121.661 203.506 122.611 203.506C123.679 203.506 124.659 203.187 125.551 202.549V204.375C124.639 204.948 123.435 205.234 121.938 205.234C120.466 205.234 119.311 204.782 118.471 203.877C117.637 202.965 117.221 201.686 117.221 200.039C117.221 198.483 117.68 197.217 118.598 196.24C119.522 195.257 120.668 194.766 122.035 194.766C123.402 194.766 124.46 195.205 125.209 196.084C125.958 196.963 126.332 198.184 126.332 199.746V200.615ZM124.145 199.014C124.138 198.2 123.946 197.568 123.568 197.119C123.191 196.663 122.67 196.436 122.006 196.436C121.355 196.436 120.801 196.673 120.346 197.148C119.896 197.624 119.62 198.245 119.516 199.014H124.145ZM136.596 190.723L135.531 195.068H133.51L135.102 190.723H136.596ZM142.992 190.996V192.871H141.713V203.125H142.992V205H138.109V203.125H139.389V192.871H138.109V190.996H142.992ZM145.17 205V190.996H149.613C150.967 190.996 152.038 191.292 152.826 191.885C153.62 192.477 154.018 193.249 154.018 194.199C154.018 194.993 153.793 195.684 153.344 196.27C152.895 196.855 152.273 197.272 151.479 197.52V197.559C152.442 197.669 153.21 198.027 153.783 198.633C154.363 199.232 154.652 200.013 154.652 200.977C154.652 202.174 154.18 203.145 153.236 203.887C152.292 204.629 151.101 205 149.662 205H145.17ZM147.484 192.861V196.846H148.988C149.796 196.846 150.427 196.657 150.883 196.279C151.345 195.895 151.576 195.355 151.576 194.658C151.576 193.46 150.775 192.861 149.174 192.861H147.484ZM147.484 198.711V203.145H149.467C150.333 203.145 151 202.946 151.469 202.549C151.944 202.145 152.182 201.592 152.182 200.889C152.182 199.437 151.176 198.711 149.164 198.711H147.484ZM172.299 205H169.994V195.938C169.994 195.195 170.04 194.287 170.131 193.213H170.092C169.949 193.825 169.822 194.264 169.711 194.531L165.531 205H163.93L159.74 194.609C159.623 194.303 159.499 193.838 159.369 193.213H159.33C159.382 193.773 159.408 194.688 159.408 195.957V205H157.26V190.996H160.531L164.213 200.322C164.493 201.038 164.675 201.572 164.76 201.924H164.809C165.049 201.188 165.245 200.641 165.395 200.283L169.145 190.996H172.299V205ZM183.285 205H181.01V190.195H183.285V205ZM187.387 192.9C187.016 192.9 186.697 192.78 186.43 192.539C186.169 192.298 186.039 191.992 186.039 191.621C186.039 191.25 186.169 190.941 186.43 190.693C186.697 190.446 187.016 190.322 187.387 190.322C187.771 190.322 188.096 190.446 188.363 190.693C188.63 190.941 188.764 191.25 188.764 191.621C188.764 191.973 188.63 192.275 188.363 192.529C188.096 192.777 187.771 192.9 187.387 192.9ZM188.51 205H186.244V195H188.51V205ZM206.43 205H204.164V199.551C204.164 198.503 204.014 197.744 203.715 197.275C203.422 196.807 202.924 196.572 202.221 196.572C201.628 196.572 201.124 196.868 200.707 197.461C200.297 198.053 200.092 198.763 200.092 199.59V205H197.816V199.365C197.816 197.503 197.159 196.572 195.844 196.572C195.232 196.572 194.727 196.852 194.33 197.412C193.939 197.972 193.744 198.698 193.744 199.59V205H191.479V195H193.744V196.582H193.783C194.506 195.371 195.557 194.766 196.938 194.766C197.628 194.766 198.23 194.958 198.744 195.342C199.265 195.719 199.62 196.217 199.809 196.836C200.551 195.456 201.658 194.766 203.129 194.766C205.329 194.766 206.43 196.123 206.43 198.838V205ZM210.336 192.9C209.965 192.9 209.646 192.78 209.379 192.539C209.118 192.298 208.988 191.992 208.988 191.621C208.988 191.25 209.118 190.941 209.379 190.693C209.646 190.446 209.965 190.322 210.336 190.322C210.72 190.322 211.046 190.446 211.312 190.693C211.579 190.941 211.713 191.25 211.713 191.621C211.713 191.973 211.579 192.275 211.312 192.529C211.046 192.777 210.72 192.9 210.336 192.9ZM211.459 205H209.193V195H211.459V205ZM219.701 204.893C219.258 205.114 218.676 205.225 217.953 205.225C216.013 205.225 215.043 204.294 215.043 202.432V196.777H213.373V195H215.043V192.686L217.309 192.041V195H219.701V196.777H217.309V201.777C217.309 202.37 217.416 202.793 217.631 203.047C217.846 203.301 218.204 203.428 218.705 203.428C219.089 203.428 219.421 203.317 219.701 203.096V204.893ZM230.121 200.615H223.305C223.331 201.54 223.614 202.253 224.154 202.754C224.701 203.255 225.45 203.506 226.4 203.506C227.468 203.506 228.448 203.187 229.34 202.549V204.375C228.428 204.948 227.224 205.234 225.727 205.234C224.255 205.234 223.1 204.782 222.26 203.877C221.426 202.965 221.01 201.686 221.01 200.039C221.01 198.483 221.469 197.217 222.387 196.24C223.311 195.257 224.457 194.766 225.824 194.766C227.191 194.766 228.249 195.205 228.998 196.084C229.747 196.963 230.121 198.184 230.121 199.746V200.615ZM227.934 199.014C227.927 198.2 227.735 197.568 227.357 197.119C226.98 196.663 226.459 196.436 225.795 196.436C225.144 196.436 224.59 196.673 224.135 197.148C223.686 197.624 223.409 198.245 223.305 199.014H227.934ZM241.371 205H239.105V203.301H239.066C238.337 204.59 237.214 205.234 235.697 205.234C234.467 205.234 233.48 204.788 232.738 203.896C232.003 202.998 231.635 201.777 231.635 200.234C231.635 198.581 232.042 197.256 232.855 196.26C233.676 195.264 234.766 194.766 236.127 194.766C237.475 194.766 238.454 195.306 239.066 196.387H239.105V190.195H241.371V205ZM239.135 200.43V199.121C239.135 198.411 238.904 197.809 238.441 197.314C237.979 196.82 237.39 196.572 236.674 196.572C235.827 196.572 235.16 196.888 234.672 197.52C234.19 198.151 233.949 199.027 233.949 200.146C233.949 201.162 234.18 201.966 234.643 202.559C235.111 203.145 235.74 203.438 236.527 203.438C237.302 203.438 237.93 203.154 238.412 202.588C238.894 202.015 239.135 201.296 239.135 200.43ZM247.025 190.723L245.434 195.068H243.939L245.043 190.723H247.025Z" fill="black"/>
            <path d="M514.089 191.216L514.146 191.146C514.32 190.973 514.589 190.954 514.784 191.089L514.854 191.146L520 196.293L525.146 191.146C525.32 190.973 525.589 190.954 525.784 191.089L525.854 191.146C526.027 191.32 526.046 191.589 525.911 191.784L525.854 191.854L520.707 197L525.854 202.146C526.027 202.32 526.046 202.589 525.911 202.784L525.854 202.854C525.68 203.027 525.411 203.046 525.216 202.911L525.146 202.854L520 197.707L514.854 202.854C514.68 203.027 514.411 203.046 514.216 202.911L514.146 202.854C513.973 202.68 513.954 202.411 514.089 202.216L514.146 202.146L519.293 197L514.146 191.854C513.973 191.68 513.954 191.411 514.089 191.216L514.146 191.146L514.089 191.216Z" fill="#424242"/>
            <g clip-path="url(#clip1_6450_61727)">
                <rect x="76.5" y="221.5" width="455" height="43" rx="3.5" fill="white"/>
                <rect x="76.5" y="221.5" width="455" height="43" rx="3.5" stroke="#D1D1D1"/>
                <path d="M88.8271 247.604V246.25C88.9821 246.387 89.1667 246.51 89.3809 246.619C89.5996 246.729 89.8275 246.822 90.0645 246.899C90.306 246.972 90.5475 247.029 90.7891 247.07C91.0306 247.111 91.2539 247.132 91.459 247.132C92.1654 247.132 92.6917 247.002 93.0381 246.742C93.389 246.478 93.5645 246.1 93.5645 245.607C93.5645 245.343 93.5052 245.113 93.3867 244.917C93.2728 244.721 93.1133 244.543 92.9082 244.384C92.7031 244.22 92.4593 244.065 92.1768 243.919C91.8988 243.769 91.598 243.611 91.2744 243.447C90.9326 243.274 90.6136 243.099 90.3174 242.921C90.0212 242.743 89.7637 242.547 89.5449 242.333C89.3262 242.119 89.153 241.877 89.0254 241.608C88.9023 241.335 88.8408 241.016 88.8408 240.651C88.8408 240.205 88.9388 239.817 89.1348 239.489C89.3307 239.157 89.5882 238.883 89.9072 238.669C90.2262 238.455 90.5885 238.295 90.9941 238.19C91.4043 238.086 91.8213 238.033 92.2451 238.033C93.2113 238.033 93.9154 238.149 94.3574 238.382V239.674C93.7786 239.273 93.0358 239.072 92.1289 239.072C91.8783 239.072 91.6276 239.1 91.377 239.154C91.1263 239.204 90.903 239.289 90.707 239.407C90.5111 239.526 90.3516 239.678 90.2285 239.865C90.1055 240.052 90.0439 240.28 90.0439 240.549C90.0439 240.799 90.0895 241.016 90.1807 241.198C90.2764 241.381 90.4154 241.547 90.5977 241.697C90.7799 241.848 91.001 241.993 91.2607 242.135C91.5251 242.276 91.8281 242.431 92.1699 242.6C92.5208 242.773 92.8535 242.955 93.168 243.146C93.4824 243.338 93.7581 243.55 93.9951 243.782C94.2321 244.015 94.4189 244.272 94.5557 244.555C94.6969 244.837 94.7676 245.161 94.7676 245.525C94.7676 246.008 94.6719 246.419 94.4805 246.756C94.2936 247.089 94.0384 247.36 93.7148 247.569C93.3958 247.779 93.0267 247.929 92.6074 248.021C92.1882 248.116 91.7461 248.164 91.2812 248.164C91.1263 248.164 90.9349 248.15 90.707 248.123C90.4792 248.1 90.2467 248.064 90.0098 248.014C89.7728 247.968 89.5472 247.911 89.333 247.843C89.1234 247.77 88.9548 247.69 88.8271 247.604ZM99.3682 247.932C99.1038 248.077 98.7552 248.15 98.3223 248.15C97.0964 248.15 96.4834 247.467 96.4834 246.1V241.957H95.2803V241H96.4834V239.291L97.6045 238.929V241H99.3682V241.957H97.6045V245.901C97.6045 246.371 97.6842 246.706 97.8438 246.906C98.0033 247.107 98.2676 247.207 98.6367 247.207C98.9193 247.207 99.1631 247.13 99.3682 246.975V247.932ZM105.876 248H104.755V246.906H104.728C104.24 247.745 103.522 248.164 102.574 248.164C101.877 248.164 101.33 247.979 100.934 247.61C100.542 247.241 100.346 246.751 100.346 246.141C100.346 244.833 101.116 244.072 102.656 243.857L104.755 243.563C104.755 242.374 104.274 241.779 103.312 241.779C102.469 241.779 101.708 242.066 101.029 242.641V241.492C101.717 241.055 102.51 240.836 103.408 240.836C105.053 240.836 105.876 241.706 105.876 243.447V248ZM104.755 244.459L103.066 244.691C102.547 244.764 102.155 244.894 101.891 245.081C101.626 245.263 101.494 245.589 101.494 246.059C101.494 246.4 101.615 246.681 101.856 246.899C102.103 247.114 102.428 247.221 102.834 247.221C103.39 247.221 103.848 247.027 104.208 246.64C104.573 246.248 104.755 245.753 104.755 245.156V244.459ZM111.639 242.135C111.443 241.984 111.16 241.909 110.791 241.909C110.312 241.909 109.911 242.135 109.588 242.586C109.269 243.037 109.109 243.652 109.109 244.432V248H107.988V241H109.109V242.442H109.137C109.296 241.95 109.54 241.567 109.868 241.294C110.196 241.016 110.563 240.877 110.969 240.877C111.26 240.877 111.484 240.909 111.639 240.973V242.135ZM116.513 247.932C116.248 248.077 115.9 248.15 115.467 248.15C114.241 248.15 113.628 247.467 113.628 246.1V241.957H112.425V241H113.628V239.291L114.749 238.929V241H116.513V241.957H114.749V245.901C114.749 246.371 114.829 246.706 114.988 246.906C115.148 247.107 115.412 247.207 115.781 247.207C116.064 247.207 116.308 247.13 116.513 246.975V247.932ZM125.099 247.932C124.834 248.077 124.486 248.15 124.053 248.15C122.827 248.15 122.214 247.467 122.214 246.1V241.957H121.011V241H122.214V239.291L123.335 238.929V241H125.099V241.957H123.335V245.901C123.335 246.371 123.415 246.706 123.574 246.906C123.734 247.107 123.998 247.207 124.367 247.207C124.65 247.207 124.894 247.13 125.099 246.975V247.932ZM132.167 241L128.947 249.121C128.373 250.57 127.566 251.295 126.527 251.295C126.236 251.295 125.992 251.265 125.796 251.206V250.201C126.037 250.283 126.258 250.324 126.459 250.324C127.024 250.324 127.448 249.987 127.73 249.312L128.291 247.986L125.557 241H126.801L128.694 246.387C128.717 246.455 128.765 246.633 128.838 246.92H128.879C128.902 246.811 128.947 246.637 129.016 246.4L131.005 241H132.167ZM134.525 246.988H134.498V251.22H133.377V241H134.498V242.23H134.525C135.077 241.301 135.883 240.836 136.945 240.836C137.848 240.836 138.552 241.15 139.058 241.779C139.563 242.404 139.816 243.242 139.816 244.295C139.816 245.466 139.532 246.405 138.962 247.111C138.392 247.813 137.613 248.164 136.624 248.164C135.717 248.164 135.018 247.772 134.525 246.988ZM134.498 244.165V245.143C134.498 245.721 134.685 246.214 135.059 246.619C135.437 247.02 135.915 247.221 136.494 247.221C137.173 247.221 137.704 246.961 138.087 246.441C138.474 245.922 138.668 245.2 138.668 244.274C138.668 243.495 138.488 242.884 138.128 242.442C137.768 242 137.28 241.779 136.665 241.779C136.013 241.779 135.489 242.007 135.093 242.463C134.696 242.914 134.498 243.481 134.498 244.165ZM147.233 244.78H142.291C142.309 245.56 142.519 246.161 142.92 246.585C143.321 247.009 143.872 247.221 144.574 247.221C145.363 247.221 146.087 246.961 146.748 246.441V247.494C146.133 247.941 145.319 248.164 144.308 248.164C143.319 248.164 142.542 247.847 141.977 247.214C141.411 246.576 141.129 245.68 141.129 244.527C141.129 243.438 141.437 242.552 142.052 241.868C142.672 241.18 143.439 240.836 144.355 240.836C145.271 240.836 145.98 241.132 146.481 241.725C146.983 242.317 147.233 243.14 147.233 244.192V244.78ZM146.085 243.83C146.08 243.183 145.923 242.679 145.613 242.319C145.308 241.959 144.882 241.779 144.335 241.779C143.806 241.779 143.357 241.968 142.988 242.347C142.619 242.725 142.391 243.219 142.305 243.83H146.085ZM155.703 248.164C154.669 248.164 153.841 247.838 153.222 247.187C152.606 246.53 152.299 245.662 152.299 244.582C152.299 243.406 152.62 242.488 153.263 241.827C153.905 241.166 154.773 240.836 155.867 240.836C156.911 240.836 157.724 241.157 158.308 241.8C158.896 242.442 159.189 243.333 159.189 244.473C159.189 245.589 158.873 246.485 158.239 247.159C157.61 247.829 156.765 248.164 155.703 248.164ZM155.785 241.779C155.065 241.779 154.495 242.025 154.076 242.518C153.657 243.005 153.447 243.68 153.447 244.541C153.447 245.37 153.659 246.024 154.083 246.503C154.507 246.981 155.074 247.221 155.785 247.221C156.51 247.221 157.066 246.986 157.453 246.517C157.845 246.047 158.041 245.38 158.041 244.514C158.041 243.639 157.845 242.964 157.453 242.49C157.066 242.016 156.51 241.779 155.785 241.779ZM164.631 242.135C164.435 241.984 164.152 241.909 163.783 241.909C163.305 241.909 162.904 242.135 162.58 242.586C162.261 243.037 162.102 243.652 162.102 244.432V248H160.98V241H162.102V242.442H162.129C162.288 241.95 162.532 241.567 162.86 241.294C163.188 241.016 163.555 240.877 163.961 240.877C164.253 240.877 164.476 240.909 164.631 240.973V242.135ZM174.461 247.679C173.923 248.002 173.285 248.164 172.547 248.164C171.549 248.164 170.742 247.84 170.127 247.193C169.516 246.542 169.211 245.699 169.211 244.664C169.211 243.511 169.541 242.586 170.202 241.889C170.863 241.187 171.745 240.836 172.848 240.836C173.463 240.836 174.005 240.95 174.475 241.178V242.326C173.955 241.962 173.399 241.779 172.807 241.779C172.091 241.779 171.503 242.037 171.043 242.552C170.587 243.062 170.359 243.734 170.359 244.568C170.359 245.389 170.574 246.036 171.002 246.51C171.435 246.984 172.014 247.221 172.738 247.221C173.349 247.221 173.923 247.018 174.461 246.612V247.679ZM179.082 248.164C178.048 248.164 177.22 247.838 176.601 247.187C175.985 246.53 175.678 245.662 175.678 244.582C175.678 243.406 175.999 242.488 176.642 241.827C177.284 241.166 178.152 240.836 179.246 240.836C180.29 240.836 181.103 241.157 181.687 241.8C182.274 242.442 182.568 243.333 182.568 244.473C182.568 245.589 182.252 246.485 181.618 247.159C180.989 247.829 180.144 248.164 179.082 248.164ZM179.164 241.779C178.444 241.779 177.874 242.025 177.455 242.518C177.036 243.005 176.826 243.68 176.826 244.541C176.826 245.37 177.038 246.024 177.462 246.503C177.886 246.981 178.453 247.221 179.164 247.221C179.889 247.221 180.445 246.986 180.832 246.517C181.224 246.047 181.42 245.38 181.42 244.514C181.42 243.639 181.224 242.964 180.832 242.49C180.445 242.016 179.889 241.779 179.164 241.779ZM185.508 246.988H185.48V251.22H184.359V241H185.48V242.23H185.508C186.059 241.301 186.866 240.836 187.928 240.836C188.83 240.836 189.534 241.15 190.04 241.779C190.546 242.404 190.799 243.242 190.799 244.295C190.799 245.466 190.514 246.405 189.944 247.111C189.375 247.813 188.595 248.164 187.606 248.164C186.7 248.164 186 247.772 185.508 246.988ZM185.48 244.165V245.143C185.48 245.721 185.667 246.214 186.041 246.619C186.419 247.02 186.898 247.221 187.477 247.221C188.156 247.221 188.687 246.961 189.069 246.441C189.457 245.922 189.65 245.2 189.65 244.274C189.65 243.495 189.47 242.884 189.11 242.442C188.75 242 188.263 241.779 187.647 241.779C186.996 241.779 186.472 242.007 186.075 242.463C185.679 242.914 185.48 243.481 185.48 244.165ZM198.161 241L194.941 249.121C194.367 250.57 193.561 251.295 192.521 251.295C192.23 251.295 191.986 251.265 191.79 251.206V250.201C192.032 250.283 192.253 250.324 192.453 250.324C193.018 250.324 193.442 249.987 193.725 249.312L194.285 247.986L191.551 241H192.795L194.688 246.387C194.711 246.455 194.759 246.633 194.832 246.92H194.873C194.896 246.811 194.941 246.637 195.01 246.4L196.999 241H198.161ZM209.023 248H207.902V243.967C207.902 242.508 207.36 241.779 206.275 241.779C205.729 241.779 205.268 241.991 204.895 242.415C204.521 242.834 204.334 243.374 204.334 244.035V248H203.213V237.637H204.334V242.162H204.361C204.899 241.278 205.665 240.836 206.658 240.836C208.235 240.836 209.023 241.786 209.023 243.687V248ZM216.769 244.78H211.826C211.844 245.56 212.054 246.161 212.455 246.585C212.856 247.009 213.408 247.221 214.109 247.221C214.898 247.221 215.622 246.961 216.283 246.441V247.494C215.668 247.941 214.854 248.164 213.843 248.164C212.854 248.164 212.077 247.847 211.512 247.214C210.947 246.576 210.664 245.68 210.664 244.527C210.664 243.438 210.972 242.552 211.587 241.868C212.207 241.18 212.975 240.836 213.891 240.836C214.807 240.836 215.515 241.132 216.017 241.725C216.518 242.317 216.769 243.14 216.769 244.192V244.78ZM215.62 243.83C215.616 243.183 215.458 242.679 215.148 242.319C214.843 241.959 214.417 241.779 213.87 241.779C213.341 241.779 212.893 241.968 212.523 242.347C212.154 242.725 211.926 243.219 211.84 243.83H215.62ZM222.121 242.135C221.925 241.984 221.643 241.909 221.273 241.909C220.795 241.909 220.394 242.135 220.07 242.586C219.751 243.037 219.592 243.652 219.592 244.432V248H218.471V241H219.592V242.442H219.619C219.779 241.95 220.022 241.567 220.351 241.294C220.679 241.016 221.046 240.877 221.451 240.877C221.743 240.877 221.966 240.909 222.121 240.973V242.135ZM228.772 244.78H223.83C223.848 245.56 224.058 246.161 224.459 246.585C224.86 247.009 225.411 247.221 226.113 247.221C226.902 247.221 227.626 246.961 228.287 246.441V247.494C227.672 247.941 226.858 248.164 225.847 248.164C224.858 248.164 224.081 247.847 223.516 247.214C222.951 246.576 222.668 245.68 222.668 244.527C222.668 243.438 222.976 242.552 223.591 241.868C224.211 241.18 224.979 240.836 225.895 240.836C226.811 240.836 227.519 241.132 228.021 241.725C228.522 242.317 228.772 243.14 228.772 244.192V244.78ZM227.624 243.83C227.619 243.183 227.462 242.679 227.152 242.319C226.847 241.959 226.421 241.779 225.874 241.779C225.345 241.779 224.896 241.968 224.527 242.347C224.158 242.725 223.93 243.219 223.844 243.83H227.624ZM239.942 244.78H235C235.018 245.56 235.228 246.161 235.629 246.585C236.03 247.009 236.581 247.221 237.283 247.221C238.072 247.221 238.796 246.961 239.457 246.441V247.494C238.842 247.941 238.028 248.164 237.017 248.164C236.028 248.164 235.251 247.847 234.686 247.214C234.12 246.576 233.838 245.68 233.838 244.527C233.838 243.438 234.146 242.552 234.761 241.868C235.381 241.18 236.148 240.836 237.064 240.836C237.98 240.836 238.689 241.132 239.19 241.725C239.692 242.317 239.942 243.14 239.942 244.192V244.78ZM238.794 243.83C238.789 243.183 238.632 242.679 238.322 242.319C238.017 241.959 237.591 241.779 237.044 241.779C236.515 241.779 236.066 241.968 235.697 242.347C235.328 242.725 235.1 243.219 235.014 243.83H238.794ZM251.584 248H250.463V243.98C250.463 243.206 250.342 242.645 250.101 242.299C249.864 241.952 249.463 241.779 248.897 241.779C248.419 241.779 248.011 241.998 247.674 242.436C247.341 242.873 247.175 243.397 247.175 244.008V248H246.054V243.844C246.054 242.467 245.523 241.779 244.461 241.779C243.969 241.779 243.563 241.987 243.244 242.401C242.925 242.812 242.766 243.347 242.766 244.008V248H241.645V241H242.766V242.107H242.793C243.29 241.26 244.014 240.836 244.967 240.836C245.445 240.836 245.862 240.97 246.218 241.239C246.573 241.504 246.817 241.852 246.949 242.285C247.469 241.319 248.243 240.836 249.273 240.836C250.814 240.836 251.584 241.786 251.584 243.687V248ZM258.714 248H257.593V246.906H257.565C257.078 247.745 256.36 248.164 255.412 248.164C254.715 248.164 254.168 247.979 253.771 247.61C253.38 247.241 253.184 246.751 253.184 246.141C253.184 244.833 253.954 244.072 255.494 243.857L257.593 243.563C257.593 242.374 257.112 241.779 256.15 241.779C255.307 241.779 254.546 242.066 253.867 242.641V241.492C254.555 241.055 255.348 240.836 256.246 240.836C257.891 240.836 258.714 241.706 258.714 243.447V248ZM257.593 244.459L255.904 244.691C255.385 244.764 254.993 244.894 254.729 245.081C254.464 245.263 254.332 245.589 254.332 246.059C254.332 246.4 254.453 246.681 254.694 246.899C254.94 247.114 255.266 247.221 255.672 247.221C256.228 247.221 256.686 247.027 257.046 246.64C257.41 246.248 257.593 245.753 257.593 245.156V244.459ZM261.4 239.223C261.2 239.223 261.029 239.154 260.888 239.018C260.746 238.881 260.676 238.708 260.676 238.498C260.676 238.288 260.746 238.115 260.888 237.979C261.029 237.837 261.2 237.767 261.4 237.767C261.605 237.767 261.779 237.837 261.92 237.979C262.066 238.115 262.139 238.288 262.139 238.498C262.139 238.699 262.066 238.869 261.92 239.011C261.779 239.152 261.605 239.223 261.4 239.223ZM261.947 248H260.826V241H261.947V248ZM265.338 248H264.217V237.637H265.338V248ZM276.46 248H275.339V246.906H275.312C274.824 247.745 274.106 248.164 273.158 248.164C272.461 248.164 271.914 247.979 271.518 247.61C271.126 247.241 270.93 246.751 270.93 246.141C270.93 244.833 271.7 244.072 273.24 243.857L275.339 243.563C275.339 242.374 274.858 241.779 273.896 241.779C273.053 241.779 272.292 242.066 271.613 242.641V241.492C272.301 241.055 273.094 240.836 273.992 240.836C275.637 240.836 276.46 241.706 276.46 243.447V248ZM275.339 244.459L273.65 244.691C273.131 244.764 272.739 244.894 272.475 245.081C272.21 245.263 272.078 245.589 272.078 246.059C272.078 246.4 272.199 246.681 272.44 246.899C272.687 247.114 273.012 247.221 273.418 247.221C273.974 247.221 274.432 247.027 274.792 246.64C275.157 246.248 275.339 245.753 275.339 245.156V244.459ZM284.547 248H283.426V246.811H283.398C282.879 247.713 282.077 248.164 280.992 248.164C280.113 248.164 279.409 247.852 278.88 247.228C278.356 246.599 278.094 245.744 278.094 244.664C278.094 243.507 278.385 242.579 278.969 241.882C279.552 241.185 280.329 240.836 281.3 240.836C282.261 240.836 282.961 241.214 283.398 241.971H283.426V237.637H284.547V248ZM283.426 244.835V243.803C283.426 243.238 283.239 242.759 282.865 242.367C282.492 241.975 282.018 241.779 281.443 241.779C280.76 241.779 280.222 242.03 279.83 242.531C279.438 243.033 279.242 243.725 279.242 244.609C279.242 245.416 279.429 246.054 279.803 246.523C280.181 246.988 280.687 247.221 281.32 247.221C281.945 247.221 282.451 246.995 282.838 246.544C283.23 246.093 283.426 245.523 283.426 244.835ZM292.791 248H291.67V246.811H291.643C291.123 247.713 290.321 248.164 289.236 248.164C288.357 248.164 287.653 247.852 287.124 247.228C286.6 246.599 286.338 245.744 286.338 244.664C286.338 243.507 286.63 242.579 287.213 241.882C287.796 241.185 288.573 240.836 289.544 240.836C290.506 240.836 291.205 241.214 291.643 241.971H291.67V237.637H292.791V248ZM291.67 244.835V243.803C291.67 243.238 291.483 242.759 291.109 242.367C290.736 241.975 290.262 241.779 289.688 241.779C289.004 241.779 288.466 242.03 288.074 242.531C287.682 243.033 287.486 243.725 287.486 244.609C287.486 245.416 287.673 246.054 288.047 246.523C288.425 246.988 288.931 247.221 289.564 247.221C290.189 247.221 290.695 246.995 291.082 246.544C291.474 246.093 291.67 245.523 291.67 244.835ZM298.711 242.135C298.515 241.984 298.232 241.909 297.863 241.909C297.385 241.909 296.984 242.135 296.66 242.586C296.341 243.037 296.182 243.652 296.182 244.432V248H295.061V241H296.182V242.442H296.209C296.368 241.95 296.612 241.567 296.94 241.294C297.269 241.016 297.635 240.877 298.041 240.877C298.333 240.877 298.556 240.909 298.711 240.973V242.135ZM305.362 244.78H300.42C300.438 245.56 300.648 246.161 301.049 246.585C301.45 247.009 302.001 247.221 302.703 247.221C303.492 247.221 304.216 246.961 304.877 246.441V247.494C304.262 247.941 303.448 248.164 302.437 248.164C301.448 248.164 300.671 247.847 300.105 247.214C299.54 246.576 299.258 245.68 299.258 244.527C299.258 243.438 299.565 242.552 300.181 241.868C300.8 241.18 301.568 240.836 302.484 240.836C303.4 240.836 304.109 241.132 304.61 241.725C305.112 242.317 305.362 243.14 305.362 244.192V244.78ZM304.214 243.83C304.209 243.183 304.052 242.679 303.742 242.319C303.437 241.959 303.011 241.779 302.464 241.779C301.935 241.779 301.486 241.968 301.117 242.347C300.748 242.725 300.52 243.219 300.434 243.83H304.214ZM306.641 247.747V246.544C307.251 246.995 307.924 247.221 308.657 247.221C309.642 247.221 310.134 246.893 310.134 246.236C310.134 246.049 310.09 245.892 310.004 245.765C309.922 245.632 309.808 245.516 309.662 245.416C309.521 245.316 309.352 245.227 309.156 245.149C308.965 245.067 308.757 244.983 308.534 244.896C308.224 244.773 307.951 244.65 307.714 244.527C307.481 244.4 307.285 244.258 307.126 244.104C306.971 243.944 306.853 243.764 306.771 243.563C306.693 243.363 306.654 243.128 306.654 242.859C306.654 242.531 306.729 242.242 306.88 241.991C307.03 241.736 307.231 241.524 307.481 241.355C307.732 241.182 308.017 241.052 308.336 240.966C308.66 240.879 308.992 240.836 309.334 240.836C309.94 240.836 310.482 240.941 310.961 241.15V242.285C310.446 241.948 309.854 241.779 309.184 241.779C308.974 241.779 308.785 241.804 308.616 241.854C308.448 241.9 308.302 241.966 308.179 242.053C308.06 242.139 307.967 242.244 307.898 242.367C307.835 242.486 307.803 242.618 307.803 242.764C307.803 242.946 307.835 243.099 307.898 243.222C307.967 243.345 308.065 243.454 308.192 243.55C308.32 243.646 308.475 243.732 308.657 243.81C308.84 243.887 309.047 243.971 309.279 244.062C309.589 244.181 309.867 244.304 310.113 244.432C310.359 244.555 310.569 244.696 310.742 244.855C310.915 245.01 311.048 245.19 311.139 245.396C311.234 245.601 311.282 245.844 311.282 246.127C311.282 246.473 311.205 246.774 311.05 247.029C310.899 247.285 310.697 247.496 310.441 247.665C310.186 247.834 309.892 247.959 309.56 248.041C309.227 248.123 308.878 248.164 308.514 248.164C307.794 248.164 307.169 248.025 306.641 247.747ZM312.588 247.747V246.544C313.199 246.995 313.871 247.221 314.604 247.221C315.589 247.221 316.081 246.893 316.081 246.236C316.081 246.049 316.038 245.892 315.951 245.765C315.869 245.632 315.755 245.516 315.609 245.416C315.468 245.316 315.299 245.227 315.104 245.149C314.912 245.067 314.705 244.983 314.481 244.896C314.172 244.773 313.898 244.65 313.661 244.527C313.429 244.4 313.233 244.258 313.073 244.104C312.918 243.944 312.8 243.764 312.718 243.563C312.64 243.363 312.602 243.128 312.602 242.859C312.602 242.531 312.677 242.242 312.827 241.991C312.978 241.736 313.178 241.524 313.429 241.355C313.679 241.182 313.964 241.052 314.283 240.966C314.607 240.879 314.939 240.836 315.281 240.836C315.887 240.836 316.43 240.941 316.908 241.15V242.285C316.393 241.948 315.801 241.779 315.131 241.779C314.921 241.779 314.732 241.804 314.563 241.854C314.395 241.9 314.249 241.966 314.126 242.053C314.007 242.139 313.914 242.244 313.846 242.367C313.782 242.486 313.75 242.618 313.75 242.764C313.75 242.946 313.782 243.099 313.846 243.222C313.914 243.345 314.012 243.454 314.14 243.55C314.267 243.646 314.422 243.732 314.604 243.81C314.787 243.887 314.994 243.971 315.227 244.062C315.536 244.181 315.814 244.304 316.061 244.432C316.307 244.555 316.516 244.696 316.689 244.855C316.863 245.01 316.995 245.19 317.086 245.396C317.182 245.601 317.229 245.844 317.229 246.127C317.229 246.473 317.152 246.774 316.997 247.029C316.847 247.285 316.644 247.496 316.389 247.665C316.133 247.834 315.84 247.959 315.507 248.041C315.174 248.123 314.826 248.164 314.461 248.164C313.741 248.164 313.117 248.025 312.588 247.747Z" fill="#707070"/>
                <path d="M76 264H532V265H76V264Z" fill="#616161"/>
            </g>
            <path d="M76.7588 288.61V286.936C76.9092 287.072 77.0869 287.195 77.292 287.305C77.5016 287.414 77.7227 287.507 77.9551 287.585C78.1875 287.658 78.4199 287.715 78.6523 287.756C78.8848 287.797 79.099 287.817 79.2949 287.817C79.9785 287.817 80.4867 287.703 80.8193 287.476C81.1566 287.248 81.3252 286.917 81.3252 286.484C81.3252 286.252 81.2682 286.051 81.1543 285.883C81.0449 285.71 80.89 285.552 80.6895 285.411C80.4889 285.27 80.252 285.135 79.9785 285.008C79.7096 284.876 79.4202 284.739 79.1104 284.598C78.7777 284.42 78.4678 284.24 78.1807 284.058C77.8936 283.875 77.6429 283.675 77.4287 283.456C77.2191 283.233 77.0527 282.982 76.9297 282.704C76.8112 282.426 76.752 282.1 76.752 281.727C76.752 281.266 76.8545 280.868 77.0596 280.53C77.2692 280.188 77.5426 279.908 77.8799 279.689C78.2217 279.466 78.609 279.302 79.042 279.197C79.4749 279.088 79.917 279.033 80.3682 279.033C81.3936 279.033 82.141 279.149 82.6104 279.382V280.988C82.0544 280.587 81.3389 280.387 80.4639 280.387C80.2223 280.387 79.9808 280.41 79.7393 280.455C79.5023 280.501 79.2881 280.576 79.0967 280.681C78.9098 280.785 78.7572 280.92 78.6387 281.084C78.5202 281.248 78.4609 281.446 78.4609 281.679C78.4609 281.897 78.5065 282.087 78.5977 282.246C78.6888 282.406 78.821 282.551 78.9941 282.684C79.1719 282.816 79.3861 282.946 79.6367 283.073C79.8919 283.196 80.1859 283.331 80.5186 283.477C80.8604 283.654 81.1816 283.841 81.4824 284.037C81.7878 284.233 82.0544 284.45 82.2822 284.687C82.5146 284.924 82.6969 285.188 82.8291 285.479C82.9658 285.767 83.0342 286.095 83.0342 286.464C83.0342 286.961 82.9339 287.38 82.7334 287.722C82.5329 288.063 82.2617 288.341 81.9199 288.556C81.5827 288.77 81.193 288.925 80.751 289.021C80.3089 289.116 79.8418 289.164 79.3496 289.164C79.1855 289.164 78.9827 289.15 78.7412 289.123C78.5042 289.1 78.2604 289.064 78.0098 289.014C77.7591 288.968 77.5221 288.911 77.2988 288.843C77.0755 288.774 76.8955 288.697 76.7588 288.61ZM90.5879 285.931H85.8164C85.8346 286.578 86.0329 287.077 86.4111 287.428C86.7939 287.779 87.318 287.954 87.9834 287.954C88.7308 287.954 89.4167 287.731 90.041 287.284V288.562C89.403 288.964 88.5599 289.164 87.5117 289.164C86.4818 289.164 85.6729 288.847 85.085 288.214C84.5016 287.576 84.21 286.68 84.21 285.527C84.21 284.438 84.5312 283.552 85.1738 282.868C85.821 282.18 86.623 281.836 87.5801 281.836C88.5371 281.836 89.2777 282.144 89.8018 282.759C90.3258 283.374 90.5879 284.229 90.5879 285.322V285.931ZM89.0566 284.81C89.0521 284.24 88.9176 283.798 88.6533 283.483C88.389 283.164 88.0244 283.005 87.5596 283.005C87.1038 283.005 86.7165 283.171 86.3975 283.504C86.083 283.837 85.8893 284.272 85.8164 284.81H89.0566ZM93.6914 289H92.0986V278.637H93.6914V289ZM101.689 285.931H96.918C96.9362 286.578 97.1344 287.077 97.5127 287.428C97.8955 287.779 98.4196 287.954 99.085 287.954C99.8324 287.954 100.518 287.731 101.143 287.284V288.562C100.505 288.964 99.6615 289.164 98.6133 289.164C97.5833 289.164 96.7744 288.847 96.1865 288.214C95.6032 287.576 95.3115 286.68 95.3115 285.527C95.3115 284.438 95.6328 283.552 96.2754 282.868C96.9225 282.18 97.7246 281.836 98.6816 281.836C99.6387 281.836 100.379 282.144 100.903 282.759C101.427 283.374 101.689 284.229 101.689 285.322V285.931ZM100.158 284.81C100.154 284.24 100.019 283.798 99.7549 283.483C99.4906 283.164 99.126 283.005 98.6611 283.005C98.2054 283.005 97.818 283.171 97.499 283.504C97.1846 283.837 96.9909 284.272 96.918 284.81H100.158ZM108.211 288.679C107.65 289.002 106.987 289.164 106.222 289.164C105.183 289.164 104.344 288.84 103.706 288.193C103.068 287.542 102.749 286.699 102.749 285.664C102.749 284.511 103.091 283.586 103.774 282.889C104.463 282.187 105.381 281.836 106.529 281.836C107.167 281.836 107.73 281.948 108.218 282.171V283.647C107.73 283.283 107.211 283.101 106.659 283.101C105.989 283.101 105.44 283.328 105.012 283.784C104.583 284.235 104.369 284.828 104.369 285.562C104.369 286.286 104.57 286.858 104.971 287.277C105.376 287.697 105.919 287.906 106.598 287.906C107.167 287.906 107.705 287.703 108.211 287.298V288.679ZM113.481 288.925C113.172 289.08 112.764 289.157 112.258 289.157C110.9 289.157 110.221 288.506 110.221 287.202V283.244H109.052V282H110.221V280.38L111.807 279.929V282H113.481V283.244H111.807V286.744C111.807 287.159 111.882 287.455 112.032 287.633C112.183 287.811 112.433 287.899 112.784 287.899C113.053 287.899 113.285 287.822 113.481 287.667V288.925ZM120.775 285.931H116.004C116.022 286.578 116.22 287.077 116.599 287.428C116.981 287.779 117.506 287.954 118.171 287.954C118.918 287.954 119.604 287.731 120.229 287.284V288.562C119.59 288.964 118.747 289.164 117.699 289.164C116.669 289.164 115.86 288.847 115.272 288.214C114.689 287.576 114.397 286.68 114.397 285.527C114.397 284.438 114.719 283.552 115.361 282.868C116.008 282.18 116.811 281.836 117.768 281.836C118.725 281.836 119.465 282.144 119.989 282.759C120.513 283.374 120.775 284.229 120.775 285.322V285.931ZM119.244 284.81C119.24 284.24 119.105 283.798 118.841 283.483C118.576 283.164 118.212 283.005 117.747 283.005C117.291 283.005 116.904 283.171 116.585 283.504C116.271 283.837 116.077 284.272 116.004 284.81H119.244ZM128.65 289H127.064V287.811H127.037C126.527 288.713 125.741 289.164 124.679 289.164C123.817 289.164 123.127 288.852 122.607 288.228C122.092 287.599 121.835 286.744 121.835 285.664C121.835 284.507 122.12 283.579 122.689 282.882C123.264 282.185 124.027 281.836 124.979 281.836C125.923 281.836 126.609 282.214 127.037 282.971H127.064V278.637H128.65V289ZM127.085 285.801V284.885C127.085 284.388 126.923 283.966 126.6 283.62C126.276 283.274 125.864 283.101 125.362 283.101C124.77 283.101 124.303 283.322 123.961 283.764C123.624 284.206 123.455 284.819 123.455 285.603C123.455 286.313 123.617 286.876 123.94 287.291C124.269 287.701 124.708 287.906 125.26 287.906C125.802 287.906 126.242 287.708 126.579 287.312C126.916 286.91 127.085 286.407 127.085 285.801ZM140.682 289H139.096V287.893H139.068C138.608 288.74 137.893 289.164 136.922 289.164C135.268 289.164 134.44 288.171 134.44 286.184V282H136.026V286.02C136.026 287.277 136.512 287.906 137.482 287.906C137.952 287.906 138.337 287.733 138.638 287.387C138.943 287.04 139.096 286.587 139.096 286.026V282H140.682V289ZM142.315 288.781V287.312C142.908 287.763 143.562 287.988 144.277 287.988C145.234 287.988 145.713 287.706 145.713 287.141C145.713 286.981 145.672 286.847 145.59 286.737C145.508 286.623 145.396 286.523 145.255 286.437C145.118 286.35 144.954 286.272 144.763 286.204C144.576 286.136 144.366 286.058 144.134 285.972C143.847 285.858 143.587 285.737 143.354 285.609C143.127 285.482 142.935 285.338 142.78 285.179C142.63 285.015 142.516 284.83 142.438 284.625C142.361 284.42 142.322 284.181 142.322 283.907C142.322 283.57 142.402 283.274 142.562 283.019C142.721 282.759 142.935 282.542 143.204 282.369C143.473 282.191 143.778 282.059 144.12 281.973C144.462 281.882 144.815 281.836 145.18 281.836C145.827 281.836 146.406 281.934 146.916 282.13V283.518C146.424 283.18 145.859 283.012 145.221 283.012C145.02 283.012 144.838 283.032 144.674 283.073C144.514 283.114 144.378 283.171 144.264 283.244C144.15 283.317 144.061 283.406 143.997 283.511C143.933 283.611 143.901 283.723 143.901 283.846C143.901 283.996 143.933 284.124 143.997 284.229C144.061 284.333 144.154 284.427 144.277 284.509C144.405 284.586 144.555 284.659 144.729 284.728C144.906 284.791 145.109 284.862 145.337 284.939C145.638 285.062 145.907 285.188 146.144 285.315C146.385 285.443 146.59 285.589 146.759 285.753C146.927 285.912 147.057 286.099 147.148 286.313C147.24 286.523 147.285 286.774 147.285 287.065C147.285 287.421 147.203 287.731 147.039 287.995C146.875 288.259 146.656 288.478 146.383 288.651C146.109 288.825 145.793 288.952 145.433 289.034C145.077 289.121 144.701 289.164 144.305 289.164C143.539 289.164 142.876 289.036 142.315 288.781ZM154.723 285.931H149.951C149.969 286.578 150.168 287.077 150.546 287.428C150.929 287.779 151.453 287.954 152.118 287.954C152.866 287.954 153.551 287.731 154.176 287.284V288.562C153.538 288.964 152.695 289.164 151.646 289.164C150.617 289.164 149.808 288.847 149.22 288.214C148.636 287.576 148.345 286.68 148.345 285.527C148.345 284.438 148.666 283.552 149.309 282.868C149.956 282.18 150.758 281.836 151.715 281.836C152.672 281.836 153.412 282.144 153.937 282.759C154.461 283.374 154.723 284.229 154.723 285.322V285.931ZM153.191 284.81C153.187 284.24 153.052 283.798 152.788 283.483C152.524 283.164 152.159 283.005 151.694 283.005C151.239 283.005 150.851 283.171 150.532 283.504C150.218 283.837 150.024 284.272 149.951 284.81H153.191ZM160.294 283.511C160.103 283.36 159.827 283.285 159.467 283.285C158.997 283.285 158.605 283.497 158.291 283.921C157.977 284.345 157.819 284.921 157.819 285.65V289H156.233V282H157.819V283.442H157.847C158.002 282.95 158.239 282.567 158.558 282.294C158.881 282.016 159.241 281.877 159.638 281.877C159.925 281.877 160.144 281.92 160.294 282.007V283.511ZM160.978 288.781V287.312C161.57 287.763 162.224 287.988 162.939 287.988C163.896 287.988 164.375 287.706 164.375 287.141C164.375 286.981 164.334 286.847 164.252 286.737C164.17 286.623 164.058 286.523 163.917 286.437C163.78 286.35 163.616 286.272 163.425 286.204C163.238 286.136 163.028 286.058 162.796 285.972C162.509 285.858 162.249 285.737 162.017 285.609C161.789 285.482 161.597 285.338 161.442 285.179C161.292 285.015 161.178 284.83 161.101 284.625C161.023 284.42 160.984 284.181 160.984 283.907C160.984 283.57 161.064 283.274 161.224 283.019C161.383 282.759 161.597 282.542 161.866 282.369C162.135 282.191 162.44 282.059 162.782 281.973C163.124 281.882 163.477 281.836 163.842 281.836C164.489 281.836 165.068 281.934 165.578 282.13V283.518C165.086 283.18 164.521 283.012 163.883 283.012C163.682 283.012 163.5 283.032 163.336 283.073C163.176 283.114 163.04 283.171 162.926 283.244C162.812 283.317 162.723 283.406 162.659 283.511C162.595 283.611 162.563 283.723 162.563 283.846C162.563 283.996 162.595 284.124 162.659 284.229C162.723 284.333 162.816 284.427 162.939 284.509C163.067 284.586 163.217 284.659 163.391 284.728C163.568 284.791 163.771 284.862 163.999 284.939C164.3 285.062 164.569 285.188 164.806 285.315C165.047 285.443 165.252 285.589 165.421 285.753C165.59 285.912 165.719 286.099 165.811 286.313C165.902 286.523 165.947 286.774 165.947 287.065C165.947 287.421 165.865 287.731 165.701 287.995C165.537 288.259 165.318 288.478 165.045 288.651C164.771 288.825 164.455 288.952 164.095 289.034C163.739 289.121 163.363 289.164 162.967 289.164C162.201 289.164 161.538 289.036 160.978 288.781ZM172.927 287.968H172.899V292.22H171.313V282H172.899V283.23H172.927C173.469 282.301 174.262 281.836 175.306 281.836C176.194 281.836 176.887 282.148 177.384 282.772C177.881 283.397 178.129 284.235 178.129 285.288C178.129 286.455 177.849 287.389 177.288 288.091C176.728 288.793 175.962 289.144 174.991 289.144C174.098 289.144 173.41 288.752 172.927 287.968ZM172.886 285.206V286.074C172.886 286.585 173.048 287.018 173.371 287.373C173.699 287.729 174.114 287.906 174.615 287.906C175.203 287.906 175.663 287.678 175.996 287.223C176.333 286.762 176.502 286.122 176.502 285.302C176.502 284.614 176.345 284.076 176.03 283.688C175.72 283.297 175.299 283.101 174.766 283.101C174.201 283.101 173.745 283.301 173.398 283.702C173.057 284.103 172.886 284.604 172.886 285.206ZM185.676 285.931H180.904C180.923 286.578 181.121 287.077 181.499 287.428C181.882 287.779 182.406 287.954 183.071 287.954C183.819 287.954 184.505 287.731 185.129 287.284V288.562C184.491 288.964 183.648 289.164 182.6 289.164C181.57 289.164 180.761 288.847 180.173 288.214C179.59 287.576 179.298 286.68 179.298 285.527C179.298 284.438 179.619 283.552 180.262 282.868C180.909 282.18 181.711 281.836 182.668 281.836C183.625 281.836 184.366 282.144 184.89 282.759C185.414 283.374 185.676 284.229 185.676 285.322V285.931ZM184.145 284.81C184.14 284.24 184.006 283.798 183.741 283.483C183.477 283.164 183.112 283.005 182.647 283.005C182.192 283.005 181.804 283.171 181.485 283.504C181.171 283.837 180.977 284.272 180.904 284.81H184.145ZM191.247 283.511C191.056 283.36 190.78 283.285 190.42 283.285C189.951 283.285 189.559 283.497 189.244 283.921C188.93 284.345 188.772 284.921 188.772 285.65V289H187.187V282H188.772V283.442H188.8C188.955 282.95 189.192 282.567 189.511 282.294C189.834 282.016 190.194 281.877 190.591 281.877C190.878 281.877 191.097 281.92 191.247 282.007V283.511ZM202.834 289H201.248V285.186C201.248 284.452 201.143 283.921 200.934 283.593C200.729 283.265 200.38 283.101 199.888 283.101C199.473 283.101 199.12 283.308 198.828 283.723C198.541 284.137 198.397 284.634 198.397 285.213V289H196.805V285.056C196.805 283.752 196.344 283.101 195.424 283.101C194.995 283.101 194.642 283.297 194.364 283.688C194.091 284.08 193.954 284.589 193.954 285.213V289H192.368V282H193.954V283.107H193.981C194.487 282.26 195.223 281.836 196.189 281.836C196.673 281.836 197.094 281.97 197.454 282.239C197.819 282.504 198.067 282.852 198.199 283.285C198.719 282.319 199.493 281.836 200.523 281.836C202.064 281.836 202.834 282.786 202.834 284.687V289ZM205.568 280.53C205.309 280.53 205.085 280.446 204.898 280.277C204.716 280.109 204.625 279.895 204.625 279.635C204.625 279.375 204.716 279.159 204.898 278.985C205.085 278.812 205.309 278.726 205.568 278.726C205.837 278.726 206.065 278.812 206.252 278.985C206.439 279.159 206.532 279.375 206.532 279.635C206.532 279.881 206.439 280.093 206.252 280.271C206.065 280.444 205.837 280.53 205.568 280.53ZM206.354 289H204.769V282H206.354V289ZM207.995 288.781V287.312C208.588 287.763 209.242 287.988 209.957 287.988C210.914 287.988 211.393 287.706 211.393 287.141C211.393 286.981 211.352 286.847 211.27 286.737C211.188 286.623 211.076 286.523 210.935 286.437C210.798 286.35 210.634 286.272 210.442 286.204C210.256 286.136 210.046 286.058 209.813 285.972C209.526 285.858 209.267 285.737 209.034 285.609C208.806 285.482 208.615 285.338 208.46 285.179C208.31 285.015 208.196 284.83 208.118 284.625C208.041 284.42 208.002 284.181 208.002 283.907C208.002 283.57 208.082 283.274 208.241 283.019C208.401 282.759 208.615 282.542 208.884 282.369C209.153 282.191 209.458 282.059 209.8 281.973C210.142 281.882 210.495 281.836 210.859 281.836C211.507 281.836 212.085 281.934 212.596 282.13V283.518C212.104 283.18 211.538 283.012 210.9 283.012C210.7 283.012 210.518 283.032 210.354 283.073C210.194 283.114 210.057 283.171 209.943 283.244C209.829 283.317 209.741 283.406 209.677 283.511C209.613 283.611 209.581 283.723 209.581 283.846C209.581 283.996 209.613 284.124 209.677 284.229C209.741 284.333 209.834 284.427 209.957 284.509C210.085 284.586 210.235 284.659 210.408 284.728C210.586 284.791 210.789 284.862 211.017 284.939C211.317 285.062 211.586 285.188 211.823 285.315C212.065 285.443 212.27 285.589 212.438 285.753C212.607 285.912 212.737 286.099 212.828 286.313C212.919 286.523 212.965 286.774 212.965 287.065C212.965 287.421 212.883 287.731 212.719 287.995C212.555 288.259 212.336 288.478 212.062 288.651C211.789 288.825 211.472 288.952 211.112 289.034C210.757 289.121 210.381 289.164 209.984 289.164C209.219 289.164 208.556 289.036 207.995 288.781ZM214.038 288.781V287.312C214.631 287.763 215.285 287.988 216 287.988C216.957 287.988 217.436 287.706 217.436 287.141C217.436 286.981 217.395 286.847 217.312 286.737C217.23 286.623 217.119 286.523 216.978 286.437C216.841 286.35 216.677 286.272 216.485 286.204C216.299 286.136 216.089 286.058 215.856 285.972C215.569 285.858 215.31 285.737 215.077 285.609C214.849 285.482 214.658 285.338 214.503 285.179C214.353 285.015 214.239 284.83 214.161 284.625C214.084 284.42 214.045 284.181 214.045 283.907C214.045 283.57 214.125 283.274 214.284 283.019C214.444 282.759 214.658 282.542 214.927 282.369C215.196 282.191 215.501 282.059 215.843 281.973C216.185 281.882 216.538 281.836 216.902 281.836C217.549 281.836 218.128 281.934 218.639 282.13V283.518C218.146 283.18 217.581 283.012 216.943 283.012C216.743 283.012 216.561 283.032 216.396 283.073C216.237 283.114 216.1 283.171 215.986 283.244C215.872 283.317 215.784 283.406 215.72 283.511C215.656 283.611 215.624 283.723 215.624 283.846C215.624 283.996 215.656 284.124 215.72 284.229C215.784 284.333 215.877 284.427 216 284.509C216.128 284.586 216.278 284.659 216.451 284.728C216.629 284.791 216.832 284.862 217.06 284.939C217.36 285.062 217.629 285.188 217.866 285.315C218.108 285.443 218.313 285.589 218.481 285.753C218.65 285.912 218.78 286.099 218.871 286.313C218.962 286.523 219.008 286.774 219.008 287.065C219.008 287.421 218.926 287.731 218.762 287.995C218.598 288.259 218.379 288.478 218.105 288.651C217.832 288.825 217.515 288.952 217.155 289.034C216.8 289.121 216.424 289.164 216.027 289.164C215.262 289.164 214.599 289.036 214.038 288.781ZM221.318 280.53C221.059 280.53 220.835 280.446 220.648 280.277C220.466 280.109 220.375 279.895 220.375 279.635C220.375 279.375 220.466 279.159 220.648 278.985C220.835 278.812 221.059 278.726 221.318 278.726C221.587 278.726 221.815 278.812 222.002 278.985C222.189 279.159 222.282 279.375 222.282 279.635C222.282 279.881 222.189 280.093 222.002 280.271C221.815 280.444 221.587 280.53 221.318 280.53ZM222.104 289H220.519V282H222.104V289ZM227.286 289.164C226.206 289.164 225.342 288.838 224.695 288.187C224.053 287.53 223.731 286.662 223.731 285.582C223.731 284.406 224.066 283.488 224.736 282.827C225.411 282.166 226.318 281.836 227.457 281.836C228.551 281.836 229.403 282.157 230.014 282.8C230.624 283.442 230.93 284.333 230.93 285.473C230.93 286.589 230.599 287.485 229.938 288.159C229.282 288.829 228.398 289.164 227.286 289.164ZM227.361 283.101C226.742 283.101 226.252 283.317 225.892 283.75C225.532 284.183 225.352 284.78 225.352 285.541C225.352 286.275 225.534 286.854 225.898 287.277C226.263 287.697 226.751 287.906 227.361 287.906C227.986 287.906 228.464 287.699 228.797 287.284C229.134 286.869 229.303 286.279 229.303 285.514C229.303 284.743 229.134 284.149 228.797 283.729C228.464 283.31 227.986 283.101 227.361 283.101ZM238.784 289H237.198V285.056C237.198 283.748 236.736 283.094 235.811 283.094C235.327 283.094 234.929 283.276 234.614 283.641C234.3 284.001 234.143 284.456 234.143 285.008V289H232.55V282H234.143V283.162H234.17C234.694 282.278 235.451 281.836 236.439 281.836C237.201 281.836 237.782 282.084 238.183 282.581C238.584 283.073 238.784 283.786 238.784 284.721V289ZM240.288 288.781V287.312C240.881 287.763 241.535 287.988 242.25 287.988C243.207 287.988 243.686 287.706 243.686 287.141C243.686 286.981 243.645 286.847 243.562 286.737C243.48 286.623 243.369 286.523 243.228 286.437C243.091 286.35 242.927 286.272 242.735 286.204C242.549 286.136 242.339 286.058 242.106 285.972C241.819 285.858 241.56 285.737 241.327 285.609C241.099 285.482 240.908 285.338 240.753 285.179C240.603 285.015 240.489 284.83 240.411 284.625C240.334 284.42 240.295 284.181 240.295 283.907C240.295 283.57 240.375 283.274 240.534 283.019C240.694 282.759 240.908 282.542 241.177 282.369C241.446 282.191 241.751 282.059 242.093 281.973C242.435 281.882 242.788 281.836 243.152 281.836C243.799 281.836 244.378 281.934 244.889 282.13V283.518C244.396 283.18 243.831 283.012 243.193 283.012C242.993 283.012 242.811 283.032 242.646 283.073C242.487 283.114 242.35 283.171 242.236 283.244C242.122 283.317 242.034 283.406 241.97 283.511C241.906 283.611 241.874 283.723 241.874 283.846C241.874 283.996 241.906 284.124 241.97 284.229C242.034 284.333 242.127 284.427 242.25 284.509C242.378 284.586 242.528 284.659 242.701 284.728C242.879 284.791 243.082 284.862 243.31 284.939C243.61 285.062 243.879 285.188 244.116 285.315C244.358 285.443 244.563 285.589 244.731 285.753C244.9 285.912 245.03 286.099 245.121 286.313C245.212 286.523 245.258 286.774 245.258 287.065C245.258 287.421 245.176 287.731 245.012 287.995C244.848 288.259 244.629 288.478 244.355 288.651C244.082 288.825 243.765 288.952 243.405 289.034C243.05 289.121 242.674 289.164 242.277 289.164C241.512 289.164 240.849 289.036 240.288 288.781Z" fill="#242424"/>
            <path d="M99.5 317C99.5 321.142 96.1421 324.5 92 324.5C87.8579 324.5 84.5 321.142 84.5 317C84.5 312.858 87.8579 309.5 92 309.5C96.1421 309.5 99.5 312.858 99.5 317Z" stroke="#0F6CBD"/>
            <circle cx="92" cy="317" r="4.5" fill="#0F6CBD" stroke="#0F6CBD"/>
            <path d="M119.957 321.59C119.232 321.973 118.33 322.164 117.25 322.164C115.855 322.164 114.739 321.715 113.9 320.817C113.062 319.92 112.643 318.742 112.643 317.283C112.643 315.715 113.114 314.449 114.058 313.482C115.001 312.516 116.197 312.033 117.646 312.033C118.576 312.033 119.346 312.168 119.957 312.437V313.66C119.255 313.268 118.48 313.072 117.633 313.072C116.507 313.072 115.593 313.448 114.892 314.2C114.194 314.952 113.846 315.957 113.846 317.215C113.846 318.409 114.172 319.361 114.823 320.072C115.479 320.779 116.339 321.132 117.4 321.132C118.385 321.132 119.237 320.913 119.957 320.476V321.59ZM126.813 322H125.692V320.906H125.665C125.177 321.745 124.46 322.164 123.512 322.164C122.814 322.164 122.268 321.979 121.871 321.61C121.479 321.241 121.283 320.751 121.283 320.141C121.283 318.833 122.053 318.072 123.594 317.857L125.692 317.563C125.692 316.374 125.212 315.779 124.25 315.779C123.407 315.779 122.646 316.066 121.967 316.641V315.492C122.655 315.055 123.448 314.836 124.346 314.836C125.991 314.836 126.813 315.706 126.813 317.447V322ZM125.692 318.459L124.004 318.691C123.484 318.764 123.092 318.894 122.828 319.081C122.564 319.263 122.432 319.589 122.432 320.059C122.432 320.4 122.552 320.681 122.794 320.899C123.04 321.114 123.366 321.221 123.771 321.221C124.327 321.221 124.785 321.027 125.146 320.64C125.51 320.248 125.692 319.753 125.692 319.156V318.459ZM134.736 322H133.615V318.008C133.615 316.522 133.073 315.779 131.988 315.779C131.428 315.779 130.963 315.991 130.594 316.415C130.229 316.834 130.047 317.365 130.047 318.008V322H128.926V315H130.047V316.162H130.074C130.603 315.278 131.368 314.836 132.371 314.836C133.137 314.836 133.722 315.084 134.128 315.581C134.534 316.073 134.736 316.786 134.736 317.721V322ZM150.637 322H149.516V317.98C149.516 317.206 149.395 316.645 149.153 316.299C148.916 315.952 148.515 315.779 147.95 315.779C147.472 315.779 147.064 315.998 146.727 316.436C146.394 316.873 146.228 317.397 146.228 318.008V322H145.106V317.844C145.106 316.467 144.576 315.779 143.514 315.779C143.021 315.779 142.616 315.987 142.297 316.401C141.978 316.812 141.818 317.347 141.818 318.008V322H140.697V315H141.818V316.107H141.846C142.342 315.26 143.067 314.836 144.02 314.836C144.498 314.836 144.915 314.97 145.271 315.239C145.626 315.504 145.87 315.852 146.002 316.285C146.521 315.319 147.296 314.836 148.326 314.836C149.867 314.836 150.637 315.786 150.637 317.687V322ZM155.682 322.164C154.647 322.164 153.82 321.838 153.2 321.187C152.585 320.53 152.277 319.662 152.277 318.582C152.277 317.406 152.599 316.488 153.241 315.827C153.884 315.166 154.752 314.836 155.846 314.836C156.889 314.836 157.703 315.157 158.286 315.8C158.874 316.442 159.168 317.333 159.168 318.473C159.168 319.589 158.851 320.485 158.218 321.159C157.589 321.829 156.743 322.164 155.682 322.164ZM155.764 315.779C155.044 315.779 154.474 316.025 154.055 316.518C153.635 317.005 153.426 317.68 153.426 318.541C153.426 319.37 153.638 320.024 154.062 320.503C154.485 320.981 155.053 321.221 155.764 321.221C156.488 321.221 157.044 320.986 157.432 320.517C157.824 320.047 158.02 319.38 158.02 318.514C158.02 317.639 157.824 316.964 157.432 316.49C157.044 316.016 156.488 315.779 155.764 315.779ZM166.462 315L163.673 322H162.572L159.92 315H161.15L162.928 320.086C163.06 320.46 163.142 320.785 163.174 321.063H163.201C163.247 320.713 163.32 320.396 163.42 320.113L165.279 315H166.462ZM173.216 318.78H168.273C168.292 319.56 168.501 320.161 168.902 320.585C169.303 321.009 169.855 321.221 170.557 321.221C171.345 321.221 172.07 320.961 172.73 320.441V321.494C172.115 321.941 171.302 322.164 170.29 322.164C169.301 322.164 168.524 321.847 167.959 321.214C167.394 320.576 167.111 319.68 167.111 318.527C167.111 317.438 167.419 316.552 168.034 315.868C168.654 315.18 169.422 314.836 170.338 314.836C171.254 314.836 171.963 315.132 172.464 315.725C172.965 316.317 173.216 317.14 173.216 318.192V318.78ZM172.067 317.83C172.063 317.183 171.906 316.679 171.596 316.319C171.29 315.959 170.864 315.779 170.317 315.779C169.789 315.779 169.34 315.968 168.971 316.347C168.602 316.725 168.374 317.219 168.287 317.83H172.067ZM175.943 320.441L174.85 323.805H174.05L174.85 320.441H175.943ZM187.77 322H186.648V320.811H186.621C186.102 321.713 185.299 322.164 184.215 322.164C183.335 322.164 182.631 321.852 182.103 321.228C181.578 320.599 181.316 319.744 181.316 318.664C181.316 317.507 181.608 316.579 182.191 315.882C182.775 315.185 183.552 314.836 184.522 314.836C185.484 314.836 186.184 315.214 186.621 315.971H186.648V311.637H187.77V322ZM186.648 318.835V317.803C186.648 317.238 186.462 316.759 186.088 316.367C185.714 315.975 185.24 315.779 184.666 315.779C183.982 315.779 183.445 316.03 183.053 316.531C182.661 317.033 182.465 317.725 182.465 318.609C182.465 319.416 182.652 320.054 183.025 320.523C183.404 320.988 183.91 321.221 184.543 321.221C185.167 321.221 185.673 320.995 186.061 320.544C186.452 320.093 186.648 319.523 186.648 318.835ZM195.665 318.78H190.723C190.741 319.56 190.951 320.161 191.352 320.585C191.753 321.009 192.304 321.221 193.006 321.221C193.794 321.221 194.519 320.961 195.18 320.441V321.494C194.564 321.941 193.751 322.164 192.739 322.164C191.75 322.164 190.973 321.847 190.408 321.214C189.843 320.576 189.561 319.68 189.561 318.527C189.561 317.438 189.868 316.552 190.483 315.868C191.103 315.18 191.871 314.836 192.787 314.836C193.703 314.836 194.412 315.132 194.913 315.725C195.414 316.317 195.665 317.14 195.665 318.192V318.78ZM194.517 317.83C194.512 317.183 194.355 316.679 194.045 316.319C193.74 315.959 193.313 315.779 192.767 315.779C192.238 315.779 191.789 315.968 191.42 316.347C191.051 316.725 190.823 317.219 190.736 317.83H194.517ZM198.488 322H197.367V311.637H198.488V322ZM206.384 318.78H201.441C201.46 319.56 201.669 320.161 202.07 320.585C202.471 321.009 203.023 321.221 203.725 321.221C204.513 321.221 205.238 320.961 205.898 320.441V321.494C205.283 321.941 204.47 322.164 203.458 322.164C202.469 322.164 201.692 321.847 201.127 321.214C200.562 320.576 200.279 319.68 200.279 318.527C200.279 317.438 200.587 316.552 201.202 315.868C201.822 315.18 202.59 314.836 203.506 314.836C204.422 314.836 205.131 315.132 205.632 315.725C206.133 316.317 206.384 317.14 206.384 318.192V318.78ZM205.235 317.83C205.231 317.183 205.074 316.679 204.764 316.319C204.458 315.959 204.032 315.779 203.485 315.779C202.957 315.779 202.508 315.968 202.139 316.347C201.77 316.725 201.542 317.219 201.455 317.83H205.235ZM211.333 321.932C211.069 322.077 210.72 322.15 210.287 322.15C209.061 322.15 208.448 321.467 208.448 320.1V315.957H207.245V315H208.448V313.291L209.569 312.929V315H211.333V315.957H209.569V319.901C209.569 320.371 209.649 320.706 209.809 320.906C209.968 321.107 210.232 321.207 210.602 321.207C210.884 321.207 211.128 321.13 211.333 320.975V321.932ZM218.347 318.78H213.404C213.423 319.56 213.632 320.161 214.033 320.585C214.434 321.009 214.986 321.221 215.688 321.221C216.476 321.221 217.201 320.961 217.861 320.441V321.494C217.246 321.941 216.433 322.164 215.421 322.164C214.432 322.164 213.655 321.847 213.09 321.214C212.525 320.576 212.242 319.68 212.242 318.527C212.242 317.438 212.55 316.552 213.165 315.868C213.785 315.18 214.553 314.836 215.469 314.836C216.385 314.836 217.093 315.132 217.595 315.725C218.096 316.317 218.347 317.14 218.347 318.192V318.78ZM217.198 317.83C217.194 317.183 217.036 316.679 216.727 316.319C216.421 315.959 215.995 315.779 215.448 315.779C214.92 315.779 214.471 315.968 214.102 316.347C213.732 316.725 213.505 317.219 213.418 317.83H217.198ZM228.901 322H227.78V320.906H227.753C227.265 321.745 226.548 322.164 225.6 322.164C224.902 322.164 224.355 321.979 223.959 321.61C223.567 321.241 223.371 320.751 223.371 320.141C223.371 318.833 224.141 318.072 225.682 317.857L227.78 317.563C227.78 316.374 227.299 315.779 226.338 315.779C225.495 315.779 224.734 316.066 224.055 316.641V315.492C224.743 315.055 225.536 314.836 226.434 314.836C228.079 314.836 228.901 315.706 228.901 317.447V322ZM227.78 318.459L226.092 318.691C225.572 318.764 225.18 318.894 224.916 319.081C224.652 319.263 224.52 319.589 224.52 320.059C224.52 320.4 224.64 320.681 224.882 320.899C225.128 321.114 225.454 321.221 225.859 321.221C226.415 321.221 226.873 321.027 227.233 320.64C227.598 320.248 227.78 319.753 227.78 319.156V318.459ZM236.824 322H235.703V318.008C235.703 316.522 235.161 315.779 234.076 315.779C233.516 315.779 233.051 315.991 232.682 316.415C232.317 316.834 232.135 317.365 232.135 318.008V322H231.014V315H232.135V316.162H232.162C232.691 315.278 233.456 314.836 234.459 314.836C235.225 314.836 235.81 315.084 236.216 315.581C236.621 316.073 236.824 316.786 236.824 317.721V322ZM244.918 322H243.797V320.811H243.77C243.25 321.713 242.448 322.164 241.363 322.164C240.484 322.164 239.78 321.852 239.251 321.228C238.727 320.599 238.465 319.744 238.465 318.664C238.465 317.507 238.757 316.579 239.34 315.882C239.923 315.185 240.7 314.836 241.671 314.836C242.632 314.836 243.332 315.214 243.77 315.971H243.797V311.637H244.918V322ZM243.797 318.835V317.803C243.797 317.238 243.61 316.759 243.236 316.367C242.863 315.975 242.389 315.779 241.814 315.779C241.131 315.779 240.593 316.03 240.201 316.531C239.809 317.033 239.613 317.725 239.613 318.609C239.613 319.416 239.8 320.054 240.174 320.523C240.552 320.988 241.058 321.221 241.691 321.221C242.316 321.221 242.822 320.995 243.209 320.544C243.601 320.093 243.797 319.523 243.797 318.835ZM256.532 315L253.743 322H252.643L249.99 315H251.221L252.998 320.086C253.13 320.46 253.212 320.785 253.244 321.063H253.271C253.317 320.713 253.39 320.396 253.49 320.113L255.35 315H256.532ZM258.316 313.223C258.116 313.223 257.945 313.154 257.804 313.018C257.662 312.881 257.592 312.708 257.592 312.498C257.592 312.288 257.662 312.115 257.804 311.979C257.945 311.837 258.116 311.767 258.316 311.767C258.521 311.767 258.695 311.837 258.836 311.979C258.982 312.115 259.055 312.288 259.055 312.498C259.055 312.699 258.982 312.869 258.836 313.011C258.695 313.152 258.521 313.223 258.316 313.223ZM258.863 322H257.742V315H258.863V322ZM266.759 318.78H261.816C261.835 319.56 262.044 320.161 262.445 320.585C262.846 321.009 263.398 321.221 264.1 321.221C264.888 321.221 265.613 320.961 266.273 320.441V321.494C265.658 321.941 264.845 322.164 263.833 322.164C262.844 322.164 262.067 321.847 261.502 321.214C260.937 320.576 260.654 319.68 260.654 318.527C260.654 317.438 260.962 316.552 261.577 315.868C262.197 315.18 262.965 314.836 263.881 314.836C264.797 314.836 265.506 315.132 266.007 315.725C266.508 316.317 266.759 317.14 266.759 318.192V318.78ZM265.61 317.83C265.606 317.183 265.449 316.679 265.139 316.319C264.833 315.959 264.407 315.779 263.86 315.779C263.332 315.779 262.883 315.968 262.514 316.347C262.145 316.725 261.917 317.219 261.83 317.83H265.61ZM277.279 315L275.181 322H274.019L272.576 316.989C272.521 316.798 272.485 316.581 272.467 316.34H272.439C272.426 316.504 272.378 316.716 272.296 316.976L270.73 322H269.609L267.49 315H268.666L270.115 320.264C270.161 320.423 270.193 320.633 270.211 320.893H270.266C270.279 320.692 270.32 320.478 270.389 320.25L272.002 315H273.027L274.477 320.277C274.522 320.446 274.556 320.656 274.579 320.906H274.634C274.643 320.729 274.682 320.519 274.75 320.277L276.172 315H277.279ZM285.879 312.621C285.66 312.498 285.412 312.437 285.134 312.437C284.35 312.437 283.958 312.931 283.958 313.92V315H285.599V315.957H283.958V322H282.844V315.957H281.647V315H282.844V313.865C282.844 313.132 283.056 312.553 283.479 312.129C283.903 311.701 284.432 311.486 285.065 311.486C285.407 311.486 285.678 311.527 285.879 311.609V312.621ZM287.383 313.223C287.182 313.223 287.011 313.154 286.87 313.018C286.729 312.881 286.658 312.708 286.658 312.498C286.658 312.288 286.729 312.115 286.87 311.979C287.011 311.837 287.182 311.767 287.383 311.767C287.588 311.767 287.761 311.837 287.902 311.979C288.048 312.115 288.121 312.288 288.121 312.498C288.121 312.699 288.048 312.869 287.902 313.011C287.761 313.152 287.588 313.223 287.383 313.223ZM287.93 322H286.809V315H287.93V322ZM291.32 322H290.199V311.637H291.32V322ZM299.216 318.78H294.273C294.292 319.56 294.501 320.161 294.902 320.585C295.303 321.009 295.855 321.221 296.557 321.221C297.345 321.221 298.07 320.961 298.73 320.441V321.494C298.115 321.941 297.302 322.164 296.29 322.164C295.301 322.164 294.524 321.847 293.959 321.214C293.394 320.576 293.111 319.68 293.111 318.527C293.111 317.438 293.419 316.552 294.034 315.868C294.654 315.18 295.422 314.836 296.338 314.836C297.254 314.836 297.963 315.132 298.464 315.725C298.965 316.317 299.216 317.14 299.216 318.192V318.78ZM298.067 317.83C298.063 317.183 297.906 316.679 297.596 316.319C297.29 315.959 296.864 315.779 296.317 315.779C295.789 315.779 295.34 315.968 294.971 316.347C294.602 316.725 294.374 317.219 294.287 317.83H298.067ZM300.494 321.747V320.544C301.105 320.995 301.777 321.221 302.511 321.221C303.495 321.221 303.987 320.893 303.987 320.236C303.987 320.049 303.944 319.892 303.857 319.765C303.775 319.632 303.661 319.516 303.516 319.416C303.374 319.316 303.206 319.227 303.01 319.149C302.818 319.067 302.611 318.983 302.388 318.896C302.078 318.773 301.804 318.65 301.567 318.527C301.335 318.4 301.139 318.258 300.979 318.104C300.825 317.944 300.706 317.764 300.624 317.563C300.547 317.363 300.508 317.128 300.508 316.859C300.508 316.531 300.583 316.242 300.733 315.991C300.884 315.736 301.084 315.524 301.335 315.355C301.586 315.182 301.87 315.052 302.189 314.966C302.513 314.879 302.846 314.836 303.188 314.836C303.794 314.836 304.336 314.941 304.814 315.15V316.285C304.299 315.948 303.707 315.779 303.037 315.779C302.827 315.779 302.638 315.804 302.47 315.854C302.301 315.9 302.155 315.966 302.032 316.053C301.914 316.139 301.82 316.244 301.752 316.367C301.688 316.486 301.656 316.618 301.656 316.764C301.656 316.946 301.688 317.099 301.752 317.222C301.82 317.345 301.918 317.454 302.046 317.55C302.174 317.646 302.328 317.732 302.511 317.81C302.693 317.887 302.9 317.971 303.133 318.062C303.443 318.181 303.721 318.304 303.967 318.432C304.213 318.555 304.423 318.696 304.596 318.855C304.769 319.01 304.901 319.19 304.992 319.396C305.088 319.601 305.136 319.844 305.136 320.127C305.136 320.473 305.058 320.774 304.903 321.029C304.753 321.285 304.55 321.496 304.295 321.665C304.04 321.834 303.746 321.959 303.413 322.041C303.08 322.123 302.732 322.164 302.367 322.164C301.647 322.164 301.023 322.025 300.494 321.747Z" fill="#242424"/>
            <circle cx="92" cy="349" r="7.5" stroke="#616161"/>
            <path d="M120.572 344.197L116.942 354H115.678L112.123 344.197H113.401L116.115 351.97C116.202 352.22 116.268 352.51 116.313 352.838H116.341C116.377 352.564 116.452 352.271 116.566 351.956L119.335 344.197H120.572ZM122.404 345.223C122.204 345.223 122.033 345.154 121.892 345.018C121.75 344.881 121.68 344.708 121.68 344.498C121.68 344.288 121.75 344.115 121.892 343.979C122.033 343.837 122.204 343.767 122.404 343.767C122.609 343.767 122.783 343.837 122.924 343.979C123.07 344.115 123.143 344.288 123.143 344.498C123.143 344.699 123.07 344.869 122.924 345.011C122.783 345.152 122.609 345.223 122.404 345.223ZM122.951 354H121.83V347H122.951V354ZM130.847 350.78H125.904C125.923 351.56 126.132 352.161 126.533 352.585C126.934 353.009 127.486 353.221 128.188 353.221C128.976 353.221 129.701 352.961 130.361 352.441V353.494C129.746 353.941 128.933 354.164 127.921 354.164C126.932 354.164 126.155 353.847 125.59 353.214C125.025 352.576 124.742 351.68 124.742 350.527C124.742 349.438 125.05 348.552 125.665 347.868C126.285 347.18 127.053 346.836 127.969 346.836C128.885 346.836 129.593 347.132 130.095 347.725C130.596 348.317 130.847 349.14 130.847 350.192V350.78ZM129.698 349.83C129.694 349.183 129.536 348.679 129.227 348.319C128.921 347.959 128.495 347.779 127.948 347.779C127.42 347.779 126.971 347.968 126.602 348.347C126.232 348.725 126.005 349.219 125.918 349.83H129.698ZM141.367 347L139.269 354H138.106L136.664 348.989C136.609 348.798 136.573 348.581 136.555 348.34H136.527C136.514 348.504 136.466 348.716 136.384 348.976L134.818 354H133.697L131.578 347H132.754L134.203 352.264C134.249 352.423 134.281 352.633 134.299 352.893H134.354C134.367 352.692 134.408 352.478 134.477 352.25L136.09 347H137.115L138.564 352.277C138.61 352.446 138.644 352.656 138.667 352.906H138.722C138.731 352.729 138.77 352.519 138.838 352.277L140.26 347H141.367ZM149.967 344.621C149.748 344.498 149.5 344.437 149.222 344.437C148.438 344.437 148.046 344.931 148.046 345.92V347H149.687V347.957H148.046V354H146.932V347.957H145.735V347H146.932V345.865C146.932 345.132 147.144 344.553 147.567 344.129C147.991 343.701 148.52 343.486 149.153 343.486C149.495 343.486 149.766 343.527 149.967 343.609V344.621ZM151.471 345.223C151.27 345.223 151.099 345.154 150.958 345.018C150.817 344.881 150.746 344.708 150.746 344.498C150.746 344.288 150.817 344.115 150.958 343.979C151.099 343.837 151.27 343.767 151.471 343.767C151.676 343.767 151.849 343.837 151.99 343.979C152.136 344.115 152.209 344.288 152.209 344.498C152.209 344.699 152.136 344.869 151.99 345.011C151.849 345.152 151.676 345.223 151.471 345.223ZM152.018 354H150.896V347H152.018V354ZM155.408 354H154.287V343.637H155.408V354ZM163.304 350.78H158.361C158.38 351.56 158.589 352.161 158.99 352.585C159.391 353.009 159.943 353.221 160.645 353.221C161.433 353.221 162.158 352.961 162.818 352.441V353.494C162.203 353.941 161.39 354.164 160.378 354.164C159.389 354.164 158.612 353.847 158.047 353.214C157.482 352.576 157.199 351.68 157.199 350.527C157.199 349.438 157.507 348.552 158.122 347.868C158.742 347.18 159.51 346.836 160.426 346.836C161.342 346.836 162.05 347.132 162.552 347.725C163.053 348.317 163.304 349.14 163.304 350.192V350.78ZM162.155 349.83C162.151 349.183 161.993 348.679 161.684 348.319C161.378 347.959 160.952 347.779 160.405 347.779C159.877 347.779 159.428 347.968 159.059 348.347C158.689 348.725 158.462 349.219 158.375 349.83H162.155ZM164.582 353.747V352.544C165.193 352.995 165.865 353.221 166.599 353.221C167.583 353.221 168.075 352.893 168.075 352.236C168.075 352.049 168.032 351.892 167.945 351.765C167.863 351.632 167.749 351.516 167.604 351.416C167.462 351.316 167.294 351.227 167.098 351.149C166.906 351.067 166.699 350.983 166.476 350.896C166.166 350.773 165.892 350.65 165.655 350.527C165.423 350.4 165.227 350.258 165.067 350.104C164.912 349.944 164.794 349.764 164.712 349.563C164.634 349.363 164.596 349.128 164.596 348.859C164.596 348.531 164.671 348.242 164.821 347.991C164.972 347.736 165.172 347.524 165.423 347.355C165.674 347.182 165.958 347.052 166.277 346.966C166.601 346.879 166.934 346.836 167.275 346.836C167.882 346.836 168.424 346.941 168.902 347.15V348.285C168.387 347.948 167.795 347.779 167.125 347.779C166.915 347.779 166.726 347.804 166.558 347.854C166.389 347.9 166.243 347.966 166.12 348.053C166.002 348.139 165.908 348.244 165.84 348.367C165.776 348.486 165.744 348.618 165.744 348.764C165.744 348.946 165.776 349.099 165.84 349.222C165.908 349.345 166.006 349.454 166.134 349.55C166.261 349.646 166.416 349.732 166.599 349.81C166.781 349.887 166.988 349.971 167.221 350.062C167.531 350.181 167.809 350.304 168.055 350.432C168.301 350.555 168.51 350.696 168.684 350.855C168.857 351.01 168.989 351.19 169.08 351.396C169.176 351.601 169.224 351.844 169.224 352.127C169.224 352.473 169.146 352.774 168.991 353.029C168.841 353.285 168.638 353.496 168.383 353.665C168.128 353.834 167.834 353.959 167.501 354.041C167.168 354.123 166.82 354.164 166.455 354.164C165.735 354.164 165.111 354.025 164.582 353.747ZM177.721 354.164C176.686 354.164 175.859 353.838 175.239 353.187C174.624 352.53 174.316 351.662 174.316 350.582C174.316 349.406 174.638 348.488 175.28 347.827C175.923 347.166 176.791 346.836 177.885 346.836C178.928 346.836 179.742 347.157 180.325 347.8C180.913 348.442 181.207 349.333 181.207 350.473C181.207 351.589 180.89 352.485 180.257 353.159C179.628 353.829 178.783 354.164 177.721 354.164ZM177.803 347.779C177.083 347.779 176.513 348.025 176.094 348.518C175.674 349.005 175.465 349.68 175.465 350.541C175.465 351.37 175.677 352.024 176.101 352.503C176.524 352.981 177.092 353.221 177.803 353.221C178.527 353.221 179.083 352.986 179.471 352.517C179.863 352.047 180.059 351.38 180.059 350.514C180.059 349.639 179.863 348.964 179.471 348.49C179.083 348.016 178.527 347.779 177.803 347.779ZM188.809 354H187.688V350.008C187.688 348.522 187.145 347.779 186.061 347.779C185.5 347.779 185.035 347.991 184.666 348.415C184.301 348.834 184.119 349.365 184.119 350.008V354H182.998V347H184.119V348.162H184.146C184.675 347.278 185.441 346.836 186.443 346.836C187.209 346.836 187.795 347.084 188.2 347.581C188.606 348.073 188.809 348.786 188.809 349.721V354ZM192.049 354H190.928V343.637H192.049V354ZM199.89 347L196.67 355.121C196.096 356.57 195.289 357.295 194.25 357.295C193.958 357.295 193.715 357.265 193.519 357.206V356.201C193.76 356.283 193.981 356.324 194.182 356.324C194.747 356.324 195.171 355.987 195.453 355.312L196.014 353.986L193.279 347H194.523L196.417 352.387C196.44 352.455 196.488 352.633 196.561 352.92H196.602C196.624 352.811 196.67 352.637 196.738 352.4L198.728 347H199.89Z" fill="#616161"/>
            <path d="M360 377C360 374.791 361.791 373 364 373H454C456.209 373 458 374.791 458 377V401C458 403.209 456.209 405 454 405H364C361.791 405 360 403.209 360 401V377Z" fill="#0F6CBD"/>
            <path d="M391.759 393.61V391.936C391.909 392.072 392.087 392.195 392.292 392.305C392.502 392.414 392.723 392.507 392.955 392.585C393.188 392.658 393.42 392.715 393.652 392.756C393.885 392.797 394.099 392.817 394.295 392.817C394.979 392.817 395.487 392.703 395.819 392.476C396.157 392.248 396.325 391.917 396.325 391.484C396.325 391.252 396.268 391.051 396.154 390.883C396.045 390.71 395.89 390.552 395.689 390.411C395.489 390.27 395.252 390.135 394.979 390.008C394.71 389.876 394.42 389.739 394.11 389.598C393.778 389.42 393.468 389.24 393.181 389.058C392.894 388.875 392.643 388.675 392.429 388.456C392.219 388.233 392.053 387.982 391.93 387.704C391.811 387.426 391.752 387.1 391.752 386.727C391.752 386.266 391.854 385.868 392.06 385.53C392.269 385.188 392.543 384.908 392.88 384.689C393.222 384.466 393.609 384.302 394.042 384.197C394.475 384.088 394.917 384.033 395.368 384.033C396.394 384.033 397.141 384.149 397.61 384.382V385.988C397.054 385.587 396.339 385.387 395.464 385.387C395.222 385.387 394.981 385.41 394.739 385.455C394.502 385.501 394.288 385.576 394.097 385.681C393.91 385.785 393.757 385.92 393.639 386.084C393.52 386.248 393.461 386.446 393.461 386.679C393.461 386.897 393.507 387.087 393.598 387.246C393.689 387.406 393.821 387.551 393.994 387.684C394.172 387.816 394.386 387.946 394.637 388.073C394.892 388.196 395.186 388.331 395.519 388.477C395.86 388.654 396.182 388.841 396.482 389.037C396.788 389.233 397.054 389.45 397.282 389.687C397.515 389.924 397.697 390.188 397.829 390.479C397.966 390.767 398.034 391.095 398.034 391.464C398.034 391.961 397.934 392.38 397.733 392.722C397.533 393.063 397.262 393.341 396.92 393.556C396.583 393.77 396.193 393.925 395.751 394.021C395.309 394.116 394.842 394.164 394.35 394.164C394.186 394.164 393.983 394.15 393.741 394.123C393.504 394.1 393.26 394.064 393.01 394.014C392.759 393.968 392.522 393.911 392.299 393.843C392.076 393.774 391.896 393.697 391.759 393.61ZM405.882 394H404.296V390.172C404.296 388.786 403.833 388.094 402.908 388.094C402.443 388.094 402.051 388.294 401.732 388.695C401.413 389.096 401.254 389.609 401.254 390.233V394H399.661V383.637H401.254V388.162H401.281C401.81 387.278 402.566 386.836 403.551 386.836C405.105 386.836 405.882 387.786 405.882 389.687V394ZM413.183 394H411.645V392.906H411.617C411.134 393.745 410.425 394.164 409.491 394.164C408.803 394.164 408.263 393.977 407.871 393.604C407.484 393.23 407.29 392.735 407.29 392.12C407.29 390.799 408.051 390.028 409.573 389.81L411.651 389.516C411.651 388.518 411.177 388.019 410.229 388.019C409.396 388.019 408.644 388.306 407.974 388.88V387.492C408.712 387.055 409.564 386.836 410.53 386.836C412.299 386.836 413.183 387.706 413.183 389.447V394ZM411.651 390.562L410.182 390.767C409.726 390.826 409.382 390.938 409.149 391.102C408.922 391.261 408.808 391.544 408.808 391.949C408.808 392.245 408.912 392.489 409.122 392.681C409.336 392.868 409.621 392.961 409.977 392.961C410.46 392.961 410.858 392.792 411.173 392.455C411.492 392.113 411.651 391.685 411.651 391.17V390.562ZM419.185 388.511C418.993 388.36 418.717 388.285 418.357 388.285C417.888 388.285 417.496 388.497 417.182 388.921C416.867 389.345 416.71 389.921 416.71 390.65V394H415.124V387H416.71V388.442H416.737C416.892 387.95 417.129 387.567 417.448 387.294C417.772 387.016 418.132 386.877 418.528 386.877C418.815 386.877 419.034 386.92 419.185 387.007V388.511ZM426.232 390.931H421.461C421.479 391.578 421.677 392.077 422.056 392.428C422.438 392.779 422.963 392.954 423.628 392.954C424.375 392.954 425.061 392.731 425.686 392.284V393.562C425.048 393.964 424.204 394.164 423.156 394.164C422.126 394.164 421.317 393.847 420.729 393.214C420.146 392.576 419.854 391.68 419.854 390.527C419.854 389.438 420.176 388.552 420.818 387.868C421.465 387.18 422.268 386.836 423.225 386.836C424.182 386.836 424.922 387.144 425.446 387.759C425.97 388.374 426.232 389.229 426.232 390.322V390.931ZM424.701 389.81C424.697 389.24 424.562 388.798 424.298 388.483C424.034 388.164 423.669 388.005 423.204 388.005C422.748 388.005 422.361 388.171 422.042 388.504C421.728 388.837 421.534 389.272 421.461 389.81H424.701Z" fill="white"/>
            <path d="M466.5 377C466.5 375.067 468.067 373.5 470 373.5H528C529.933 373.5 531.5 375.067 531.5 377V401C531.5 402.933 529.933 404.5 528 404.5H470C468.067 404.5 466.5 402.933 466.5 401V377Z" stroke="#D1D1D1"/>
            <path d="M486.046 393.59C485.308 393.973 484.389 394.164 483.291 394.164C481.869 394.164 480.73 393.715 479.873 392.817C479.016 391.92 478.588 390.742 478.588 389.283C478.588 387.715 479.069 386.449 480.03 385.482C480.996 384.516 482.215 384.033 483.688 384.033C484.635 384.033 485.422 384.168 486.046 384.437V386.05C485.385 385.658 484.656 385.462 483.858 385.462C482.797 385.462 481.935 385.801 481.274 386.48C480.618 387.16 480.29 388.066 480.29 389.201C480.29 390.281 480.598 391.143 481.213 391.785C481.828 392.423 482.637 392.742 483.64 392.742C484.565 392.742 485.367 392.523 486.046 392.086V393.59ZM493.101 394H491.562V392.906H491.535C491.052 393.745 490.343 394.164 489.409 394.164C488.721 394.164 488.181 393.977 487.789 393.604C487.402 393.23 487.208 392.735 487.208 392.12C487.208 390.799 487.969 390.028 489.491 389.81L491.569 389.516C491.569 388.518 491.095 388.019 490.147 388.019C489.313 388.019 488.562 388.306 487.892 388.88V387.492C488.63 387.055 489.482 386.836 490.448 386.836C492.216 386.836 493.101 387.706 493.101 389.447V394ZM491.569 390.562L490.1 390.767C489.644 390.826 489.3 390.938 489.067 391.102C488.84 391.261 488.726 391.544 488.726 391.949C488.726 392.245 488.83 392.489 489.04 392.681C489.254 392.868 489.539 392.961 489.895 392.961C490.378 392.961 490.776 392.792 491.091 392.455C491.41 392.113 491.569 391.685 491.569 391.17V390.562ZM501.276 394H499.69V390.056C499.69 388.748 499.228 388.094 498.303 388.094C497.82 388.094 497.421 388.276 497.106 388.641C496.792 389.001 496.635 389.456 496.635 390.008V394H495.042V387H496.635V388.162H496.662C497.186 387.278 497.943 386.836 498.932 386.836C499.693 386.836 500.274 387.084 500.675 387.581C501.076 388.073 501.276 388.786 501.276 389.721V394ZM508.229 393.679C507.668 394.002 507.005 394.164 506.239 394.164C505.2 394.164 504.362 393.84 503.724 393.193C503.086 392.542 502.767 391.699 502.767 390.664C502.767 389.511 503.108 388.586 503.792 387.889C504.48 387.187 505.398 386.836 506.547 386.836C507.185 386.836 507.748 386.948 508.235 387.171V388.647C507.748 388.283 507.228 388.101 506.677 388.101C506.007 388.101 505.458 388.328 505.029 388.784C504.601 389.235 504.387 389.828 504.387 390.562C504.387 391.286 504.587 391.858 504.988 392.277C505.394 392.697 505.936 392.906 506.615 392.906C507.185 392.906 507.723 392.703 508.229 392.298V393.679ZM515.734 390.931H510.963C510.981 391.578 511.179 392.077 511.558 392.428C511.94 392.779 512.465 392.954 513.13 392.954C513.877 392.954 514.563 392.731 515.188 392.284V393.562C514.549 393.964 513.706 394.164 512.658 394.164C511.628 394.164 510.819 393.847 510.231 393.214C509.648 392.576 509.356 391.68 509.356 390.527C509.356 389.438 509.678 388.552 510.32 387.868C510.967 387.18 511.77 386.836 512.727 386.836C513.684 386.836 514.424 387.144 514.948 387.759C515.472 388.374 515.734 389.229 515.734 390.322V390.931ZM514.203 389.81C514.199 389.24 514.064 388.798 513.8 388.483C513.535 388.164 513.171 388.005 512.706 388.005C512.25 388.005 511.863 388.171 511.544 388.504C511.229 388.837 511.036 389.272 510.963 389.81H514.203ZM518.838 394H517.245V383.637H518.838V394Z" fill="#242424"/>
        </g>
    </g>
    <defs>
        <filter id="filter0_dd_6450_61727" x="-12" y="125" width="632" height="400" filterUnits="userSpaceOnUse" color-interpolation-filters="sRGB">
            <feFlood flood-opacity="0" result="BackgroundImageFix"/>
            <feColorMatrix in="SourceAlpha" type="matrix" values="0 0 0 0 0 0 0 0 0 0 0 0 0 0 0 0 0 0 127 0" result="hardAlpha"/>
            <feOffset/>
            <feGaussianBlur stdDeviation="4"/>
            <feComposite in2="hardAlpha" operator="out"/>
            <feColorMatrix type="matrix" values="0 0 0 0 0 0 0 0 0 0 0 0 0 0 0 0 0 0 0.2 0"/>
            <feBlend mode="normal" in2="BackgroundImageFix" result="effect1_dropShadow_6450_61727"/>
            <feColorMatrix in="SourceAlpha" type="matrix" values="0 0 0 0 0 0 0 0 0 0 0 0 0 0 0 0 0 0 127 0" result="hardAlpha"/>
            <feOffset dy="32"/>
            <feGaussianBlur stdDeviation="32"/>
            <feComposite in2="hardAlpha" operator="out"/>
            <feColorMatrix type="matrix" values="0 0 0 0 0 0 0 0 0 0 0 0 0 0 0 0 0 0 0.24 0"/>
            <feBlend mode="normal" in2="effect1_dropShadow_6450_61727" result="effect2_dropShadow_6450_61727"/>
            <feBlend mode="normal" in="SourceGraphic" in2="effect2_dropShadow_6450_61727" result="shape"/>
        </filter>
        <clipPath id="clip0_6450_61727">
            <rect width="608" height="587" fill="white"/>
        </clipPath>
        <clipPath id="clip1_6450_61727">
            <path d="M76 225C76 222.791 77.7909 221 80 221H528C530.209 221 532 222.791 532 225V261C532 263.209 530.209 265 528 265H80C77.7909 265 76 263.209 76 261V225Z" fill="white"/>
        </clipPath>
    </defs>
</svg>
