<svg width="53" height="15" viewBox="0 0 53 15" fill="none" xmlns="http://www.w3.org/2000/svg">
<path d="M0.78 14.66C0.593333 14.66 0.5 14.5133 0.5 14.22C0.5 14.0867 0.526667 13.9667 0.58 13.86C1.08667 12.7 1.80667 11.4 2.74 9.96L4.54 7.52L4.98 6.92L4.4 5.7C4.12 5.11333 3.92667 4.72667 3.82 4.54C3.60667 4.18 3.38667 3.86667 3.16 3.6C3.02667 3.44 2.86667 3.30667 2.68 3.2C2.50667 3.08 2.35333 2.96667 2.22 2.86C2.08667 2.75333 2.02 2.62 2.02 2.46C2.02 2.31333 2.05333 2.17333 2.12 2.04C2.2 1.90667 2.28667 1.84 2.38 1.84C2.43333 1.84 2.48 1.86 2.52 1.9C2.62667 1.98 2.76667 2.09333 2.94 2.24C3.11333 2.38667 3.31333 2.56667 3.54 2.78H3.58C4.06 3.34 4.52667 4.08667 4.98 5.02C5.04667 5.15333 5.12 5.32 5.2 5.52C5.29333 5.70667 5.40667 5.92667 5.54 6.18C5.58 6.14 5.60667 6.08 5.62 6C5.75333 5.81333 5.92667 5.56667 6.14 5.26C6.35333 4.95333 6.61333 4.59333 6.92 4.18C7.22667 3.75333 7.66667 3.11333 8.24 2.26C8.48 1.87333 8.78 1.41333 9.14 0.88C9.20667 0.773333 9.28 0.719999 9.36 0.719999C9.57333 0.719999 9.68 0.92 9.68 1.32C9.68 1.45333 9.64667 1.58667 9.58 1.72C9.5 1.85333 8.76 2.91333 7.36 4.9L6.08 6.74V6.78C6.02667 6.83333 5.96 6.92 5.88 7.04C5.90667 7.10667 5.93333 7.18 5.96 7.26C5.98667 7.34 6.01333 7.42667 6.04 7.52C6.13333 7.72 6.24667 7.99333 6.38 8.34C6.51333 8.67333 6.66667 9.08667 6.84 9.58C6.92 9.99333 7.08 10.5467 7.32 11.24C7.50667 11.56 7.70667 11.9133 7.92 12.3C8.13333 12.6867 8.36667 13.1133 8.62 13.58C8.64667 13.66 8.66 13.7267 8.66 13.78C8.66 14.14 8.52 14.32 8.24 14.32C8.14667 14.32 8.06 14.2733 7.98 14.18L7.46 13.48C7.39333 13.36 7.16 12.8267 6.76 11.88C6.70667 11.7467 6.65333 11.6067 6.6 11.46C6.56 11.3 6.52 11.1267 6.48 10.94C6.42667 10.7133 6.38 10.5267 6.34 10.38C6.31333 10.22 6.28667 10.1133 6.26 10.06L5.46 8.08C5.44667 8.06667 5.42667 8.03333 5.4 7.98C5.38667 7.91333 5.35333 7.82667 5.3 7.72L4.9 8.24C4.63333 8.58667 4.36 8.96 4.08 9.36C3.8 9.76 3.51333 10.18 3.22 10.62C3.06 10.8333 2.86 11.1267 2.62 11.5C2.38 11.8733 2.10667 12.32 1.8 12.84L1.06 14.42C0.98 14.58 0.886667 14.66 0.78 14.66ZM11.9355 14.64C11.6821 14.64 11.5821 14.42 11.6355 13.98L11.9355 12.28C11.9755 12.1067 12.0221 11.8933 12.0755 11.64C12.1421 11.3733 12.2088 11.0667 12.2755 10.72C12.3021 10.4133 12.3488 10.02 12.4155 9.54C12.4821 9.04667 12.5621 8.45333 12.6555 7.76L12.9755 5.86C13.0421 5.63333 13.1221 5.34 13.2155 4.98C13.3088 4.60667 13.4155 4.17333 13.5355 3.68C13.6155 3.28 13.7621 3.14 13.9755 3.26L13.8755 2.5C13.8088 2.26 13.7555 2.04 13.7155 1.84C13.6755 1.62667 13.6421 1.43333 13.6155 1.26C13.6021 1.22 13.5955 1.14667 13.5955 1.04C13.5955 0.719999 13.7021 0.559999 13.9155 0.559999C14.0221 0.559999 14.1021 0.646666 14.1555 0.819999C14.2088 0.993333 14.2621 1.19333 14.3155 1.42C14.3688 1.63333 14.4221 1.87333 14.4755 2.14C14.5555 2.51333 14.6155 2.96 14.6555 3.48C14.6821 3.78667 14.7021 4.04 14.7155 4.24C14.7421 4.44 14.7621 4.59333 14.7755 4.7C14.8421 5.16667 14.9021 5.56 14.9555 5.88C15.0088 6.18667 15.0621 6.42667 15.1155 6.6C15.2888 7.24 15.5955 7.8 16.0355 8.28L16.3355 8.66C16.9755 7.94 17.4555 7.38 17.7755 6.98C17.9221 6.80667 18.0955 6.58667 18.2955 6.32C18.5088 6.04 18.7621 5.70667 19.0555 5.32C19.2155 5.06667 19.5421 4.43333 20.0355 3.42L20.0555 3.4C20.0821 3.4 20.1421 3.28 20.2355 3.04C20.3421 2.73333 20.4488 2.52667 20.5555 2.42L20.4955 2.4C20.6421 2.29333 20.7621 2.24 20.8555 2.24C21.0155 2.24 21.1955 2.48667 21.3955 2.98C21.4888 3.18 21.5355 3.42 21.5355 3.7C21.5355 3.79333 21.5221 3.90667 21.4955 4.04C21.4821 4.17333 21.4621 4.32 21.4355 4.48C21.4088 4.64 21.3821 4.77333 21.3555 4.88C21.3421 4.98667 21.3355 5.06667 21.3355 5.12V5.14C21.3355 5.32667 21.3221 5.63333 21.2955 6.06C21.2688 6.48667 21.2288 7.03333 21.1755 7.7C21.1488 7.82 21.1155 8.11333 21.0755 8.58C21.0355 9.04667 20.9955 9.68667 20.9555 10.5C20.9421 10.7533 20.9288 10.9867 20.9155 11.2C20.9155 11.4 20.9155 11.5867 20.9155 11.76C20.9155 11.9333 20.9155 12.08 20.9155 12.2C20.9288 12.32 20.9421 12.42 20.9555 12.5L21.0955 13.34C21.1088 13.38 21.1155 13.4333 21.1155 13.5C21.1155 13.7667 20.9688 13.9 20.6755 13.9C20.5688 13.9 20.5021 13.86 20.4755 13.78C20.4488 13.6733 20.4221 13.54 20.3955 13.38C20.3688 13.22 20.3421 13.0267 20.3155 12.8C20.2755 11.9733 20.2555 11.34 20.2555 10.9C20.2555 10.6867 20.2755 10.3067 20.3155 9.76C20.3555 9.21333 20.4288 8.5 20.5355 7.62C20.5488 7.38 20.5621 7.06 20.5755 6.66C20.6021 6.24667 20.6355 5.75333 20.6755 5.18L20.8355 3.52C20.8221 3.49333 20.8088 3.47333 20.7955 3.46C20.7821 3.44667 20.7688 3.43333 20.7555 3.42C20.7288 3.42 20.6688 3.60667 20.5755 3.98H20.5555C20.3821 4.31333 20.2021 4.64667 20.0155 4.98C19.8421 5.3 19.6621 5.62 19.4755 5.94C19.1688 6.46 18.7221 7.05333 18.1355 7.72L17.2155 8.86C16.7888 9.36667 16.4955 9.62 16.3355 9.62C16.1755 9.62 16.0288 9.55333 15.8955 9.42L15.6355 9.16L15.5555 9.06C15.1421 8.55333 14.8155 7.98667 14.5755 7.36C14.5221 7.2 14.4688 7.02667 14.4155 6.84C14.3755 6.64 14.3421 6.43333 14.3155 6.22C14.2621 5.82 14.2088 5.42 14.1555 5.02C14.1021 4.60667 14.0755 4.36667 14.0755 4.3C14.0221 4.47333 13.9621 4.70667 13.8955 5C13.8421 5.29333 13.7688 5.64 13.6755 6.04C13.6355 6.28 13.5755 6.58667 13.4955 6.96C13.4555 7.13333 13.4221 7.3 13.3955 7.46C13.3688 7.60667 13.3421 7.73333 13.3155 7.84H13.2755C13.2488 8.14667 13.2021 8.55333 13.1355 9.06C13.0821 9.56667 13.0088 10.1733 12.9155 10.88C12.8755 11.0533 12.8221 11.2733 12.7555 11.54C12.7021 11.8067 12.6421 12.1267 12.5755 12.5C12.5221 12.8333 12.4221 13.3933 12.2755 14.18H12.2555C12.2155 14.4867 12.1088 14.64 11.9355 14.64ZM25.1309 14.42C24.9443 14.42 24.8576 14.34 24.8709 14.18C24.8176 14.1 24.7376 13.92 24.6309 13.64V13.66C24.6309 13.74 24.6243 13.7333 24.6109 13.64C24.5976 13.5333 24.5843 13.4 24.5709 13.24C24.5576 13.08 24.5509 12.9533 24.5509 12.86L24.7109 11.26C24.7776 10.7 24.8776 10.1333 25.0109 9.56L25.4109 7.98C25.5976 7.27333 25.8776 6.13333 26.2509 4.56C26.2776 4.29333 26.3243 3.94 26.3909 3.5C26.4709 3.06 26.5576 2.53333 26.6509 1.92C26.7043 1.58667 26.8509 1.42 27.0909 1.42C27.2909 1.42 27.3909 1.58667 27.3909 1.92V1.94C27.3909 2.23333 27.3376 2.62 27.2309 3.1C27.1376 3.56667 27.0376 4.13333 26.9309 4.8C26.8776 5.05333 26.8109 5.32667 26.7309 5.62C26.6643 5.9 26.5776 6.20667 26.4709 6.54C26.3643 6.88667 26.2709 7.2 26.1909 7.48C26.1109 7.76 26.0509 7.99333 26.0109 8.18C25.9309 8.5 25.8376 8.92 25.7309 9.44C25.6376 9.96 25.5243 10.58 25.3909 11.3C25.3509 11.6467 25.3176 11.9533 25.2909 12.22C25.2643 12.4733 25.2509 12.6867 25.2509 12.86C25.2509 12.94 25.2509 13.0133 25.2509 13.08C25.2643 13.1333 25.2776 13.18 25.2909 13.22C25.2909 13.1933 25.3576 13.3067 25.4909 13.56C25.6643 13.48 26.0176 13.4 26.5509 13.32L27.2309 13.34C27.4043 13.3533 27.5443 13.3667 27.6509 13.38C27.7709 13.3933 27.8576 13.4 27.9109 13.4H27.9709C28.1309 13.4 28.3309 13.36 28.5709 13.28C28.7043 13.2267 28.8176 13.1933 28.9109 13.18C29.0176 13.1533 29.0976 13.1333 29.1509 13.12C30.0576 13 30.6709 12.8267 30.9909 12.6C31.0976 12.5067 31.1976 12.46 31.2909 12.46C31.4243 12.46 31.4909 12.5733 31.4909 12.8C31.4909 13.2 31.3909 13.48 31.1909 13.64C31.1243 13.6933 31.0309 13.7467 30.9109 13.8C30.8043 13.84 30.6709 13.8733 30.5109 13.9L29.2109 14.18C28.9176 14.2333 28.6576 14.28 28.4309 14.32C28.2043 14.3733 28.0043 14.4 27.8309 14.4C27.7376 14.4 27.6376 14.3933 27.5309 14.38C27.4243 14.38 27.3043 14.3733 27.1709 14.36C26.8776 14.32 26.6576 14.3 26.5109 14.3C26.2176 14.2733 25.7576 14.3133 25.1309 14.42Z" fill="#DA020F"/>
<path d="M42.5108 0.69363H45.3318V9.30839C45.3453 10.7846 44.8498 11.971 43.8455 12.8675C42.8411 13.7641 41.4963 14.2022 39.8111 14.182C38.0922 14.182 36.7609 13.7438 35.8171 12.8675C34.8802 11.9845 34.4117 10.7846 34.4117 9.26795V0.69363H37.2226V8.84328C37.2226 9.88136 37.4282 10.6363 37.8394 11.1082C38.2573 11.58 38.9314 11.816 39.8616 11.816C40.7986 11.816 41.4727 11.5767 41.8839 11.0981C42.3018 10.6195 42.5108 9.86114 42.5108 8.82305V0.69363ZM52.4057 14H49.5847V0.69363H52.4057V14Z" fill="black"/>
</svg>
