<svg id="Layer_1" data-name="Layer 1" xmlns="http://www.w3.org/2000/svg" xmlns:xlink="http://www.w3.org/1999/xlink" viewBox="0 0 132.02 36.04"><defs><style>.cls-1{fill:none;}.cls-2{fill:#6b6b6b;}.cls-3{fill:url(#linear-gradient);}.cls-4{fill:url(#linear-gradient-2);}.cls-5{opacity:0.7;}.cls-6{clip-path:url(#clip-path);}.cls-7{fill:url(#linear-gradient-3);}.cls-8{fill:#fff;}.cls-9{fill:#fec761;}.cls-10{clip-path:url(#clip-path-2);}</style><linearGradient id="linear-gradient" x1="3.73" y1="-625.23" x2="20.01" y2="-641.51" gradientTransform="matrix(1, 0, 0, -1, 0, -620.25)" gradientUnits="userSpaceOnUse"><stop offset="0" stop-color="#982723"/><stop offset="1" stop-color="#c32c28"/></linearGradient><linearGradient id="linear-gradient-2" x1="4" y1="-625.41" x2="19.64" y2="-641.05" gradientTransform="matrix(1, 0, 0, -1, 0, -620.25)" gradientUnits="userSpaceOnUse"><stop offset="0" stop-color="#8f221e"/><stop offset="0.18" stop-color="#ae2221"/><stop offset="0.37" stop-color="#c72324"/><stop offset="0.56" stop-color="#da2326"/><stop offset="0.77" stop-color="#e42328"/><stop offset="1" stop-color="#e82328"/></linearGradient><clipPath id="clip-path"><polygon class="cls-1" points="9.05 -1.53 3.46 14.01 28.26 18.06 25.75 1.02 9.05 -1.53"/></clipPath><linearGradient id="linear-gradient-3" x1="72.53" y1="-721.37" x2="69.52" y2="-710.87" gradientTransform="matrix(1, 0.04, 0.04, -1, -27.57, -709.44)" gradientUnits="userSpaceOnUse"><stop offset="0" stop-color="#f26c44"/><stop offset="0.37" stop-color="#dd503a"/><stop offset="0.76" stop-color="#cc3732"/><stop offset="1" stop-color="#c52e2f"/></linearGradient><clipPath id="clip-path-2"><ellipse class="cls-1" cx="11.89" cy="13.14" rx="11.51" ry="11.54"/></clipPath></defs><title>Artboard 2</title><path class="cls-2" d="M106.18,25.09h1.87v1.07h0a2.64,2.64,0,0,1,.89-.9,2.72,2.72,0,0,1,1.44-.34,3.12,3.12,0,0,1,1.46.32,2.64,2.64,0,0,1,1,.86,3.77,3.77,0,0,1,.54,1.24,7,7,0,0,1,0,3,3.8,3.8,0,0,1-.55,1.26,2.69,2.69,0,0,1-1,.87,3.1,3.1,0,0,1-1.49.33,3.31,3.31,0,0,1-1.15-.2,2.69,2.69,0,0,1-1-.83h0v3.92h-2Zm2.92,1.57a1.7,1.7,0,0,0-.55.58,2.76,2.76,0,0,0-.31.77,3.86,3.86,0,0,0-.09.81,4,4,0,0,0,.09.83,2.5,2.5,0,0,0,.28.78,1.67,1.67,0,0,0,.53.59,1.39,1.39,0,0,0,.82.24,1.29,1.29,0,0,0,.8-.24,1.6,1.6,0,0,0,.5-.59,3.05,3.05,0,0,0,.26-.79,3.86,3.86,0,0,0,.08-.82,4.56,4.56,0,0,0-.07-.8,2.41,2.41,0,0,0-.26-.77,1.75,1.75,0,0,0-.5-.58,1.21,1.21,0,0,0-.78-.24A1.4,1.4,0,0,0,109.1,26.66Z"/><path class="cls-2" d="M115.14,25.09h1.73V26.8h0a1.75,1.75,0,0,1,.19-.59,2.26,2.26,0,0,1,.43-.61,2.5,2.5,0,0,1,.63-.48,1.58,1.58,0,0,1,.8-.2h.29a1.18,1.18,0,0,1,.31.05v2a1.66,1.66,0,0,0-.37-.11,2.73,2.73,0,0,0-.5,0,1.22,1.22,0,0,0-.92.33,2.07,2.07,0,0,0-.47.8,3.68,3.68,0,0,0-.18,1c0,.35,0,.66,0,.93V32.6h-2Z"/><path class="cls-2" d="M120.73,21.86h2v1.86h-2Zm0,3.23h2V32.6h-2Z"/><path class="cls-2" d="M123.85,25.09H126l1.86,5.47h0l1.81-5.47h1.95l-2.77,7.51h-2.2Z"/><path d="M28.84,19.35V16.19a8.79,8.79,0,0,0,1.93.87,6.21,6.21,0,0,0,1.81.28,3.91,3.91,0,0,0,1.65-.29.94.94,0,0,0,.6-.88.78.78,0,0,0-.28-.61,3.36,3.36,0,0,0-.69-.44,8.07,8.07,0,0,0-.94-.33,12.65,12.65,0,0,1-2.32-1,3.4,3.4,0,0,1-1-.76,3,3,0,0,1-.6-1,4.33,4.33,0,0,1-.21-1.35,3.58,3.58,0,0,1,.47-1.84,3.74,3.74,0,0,1,1.24-1.26,6,6,0,0,1,1.78-.73,10.27,10.27,0,0,1,2.08-.22,12.08,12.08,0,0,1,1.71.12,12.42,12.42,0,0,1,1.71.38v3a6,6,0,0,0-1.6-.64,6.25,6.25,0,0,0-1.66-.21,3.5,3.5,0,0,0-.72.06,2.47,2.47,0,0,0-.6.19,1.14,1.14,0,0,0-.41.34.82.82,0,0,0-.14.47.86.86,0,0,0,.23.6,2,2,0,0,0,.58.43,4.65,4.65,0,0,0,.8.33l.88.29a13.31,13.31,0,0,1,1.42.59,4.79,4.79,0,0,1,1.08.76,3.12,3.12,0,0,1,.69,1,4.12,4.12,0,0,1-.24,3.33,3.88,3.88,0,0,1-1.31,1.3,5.57,5.57,0,0,1-1.87.73,10.28,10.28,0,0,1-2.2.23A11.15,11.15,0,0,1,28.84,19.35Z"/><path d="M46.55,20a6.89,6.89,0,0,1-5-1.78,6.43,6.43,0,0,1-1.82-4.84,6.49,6.49,0,0,1,1.89-4.94,7.1,7.1,0,0,1,5.1-1.77,6.8,6.8,0,0,1,5,1.77,6.28,6.28,0,0,1,1.79,4.71,6.68,6.68,0,0,1-1.86,5A6.82,6.82,0,0,1,46.55,20Zm.09-10.33a2.65,2.65,0,0,0-2.16.95,4.15,4.15,0,0,0-.78,2.71c0,2.44,1,3.67,3,3.67s2.82-1.26,2.82-3.76-.93-3.57-2.84-3.57Z"/><path d="M63.43,3.87A3.83,3.83,0,0,0,62,3.58c-1.26,0-1.89.68-1.89,2.05V7H63V9.88h-2.9v9.81H56.18V9.88H54.05V7h2.13V5.41A4.57,4.57,0,0,1,57.6,1.9,5.41,5.41,0,0,1,61.44.58a6.66,6.66,0,0,1,2,.24Z"/><path d="M73.87,19.55a6.14,6.14,0,0,1-2.61.47c-2.76,0-4.15-1.44-4.15-4.31V9.88H65V7h2.07V4.24L71,3.13V7h2.85V9.88H71V15c0,1.32.53,2,1.58,2a2.67,2.67,0,0,0,1.27-.36Z"/><path d="M95.46,7,91.79,19.71H87.68L85.8,12.27a8.18,8.18,0,0,1-.21-1.63h-.08a10.58,10.58,0,0,1-.24,1.58l-2,7.49H79.19L75.6,7h4l1.75,8.28a9.69,9.69,0,0,1,.19,1.42h.08a7.37,7.37,0,0,1,.23-1.47L84,7h3.73l2,8.3a13.8,13.8,0,0,1,.17,1.44H90c0-.49.12-1,.2-1.44L91.82,7l3.64,0Z"/><path d="M108.08,19.69h-3.71V17.87h-.05A4.16,4.16,0,0,1,100.53,20,4,4,0,0,1,97.62,19a3.73,3.73,0,0,1-1.07-2.79c0-2.47,1.46-3.89,4.39-4.28l3.46-.45c0-1.39-.76-2.08-2.26-2.08a7.78,7.78,0,0,0-4.33,1.35v-3A9.9,9.9,0,0,1,100,7a11.18,11.18,0,0,1,2.58-.32c3.64,0,5.46,1.8,5.46,5.42v7.6Zm-3.68-5.16v-.86l-2.31.31c-1.27.16-1.92.74-1.92,1.73a1.38,1.38,0,0,0,.47,1.09,1.73,1.73,0,0,0,1.26.42,2.4,2.4,0,0,0,1.81-.76,2.88,2.88,0,0,0,.69-1.93Z"/><path d="M119,10.52a3.5,3.5,0,0,0-1.64-.38,2.38,2.38,0,0,0-2,.93,4.09,4.09,0,0,0-.72,2.55v6.07h-3.93V7h3.93V9.35h0A3.38,3.38,0,0,1,118,6.76a2.44,2.44,0,0,1,1,.15v3.61Z"/><path d="M131.6,14.46h-8.3q.2,2.76,3.49,2.76a6.89,6.89,0,0,0,3.68-1v2.82a9.7,9.7,0,0,1-4.59.94,6.42,6.42,0,0,1-4.77-1.71,6.49,6.49,0,0,1-1.7-4.76,6.79,6.79,0,0,1,1.84-5,6.19,6.19,0,0,1,4.52-1.86,5.58,5.58,0,0,1,4.31,1.65,6.3,6.3,0,0,1,1.52,4.48v1.68ZM128,12c0-1.82-.75-2.73-2.21-2.73a2.11,2.11,0,0,0-1.63.78,3.58,3.58,0,0,0-.84,1.95Z"/><circle class="cls-3" cx="11.87" cy="13.12" r="11.51"/><circle class="cls-4" cx="11.82" cy="12.98" r="11.06"/><g class="cls-5"><g class="cls-6"><path class="cls-7" d="M15.1,14.11a23.36,23.36,0,0,0,7.28-.78A10.83,10.83,0,0,0,2.48,6.91c0,.09,0,.19,0,.27C2.3,10.7,8,13.8,15.1,14.11Z"/></g></g><path class="cls-8" d="M18.72,10.91a2.73,2.73,0,0,0,.09-.9A2.19,2.19,0,0,0,17,8.18a1.48,1.48,0,0,0-.85.16,12.08,12.08,0,0,0-2.68,2.1c-.31.31-1.39,1.39-2.17,2.31a24.71,24.71,0,0,0,1.09-4.16.18.18,0,0,0,0-.13,2.16,2.16,0,0,0-1.52-.76,2,2,0,0,0-1.58.43.32.32,0,0,0-.11.18,43,43,0,0,1-1,4.65,27.65,27.65,0,0,1-1.63,4.81.26.26,0,0,0,0,.21c.08.16.13.55.95.89a3.26,3.26,0,0,0,1.23.19.25.25,0,0,0,.16,0,13.36,13.36,0,0,0,2.42-1.87,48.36,48.36,0,0,0,4.09-4.63l-.15.66a11.53,11.53,0,0,0-.35,2.6v.11a6.47,6.47,0,0,0,.45,2.17A6,6,0,0,0,16,19.37a.32.32,0,0,0,.18.11,2.54,2.54,0,0,0,2.49-1c0-.07-.1-.34-.18-.46a4.05,4.05,0,0,1-.66-1.9A9,9,0,0,1,18.12,14C18.26,13.24,18.64,11.31,18.72,10.91Z"/><path class="cls-9" d="M3.49,19.74a12.09,12.09,0,0,0,8.33,4,10.71,10.71,0,0,0,8.33-4A14.4,14.4,0,0,1,3.49,19.74Z"/><g class="cls-10"><path class="cls-8" d="M6.21,11.14c.9-3.65,2-8.51,2-9.24l-.08,0A.28.28,0,0,1,8,2a11.08,11.08,0,0,0-2.9,1.55c-.63,2.88-.71,3.54-1.63,6.83s-1.31,4.18-2.33,7.25a12.41,12.41,0,0,0,1.86,3A67.35,67.35,0,0,0,6.21,11.14Z"/></g><path class="cls-9" d="M3.41,19.74a12.09,12.09,0,0,0,8.33,4,10.71,10.71,0,0,0,8.33-4A14.4,14.4,0,0,1,3.41,19.74Z"/><path class="cls-8" d="M6.25,11.09c.91-3.67,2-8.23,2-9A8.78,8.78,0,0,0,5,3.86C4.37,6.75,4.41,7,3.48,10.33s-1.26,4-2.29,7.1a10.06,10.06,0,0,0,1.87,3.13A70,70,0,0,0,6.25,11.09Z"/></svg>