<svg width="252" height="24" viewBox="0 0 252 24" fill="none" xmlns="http://www.w3.org/2000/svg">
<path d="M14.396 12.6932V19H11.3705V8.09091H14.254V10.0156H14.3818C14.6233 9.38116 15.0281 8.87926 15.5963 8.50994C16.1645 8.13589 16.8534 7.94886 17.6631 7.94886C18.4207 7.94886 19.0812 8.11458 19.6446 8.44602C20.2081 8.77746 20.646 9.25095 20.9585 9.86648C21.271 10.4773 21.4273 11.2064 21.4273 12.054V19H18.4017V12.5938C18.4065 11.9261 18.236 11.4053 17.8904 11.0312C17.5447 10.6525 17.0689 10.4631 16.4628 10.4631C16.0556 10.4631 15.6958 10.5507 15.3833 10.7259C15.0755 10.901 14.834 11.1567 14.6588 11.4929C14.4884 11.8243 14.4008 12.2244 14.396 12.6932Z" fill="url(#paint0_linear_2790_21058)"/>
<path d="M26.3768 19H23.0813L28.1026 4.45455H32.0657L37.0799 19H33.7844L30.141 7.77841H30.0273L26.3768 19ZM26.1708 13.2827H33.9549V15.6832H26.1708V13.2827ZM38.7738 23.0909V8.09091H41.7567V9.9233H41.8917C42.0243 9.62973 42.216 9.33144 42.467 9.02841C42.7227 8.72064 43.0541 8.46496 43.4613 8.26136C43.8732 8.05303 44.3846 7.94886 44.9954 7.94886C45.7908 7.94886 46.5247 8.1572 47.1971 8.57386C47.8694 8.9858 48.4068 9.60843 48.8093 10.4418C49.2118 11.2704 49.413 12.3097 49.413 13.5597C49.413 14.7765 49.2165 15.804 48.8235 16.642C48.4353 17.4754 47.9049 18.1075 47.2326 18.5384C46.565 18.9645 45.8169 19.1776 44.9883 19.1776C44.4012 19.1776 43.9016 19.0805 43.4897 18.8864C43.0825 18.6922 42.7487 18.4484 42.4883 18.1548C42.2279 17.8565 42.029 17.5559 41.8917 17.2528H41.7994V23.0909H38.7738ZM41.7354 13.5455C41.7354 14.1941 41.8254 14.7599 42.0053 15.2429C42.1853 15.7259 42.4457 16.1023 42.7866 16.3722C43.1275 16.6373 43.5418 16.7699 44.0295 16.7699C44.5219 16.7699 44.9386 16.6349 45.2795 16.3651C45.6204 16.0904 45.8784 15.7116 46.0536 15.2287C46.2335 14.741 46.3235 14.1799 46.3235 13.5455C46.3235 12.9157 46.2359 12.3617 46.0607 11.8835C45.8855 11.4053 45.6275 11.0312 45.2866 10.7614C44.9457 10.4915 44.5266 10.3565 44.0295 10.3565C43.5371 10.3565 43.1204 10.4867 42.7795 10.7472C42.4433 11.0076 42.1853 11.3769 42.0053 11.8551C41.8254 12.3333 41.7354 12.8968 41.7354 13.5455ZM51.43 23.0909V8.09091H54.413V9.9233H54.5479C54.6805 9.62973 54.8723 9.33144 55.1232 9.02841C55.3789 8.72064 55.7103 8.46496 56.1175 8.26136C56.5295 8.05303 57.0408 7.94886 57.6516 7.94886C58.4471 7.94886 59.181 8.1572 59.8533 8.57386C60.5257 8.9858 61.0631 9.60843 61.4656 10.4418C61.868 11.2704 62.0692 12.3097 62.0692 13.5597C62.0692 14.7765 61.8728 15.804 61.4798 16.642C61.0915 17.4754 60.5612 18.1075 59.8888 18.5384C59.2212 18.9645 58.4731 19.1776 57.6445 19.1776C57.0574 19.1776 56.5579 19.0805 56.146 18.8864C55.7388 18.6922 55.4049 18.4484 55.1445 18.1548C54.8841 17.8565 54.6853 17.5559 54.5479 17.2528H54.4556V23.0909H51.43ZM54.3917 13.5455C54.3917 14.1941 54.4817 14.7599 54.6616 15.2429C54.8415 15.7259 55.1019 16.1023 55.4428 16.3722C55.7837 16.6373 56.198 16.7699 56.6857 16.7699C57.1781 16.7699 57.5948 16.6349 57.9357 16.3651C58.2766 16.0904 58.5347 15.7116 58.7099 15.2287C58.8898 14.741 58.9798 14.1799 58.9798 13.5455C58.9798 12.9157 58.8922 12.3617 58.717 11.8835C58.5418 11.4053 58.2837 11.0312 57.9428 10.7614C57.6019 10.4915 57.1829 10.3565 56.6857 10.3565C56.1933 10.3565 55.7766 10.4867 55.4357 10.7472C55.0996 11.0076 54.8415 11.3769 54.6616 11.8551C54.4817 12.3333 54.3917 12.8968 54.3917 13.5455ZM67.1119 4.45455V19H64.0863V4.45455H67.1119ZM69.5355 19V8.09091H72.5611V19H69.5355ZM71.0554 6.68466C70.6056 6.68466 70.2197 6.53551 69.8977 6.23722C69.5805 5.93419 69.4219 5.57197 69.4219 5.15057C69.4219 4.7339 69.5805 4.37642 69.8977 4.07812C70.2197 3.77509 70.6056 3.62358 71.0554 3.62358C71.5052 3.62358 71.8887 3.77509 72.206 4.07812C72.5279 4.37642 72.6889 4.7339 72.6889 5.15057C72.6889 5.57197 72.5279 5.93419 72.206 6.23722C71.8887 6.53551 71.5052 6.68466 71.0554 6.68466ZM79.9137 19.2131C78.7963 19.2131 77.8351 18.9763 77.0302 18.5028C76.23 18.0246 75.6145 17.3617 75.1836 16.5142C74.7575 15.6667 74.5444 14.6913 74.5444 13.5881C74.5444 12.4706 74.7598 11.4905 75.1907 10.6477C75.6263 9.80019 76.2442 9.13968 77.0444 8.66619C77.8446 8.18797 78.7963 7.94886 79.8995 7.94886C80.8512 7.94886 81.6845 8.12169 82.3995 8.46733C83.1145 8.81297 83.6803 9.2983 84.0969 9.9233C84.5136 10.5483 84.7433 11.2822 84.7859 12.125H81.9308C81.8503 11.5805 81.6372 11.1425 81.2915 10.8111C80.9506 10.4749 80.5032 10.3068 79.9492 10.3068C79.4805 10.3068 79.0709 10.4347 78.7205 10.6903C78.3749 10.9413 78.105 11.3082 77.9109 11.7912C77.7167 12.2741 77.6197 12.8589 77.6197 13.5455C77.6197 14.2415 77.7144 14.8333 77.9038 15.321C78.0979 15.8087 78.3701 16.1804 78.7205 16.4361C79.0709 16.6918 79.4805 16.8196 79.9492 16.8196C80.2949 16.8196 80.605 16.7486 80.8796 16.6065C81.159 16.4645 81.3886 16.2585 81.5685 15.9886C81.7532 15.714 81.8739 15.3849 81.9308 15.0014H84.7859C84.7385 15.8348 84.5112 16.5687 84.104 17.2031C83.7016 17.8329 83.1452 18.3253 82.435 18.6804C81.7248 19.0355 80.8844 19.2131 79.9137 19.2131ZM89.8338 19.206C89.1378 19.206 88.5175 19.0852 87.973 18.8438C87.4285 18.5975 86.9976 18.2353 86.6804 17.7571C86.3679 17.2741 86.2116 16.6728 86.2116 15.9531C86.2116 15.3471 86.3229 14.8381 86.5455 14.4261C86.768 14.0142 87.071 13.6828 87.4545 13.4318C87.8381 13.1809 88.2737 12.9915 88.7614 12.8636C89.2538 12.7358 89.7699 12.6458 90.3097 12.5938C90.9441 12.5275 91.4555 12.4659 91.8438 12.4091C92.232 12.3475 92.5137 12.2576 92.6889 12.1392C92.8641 12.0208 92.9517 11.8456 92.9517 11.6136V11.571C92.9517 11.1212 92.8097 10.7732 92.5256 10.527C92.2462 10.2808 91.8485 10.1577 91.3324 10.1577C90.7879 10.1577 90.3546 10.2784 90.0327 10.5199C89.7107 10.7566 89.4976 11.0549 89.3935 11.4148L86.5952 11.1875C86.7372 10.5246 87.0166 9.9517 87.4332 9.46875C87.8499 8.98106 88.3873 8.60701 89.0455 8.34659C89.7083 8.08144 90.4754 7.94886 91.3466 7.94886C91.9527 7.94886 92.5327 8.01989 93.0866 8.16193C93.6454 8.30398 94.1402 8.52415 94.571 8.82244C95.0066 9.12074 95.3499 9.50426 95.6009 9.97301C95.8518 10.437 95.9773 10.9934 95.9773 11.642V19H93.108V17.4872H93.0227C92.8475 17.8281 92.6132 18.1288 92.3196 18.3892C92.026 18.6449 91.6733 18.8461 91.2614 18.9929C90.8494 19.1349 90.3736 19.206 89.8338 19.206ZM90.7003 17.1179C91.1454 17.1179 91.5384 17.0303 91.8793 16.8551C92.2202 16.6752 92.4877 16.4337 92.6818 16.1307C92.8759 15.8277 92.973 15.4844 92.973 15.1009V13.9432C92.8783 14.0047 92.7481 14.0616 92.5824 14.1136C92.4214 14.161 92.2391 14.206 92.0355 14.2486C91.8319 14.2865 91.6283 14.322 91.4247 14.3551C91.2211 14.3835 91.0365 14.4096 90.8707 14.4332C90.5156 14.4853 90.2055 14.5682 89.9403 14.6818C89.6752 14.7955 89.4692 14.9493 89.3224 15.1435C89.1757 15.3329 89.1023 15.5696 89.1023 15.8537C89.1023 16.2656 89.2514 16.5805 89.5497 16.7983C89.8527 17.0114 90.2363 17.1179 90.7003 17.1179ZM104.127 8.09091V10.3636H97.5575V8.09091H104.127ZM99.049 5.47727H102.075V15.6477C102.075 15.9271 102.117 16.1449 102.202 16.3011C102.288 16.4527 102.406 16.5592 102.558 16.6207C102.714 16.6823 102.894 16.7131 103.097 16.7131C103.239 16.7131 103.381 16.7012 103.523 16.6776C103.665 16.6491 103.774 16.6278 103.85 16.6136L104.326 18.8651C104.174 18.9124 103.961 18.9669 103.687 19.0284C103.412 19.0947 103.078 19.1349 102.685 19.1491C101.956 19.1776 101.317 19.0805 100.768 18.858C100.223 18.6354 99.7995 18.2898 99.4964 17.821C99.1934 17.3523 99.0443 16.7604 99.049 16.0455V5.47727ZM106.098 19V8.09091H109.124V19H106.098ZM107.618 6.68466C107.168 6.68466 106.782 6.53551 106.46 6.23722C106.143 5.93419 105.984 5.57197 105.984 5.15057C105.984 4.7339 106.143 4.37642 106.46 4.07812C106.782 3.77509 107.168 3.62358 107.618 3.62358C108.068 3.62358 108.451 3.77509 108.768 4.07812C109.09 4.37642 109.251 4.7339 109.251 5.15057C109.251 5.57197 109.09 5.93419 108.768 6.23722C108.451 6.53551 108.068 6.68466 107.618 6.68466ZM116.476 19.2131C115.373 19.2131 114.419 18.9787 113.614 18.5099C112.814 18.0365 112.196 17.3783 111.76 16.5355C111.325 15.688 111.107 14.7055 111.107 13.5881C111.107 12.4612 111.325 11.4763 111.76 10.6335C112.196 9.78598 112.814 9.12784 113.614 8.65909C114.419 8.18561 115.373 7.94886 116.476 7.94886C117.579 7.94886 118.531 8.18561 119.331 8.65909C120.136 9.12784 120.757 9.78598 121.192 10.6335C121.628 11.4763 121.846 12.4612 121.846 13.5881C121.846 14.7055 121.628 15.688 121.192 16.5355C120.757 17.3783 120.136 18.0365 119.331 18.5099C118.531 18.9787 117.579 19.2131 116.476 19.2131ZM116.49 16.8693C116.992 16.8693 117.411 16.7273 117.748 16.4432C118.084 16.1544 118.337 15.7614 118.507 15.2642C118.683 14.767 118.77 14.2012 118.77 13.5668C118.77 12.9323 118.683 12.3665 118.507 11.8693C118.337 11.3722 118.084 10.9792 117.748 10.6903C117.411 10.4015 116.992 10.2571 116.49 10.2571C115.984 10.2571 115.558 10.4015 115.212 10.6903C114.871 10.9792 114.613 11.3722 114.438 11.8693C114.267 12.3665 114.182 12.9323 114.182 13.5668C114.182 14.2012 114.267 14.767 114.438 15.2642C114.613 15.7614 114.871 16.1544 115.212 16.4432C115.558 16.7273 115.984 16.8693 116.49 16.8693ZM126.838 12.6932V19H123.813V8.09091H126.696V10.0156H126.824C127.066 9.38116 127.471 8.87926 128.039 8.50994C128.607 8.13589 129.296 7.94886 130.105 7.94886C130.863 7.94886 131.524 8.11458 132.087 8.44602C132.65 8.77746 133.088 9.25095 133.401 9.86648C133.713 10.4773 133.87 11.2064 133.87 12.054V19H130.844V12.5938C130.849 11.9261 130.678 11.4053 130.333 11.0312C129.987 10.6525 129.511 10.4631 128.905 10.4631C128.498 10.4631 128.138 10.5507 127.826 10.7259C127.518 10.901 127.276 11.1567 127.101 11.4929C126.931 11.8243 126.843 12.2244 126.838 12.6932ZM140.94 19V4.45455H146.679C147.782 4.45455 148.722 4.66525 149.498 5.08665C150.275 5.50331 150.867 6.08333 151.274 6.8267C151.686 7.56534 151.892 8.41761 151.892 9.38352C151.892 10.3494 151.683 11.2017 151.267 11.9403C150.85 12.679 150.246 13.2543 149.456 13.6662C148.67 14.0781 147.718 14.2841 146.6 14.2841H142.943V11.8196H146.103C146.695 11.8196 147.183 11.7178 147.566 11.5142C147.955 11.3059 148.243 11.0194 148.433 10.6548C148.627 10.2855 148.724 9.86174 148.724 9.38352C148.724 8.90057 148.627 8.47917 148.433 8.11932C148.243 7.75473 147.955 7.47301 147.566 7.27415C147.178 7.07055 146.686 6.96875 146.089 6.96875H144.015V19H140.94ZM156.858 4.45455V19H153.832V4.45455H156.858ZM162.392 19.206C161.696 19.206 161.076 19.0852 160.532 18.8438C159.987 18.5975 159.556 18.2353 159.239 17.7571C158.926 17.2741 158.77 16.6728 158.77 15.9531C158.77 15.3471 158.882 14.8381 159.104 14.4261C159.327 14.0142 159.63 13.6828 160.013 13.4318C160.397 13.1809 160.832 12.9915 161.32 12.8636C161.812 12.7358 162.328 12.6458 162.868 12.5938C163.503 12.5275 164.014 12.4659 164.402 12.4091C164.791 12.3475 165.072 12.2576 165.248 12.1392C165.423 12.0208 165.51 11.8456 165.51 11.6136V11.571C165.51 11.1212 165.368 10.7732 165.084 10.527C164.805 10.2808 164.407 10.1577 163.891 10.1577C163.346 10.1577 162.913 10.2784 162.591 10.5199C162.269 10.7566 162.056 11.0549 161.952 11.4148L159.154 11.1875C159.296 10.5246 159.575 9.9517 159.992 9.46875C160.408 8.98106 160.946 8.60701 161.604 8.34659C162.267 8.08144 163.034 7.94886 163.905 7.94886C164.511 7.94886 165.091 8.01989 165.645 8.16193C166.204 8.30398 166.699 8.52415 167.13 8.82244C167.565 9.12074 167.908 9.50426 168.159 9.97301C168.41 10.437 168.536 10.9934 168.536 11.642V19H165.667V17.4872H165.581C165.406 17.8281 165.172 18.1288 164.878 18.3892C164.585 18.6449 164.232 18.8461 163.82 18.9929C163.408 19.1349 162.932 19.206 162.392 19.206ZM163.259 17.1179C163.704 17.1179 164.097 17.0303 164.438 16.8551C164.779 16.6752 165.046 16.4337 165.24 16.1307C165.435 15.8277 165.532 15.4844 165.532 15.1009V13.9432C165.437 14.0047 165.307 14.0616 165.141 14.1136C164.98 14.161 164.798 14.206 164.594 14.2486C164.391 14.2865 164.187 14.322 163.983 14.3551C163.78 14.3835 163.595 14.4096 163.429 14.4332C163.074 14.4853 162.764 14.5682 162.499 14.6818C162.234 14.7955 162.028 14.9493 161.881 15.1435C161.734 15.3329 161.661 15.5696 161.661 15.8537C161.661 16.2656 161.81 16.5805 162.108 16.7983C162.411 17.0114 162.795 17.1179 163.259 17.1179ZM172.36 23.0909C171.977 23.0909 171.617 23.0601 171.281 22.9986C170.949 22.9418 170.675 22.8684 170.457 22.7784L171.139 20.5199C171.494 20.6288 171.814 20.688 172.098 20.6974C172.386 20.7069 172.635 20.6406 172.843 20.4986C173.056 20.3565 173.229 20.1151 173.362 19.7741L173.539 19.3125L169.626 8.09091H172.808L175.066 16.1023H175.18L177.46 8.09091H180.663L176.423 20.179C176.219 20.7661 175.942 21.2775 175.592 21.7131C175.246 22.1534 174.808 22.492 174.278 22.7287C173.748 22.9702 173.109 23.0909 172.36 23.0909ZM186.775 23.3182C185.794 23.3182 184.954 23.1832 184.253 22.9134C183.557 22.6482 183.003 22.286 182.591 21.8267C182.179 21.3674 181.912 20.8513 181.789 20.2784L184.587 19.902C184.672 20.1198 184.807 20.3234 184.992 20.5128C185.176 20.7022 185.42 20.8537 185.723 20.9673C186.031 21.0857 186.405 21.1449 186.846 21.1449C187.504 21.1449 188.046 20.9839 188.472 20.6619C188.903 20.3447 189.118 19.812 189.118 19.0639V17.0682H188.99C188.858 17.3712 188.659 17.6577 188.394 17.9276C188.129 18.1974 187.788 18.4176 187.371 18.5881C186.954 18.7585 186.457 18.8438 185.88 18.8438C185.06 18.8438 184.315 18.6544 183.642 18.2756C182.975 17.892 182.442 17.3073 182.044 16.5213C181.651 15.7306 181.455 14.7315 181.455 13.5241C181.455 12.2884 181.656 11.2562 182.059 10.4276C182.461 9.59896 182.996 8.97869 183.664 8.56676C184.336 8.15483 185.072 7.94886 185.873 7.94886C186.483 7.94886 186.995 8.05303 187.407 8.26136C187.819 8.46496 188.15 8.72064 188.401 9.02841C188.657 9.33144 188.853 9.62973 188.99 9.9233H189.104V8.09091H192.108V19.1065C192.108 20.0346 191.881 20.8111 191.426 21.4361C190.972 22.0611 190.342 22.5298 189.537 22.8423C188.737 23.1596 187.816 23.3182 186.775 23.3182ZM186.838 16.571C187.326 16.571 187.738 16.4503 188.074 16.2088C188.415 15.9626 188.676 15.6122 188.855 15.1577C189.04 14.6984 189.132 14.1491 189.132 13.5099C189.132 12.8707 189.042 12.3168 188.863 11.848C188.683 11.3745 188.422 11.0076 188.081 10.7472C187.74 10.4867 187.326 10.3565 186.838 10.3565C186.341 10.3565 185.922 10.4915 185.581 10.7614C185.24 11.0265 184.982 11.3958 184.807 11.8693C184.632 12.3428 184.544 12.8897 184.544 13.5099C184.544 14.1397 184.632 14.6842 184.807 15.1435C184.987 15.598 185.245 15.9508 185.581 16.2017C185.922 16.4479 186.341 16.571 186.838 16.571ZM194.516 19V8.09091H197.449V9.99432H197.563C197.762 9.31723 198.096 8.80587 198.564 8.46023C199.033 8.10985 199.573 7.93466 200.184 7.93466C200.335 7.93466 200.498 7.94413 200.674 7.96307C200.849 7.98201 201.003 8.00805 201.135 8.04119V10.7259C200.993 10.6832 200.797 10.6454 200.546 10.6122C200.295 10.5791 200.065 10.5625 199.857 10.5625C199.412 10.5625 199.014 10.6596 198.664 10.8537C198.318 11.0431 198.043 11.3082 197.84 11.6491C197.641 11.9901 197.542 12.383 197.542 12.8281V19H194.516ZM207.121 19.2131C206.018 19.2131 205.063 18.9787 204.259 18.5099C203.458 18.0365 202.84 17.3783 202.405 16.5355C201.969 15.688 201.751 14.7055 201.751 13.5881C201.751 12.4612 201.969 11.4763 202.405 10.6335C202.84 9.78598 203.458 9.12784 204.259 8.65909C205.063 8.18561 206.018 7.94886 207.121 7.94886C208.224 7.94886 209.176 8.18561 209.976 8.65909C210.781 9.12784 211.401 9.78598 211.837 10.6335C212.272 11.4763 212.49 12.4612 212.49 13.5881C212.49 14.7055 212.272 15.688 211.837 16.5355C211.401 17.3783 210.781 18.0365 209.976 18.5099C209.176 18.9787 208.224 19.2131 207.121 19.2131ZM207.135 16.8693C207.637 16.8693 208.056 16.7273 208.392 16.4432C208.728 16.1544 208.982 15.7614 209.152 15.2642C209.327 14.767 209.415 14.2012 209.415 13.5668C209.415 12.9323 209.327 12.3665 209.152 11.8693C208.982 11.3722 208.728 10.9792 208.392 10.6903C208.056 10.4015 207.637 10.2571 207.135 10.2571C206.628 10.2571 206.202 10.4015 205.857 10.6903C205.516 10.9792 205.258 11.3722 205.082 11.8693C204.912 12.3665 204.827 12.9323 204.827 13.5668C204.827 14.2012 204.912 14.767 205.082 15.2642C205.258 15.7614 205.516 16.1544 205.857 16.4432C206.202 16.7273 206.628 16.8693 207.135 16.8693ZM221.453 14.3551V8.09091H224.479V19H221.574V17.0185H221.46C221.214 17.6577 220.804 18.1714 220.232 18.5597C219.663 18.9479 218.97 19.142 218.151 19.142C217.421 19.142 216.78 18.9763 216.226 18.6449C215.672 18.3134 215.239 17.8423 214.926 17.2315C214.618 16.6207 214.462 15.8892 214.457 15.0369V8.09091H217.483V14.4972C217.488 15.1411 217.661 15.6501 218.001 16.0241C218.342 16.3982 218.799 16.5852 219.372 16.5852C219.737 16.5852 220.078 16.5024 220.395 16.3366C220.712 16.1662 220.968 15.9152 221.162 15.5838C221.361 15.2524 221.458 14.8428 221.453 14.3551ZM229.924 12.6932V19H226.899V8.09091H229.782V10.0156H229.91C230.152 9.38116 230.556 8.87926 231.125 8.50994C231.693 8.13589 232.382 7.94886 233.191 7.94886C233.949 7.94886 234.609 8.11458 235.173 8.44602C235.736 8.77746 236.174 9.25095 236.487 9.86648C236.799 10.4773 236.956 11.2064 236.956 12.054V19H233.93V12.5938C233.935 11.9261 233.764 11.4053 233.419 11.0312C233.073 10.6525 232.597 10.4631 231.991 10.4631C231.584 10.4631 231.224 10.5507 230.912 10.7259C230.604 10.901 230.362 11.1567 230.187 11.4929C230.017 11.8243 229.929 12.2244 229.924 12.6932ZM243.36 19.1776C242.531 19.1776 241.781 18.9645 241.109 18.5384C240.441 18.1075 239.911 17.4754 239.518 16.642C239.129 15.804 238.935 14.7765 238.935 13.5597C238.935 12.3097 239.137 11.2704 239.539 10.4418C239.942 9.60843 240.477 8.9858 241.144 8.57386C241.817 8.1572 242.553 7.94886 243.353 7.94886C243.964 7.94886 244.473 8.05303 244.88 8.26136C245.292 8.46496 245.623 8.72064 245.874 9.02841C246.13 9.33144 246.324 9.62973 246.457 9.9233H246.549V4.45455H249.567V19H246.585V17.2528H246.457C246.315 17.5559 246.113 17.8565 245.853 18.1548C245.597 18.4484 245.263 18.6922 244.852 18.8864C244.444 19.0805 243.947 19.1776 243.36 19.1776ZM244.319 16.7699C244.807 16.7699 245.219 16.6373 245.555 16.3722C245.896 16.1023 246.156 15.7259 246.336 15.2429C246.521 14.7599 246.613 14.1941 246.613 13.5455C246.613 12.8968 246.523 12.3333 246.343 11.8551C246.163 11.3769 245.903 11.0076 245.562 10.7472C245.221 10.4867 244.807 10.3565 244.319 10.3565C243.822 10.3565 243.403 10.4915 243.062 10.7614C242.721 11.0312 242.463 11.4053 242.288 11.8835C242.112 12.3617 242.025 12.9157 242.025 13.5455C242.025 14.1799 242.112 14.741 242.288 15.2287C242.468 15.7116 242.726 16.0904 243.062 16.3651C243.403 16.6349 243.822 16.7699 244.319 16.7699Z" fill="#143566"/>
<path d="M8.72384 4.18995L11.9681 4.20965L3.35367 19.3395L0.0668805 19.3395L8.72384 4.18995Z" fill="#D62400"/>
<defs>
<linearGradient id="paint0_linear_2790_21058" x1="11.9663" y1="6.54545" x2="22.5351" y2="22.5385" gradientUnits="userSpaceOnUse">
<stop stop-color="#D62400"/>
<stop offset="1" stop-color="#A02020"/>
</linearGradient>
</defs>
</svg>
