<svg width="37" height="36" viewBox="0 0 37 36" fill="none" xmlns="http://www.w3.org/2000/svg">
<path d="M19.6797 30.6797H16.7538C16.4842 30.6797 16.2661 30.8978 16.2661 31.1673V31.655C16.2661 32.7308 17.141 33.6056 18.2168 33.6056C19.2925 33.6056 20.1674 32.7308 20.1674 31.655V31.1673C20.1674 30.8978 19.9493 30.6797 19.6797 30.6797Z" fill="#868491"/>
<path d="M18.2163 30.6797H16.7538C16.4842 30.6797 16.2661 30.8978 16.2661 31.1673V31.655C16.2661 32.7307 17.1407 33.6053 18.2163 33.6056V30.6797Z" fill="#9A9A9A"/>
<path d="M25.8957 5.43603C23.6164 3.29393 20.631 2.22101 17.4998 2.41742C11.7935 2.7725 7.18363 7.53242 7.00551 13.2541C6.87409 17.4935 9.10093 21.3967 12.8174 23.4411C13.7413 23.9497 14.3152 24.9265 14.3152 25.9908V29.704C14.3152 30.7798 15.19 31.6547 16.2658 31.6547H20.1671C21.2429 31.6547 22.1177 30.7798 22.1177 29.704V25.9908C22.1177 24.9274 22.6959 23.9483 23.6274 23.4349C27.2082 21.4595 29.4326 17.6954 29.4326 13.6112C29.4326 10.5281 28.1435 7.54833 25.8957 5.43603Z" fill="#FFD93C"/>
<path d="M18.2172 22.9604C23.3799 22.9604 27.5651 18.7752 27.5651 13.6125C27.5651 8.44982 23.3799 4.26465 18.2172 4.26465C13.0546 4.26465 8.86938 8.44982 8.86938 13.6125C8.86938 18.7752 13.0546 22.9604 18.2172 22.9604Z" fill="#FFE980"/>
<path d="M19.922 16.5376C19.2738 16.5376 18.9424 16.1594 18.701 15.8837C18.4881 15.6408 18.4033 15.5622 18.2133 15.5622C18.0242 15.5622 17.94 15.6408 17.728 15.8832C17.5004 16.1437 17.156 16.5376 16.5079 16.5376C15.8602 16.5376 15.5159 16.1437 15.2883 15.8832C15.0763 15.6408 14.9921 15.5622 14.803 15.5622C14.5334 15.5622 14.3153 15.3441 14.3153 15.0746C14.3153 14.805 14.5334 14.5869 14.803 14.5869C15.4506 14.5869 15.7949 14.9808 16.0226 15.2412C16.2346 15.4837 16.3188 15.5622 16.5079 15.5622C16.697 15.5622 16.7817 15.4837 16.9937 15.2412C17.2213 14.9808 17.5656 14.5869 18.2133 14.5869C18.8615 14.5869 19.1929 14.965 19.4343 15.2408C19.6472 15.4837 19.732 15.5622 19.922 15.5622C20.1115 15.5622 20.1963 15.4837 20.4092 15.2412C20.6373 14.9808 20.9816 14.5869 21.6302 14.5869C21.8998 14.5869 22.1179 14.805 22.1179 15.0746C22.1179 15.3441 21.8998 15.5622 21.6302 15.5622C21.4402 15.5622 21.3554 15.6408 21.1425 15.8837C20.9144 16.1442 20.5702 16.5376 19.922 16.5376Z" fill="#FFF7CE"/>
<path d="M16.7533 25.8024C16.529 25.8024 16.3271 25.6466 16.277 25.4185L13.8387 14.2023C13.7815 13.939 13.9488 13.6794 14.2116 13.6218C14.4764 13.5637 14.7345 13.7319 14.7921 13.9947L17.2304 25.2109C17.2876 25.4742 17.1204 25.7338 16.8575 25.7914C16.8224 25.7991 16.7875 25.8024 16.7533 25.8024Z" fill="#FFF7CE"/>
<path d="M19.6802 25.8022C19.6458 25.8022 19.6111 25.7989 19.5759 25.7913C19.313 25.7337 19.1458 25.4741 19.203 25.2108L21.6413 13.9946C21.6989 13.7317 21.9561 13.564 22.2218 13.6217C22.4847 13.6793 22.6518 13.9389 22.5947 14.2022L20.1564 25.4184C20.1064 25.6466 19.9045 25.8022 19.6802 25.8022Z" fill="#FFF7CE"/>
<path d="M14.2314 25.3164C14.2833 25.5354 14.3152 25.761 14.3152 25.9922V29.7053C14.3152 30.7811 15.1901 31.656 16.2658 31.656H20.1671C21.2429 31.656 22.1178 30.7811 22.1178 29.7053V25.9922C22.1178 25.7612 22.1499 25.5355 22.2021 25.3164H14.2314Z" fill="#B4B6BC"/>
<path d="M18.2162 25.3164H14.2314C14.2833 25.5354 14.3152 25.761 14.3152 25.9922V29.7053C14.3152 30.7811 15.1901 31.656 16.2658 31.656H18.2162V25.3164Z" fill="#B4B6BC"/>
<path d="M22.1175 26.7773H18.2162V27.7527H22.1175V26.7773Z" fill="#9A9A9A"/>
<path d="M22.1177 28.7285H18.2164V29.7038H22.1177V28.7285Z" fill="#9A9A9A"/>
<path d="M18.2162 26.7773H14.3149V27.7527H18.2162V26.7773Z" fill="#9A9A9A"/>
<path d="M18.2162 28.7285H14.3149V29.7038H18.2162V28.7285Z" fill="#9A9A9A"/>
</svg>
