<svg xmlns="http://www.w3.org/2000/svg" width="16" height="17" fill="none" viewBox="0 0 16 17"><path stroke="currentColor" stroke-linecap="round" stroke-linejoin="round" stroke-width="1.5" d="M10.666 15.666v-2.58a2.25 2.25 0 0 0-.626-1.74c2.093-.233 4.293-1.026 4.293-4.666 0-.931-.358-1.826-1-2.5a3.38 3.38 0 0 0-.06-2.514s-.787-.233-2.607.987a8.9 8.9 0 0 0-4.666 0c-1.82-1.22-2.607-.987-2.607-.987a3.38 3.38 0 0 0-.06 2.514 3.63 3.63 0 0 0-1 2.52c0 3.613 2.2 4.406 4.293 4.666A2.25 2.25 0 0 0 6 13.086v2.58m0-2c-3.334 1-3.334-1.666-4.667-2z"/></svg>